<?xml version="1.0" encoding="UTF-8"?>
<svg width="31px" height="30px" viewBox="0 0 31 30" version="1.1" xmlns="http://www.w3.org/2000/svg" xmlns:xlink="http://www.w3.org/1999/xlink">
    <!-- Generator: Sketch 49.1 (51147) - http://www.bohemiancoding.com/sketch -->
    <title>Combined Shape</title>
    <desc>Created with Sketch.</desc>
    <defs></defs>
    <g id="Page-1" stroke="none" stroke-width="1" fill="none" fill-rule="evenodd">
        <g id="HF-Homepage" transform="translate(-346.000000, -3068.000000)" fill="#E2434B" fill-rule="nonzero">
            <g id="Group-43" transform="translate(0.000000, 2520.000000)">
                <g id="Group-28" transform="translate(306.000000, 155.000000)">
                    <g id="Group-21" transform="translate(0.000000, 148.000000)">
                        <g id="Group-13" transform="translate(0.000000, 200.000000)">
                            <path d="M65.9842951,62.9818179 C69.2556866,59.3284612 69.6512721,53.9227156 66.9466937,49.8304736 C64.2421153,45.7382316 59.1199527,43.9922908 54.4852631,45.5828691 C49.8505735,47.1734474 46.873057,51.6991158 47.2414252,56.5931214 C47.6097934,61.4871269 51.2310778,65.5143236 56.0514509,66.390669 C56.6937403,66.5080562 57.3452463,66.5674868 57.9981365,66.5682464 C59.3317271,66.5687992 60.6535328,66.3181627 61.8946729,65.8293977 L64.1325699,70.9030366 C64.5654407,71.8850813 65.4143367,72.6214914 66.4464351,72.910295 C66.5572221,72.9420052 66.6680091,72.9673734 66.7819614,72.9863996 C66.9909084,73.0239624 67.2027457,73.043062 67.4150299,73.043478 C68.8737345,73.0390192 70.1852183,72.1521681 70.734858,70.7985449 C71.2844978,69.4449217 70.9633742,67.892767 69.921981,66.8694937 L65.9842951,62.9818179 Z M56.3331664,64.8368671 C52.6719064,64.1805182 49.7678704,61.3757327 48.9793105,57.7343421 C48.1907506,54.0929515 49.6735446,50.3347641 52.7341722,48.2175288 C54.2645297,47.1487139 56.0851084,46.5754417 57.9506563,46.5749382 C58.5068749,46.5747761 59.0619842,46.6246558 59.6092957,46.7239763 C64.6020701,47.6302784 67.9161268,52.4196901 67.0114487,57.4214268 C66.1067706,62.4231635 61.3259407,65.7431692 56.3331664,64.8368671 Z M69.4376836,69.6029166 C69.3873875,70.1700753 69.1008488,70.689745 68.6484021,71.0343666 C68.1959553,71.3789883 67.6194918,71.5166538 67.0605115,71.4135715 L66.870591,71.3691772 C66.2901367,71.206916 65.812769,70.7926875 65.5696353,70.2402925 L63.3127462,65.1349434 C63.5807452,64.9806202 63.8434686,64.81467 64.1009165,64.6370926 C64.3604745,64.4574012 64.6094815,64.2671398 64.8479372,64.0663082 L68.8299379,67.9856943 C69.2644693,68.4061151 69.487573,68.9997983 69.4376836,69.6029166 Z M46.704195,74.7685152 L40.23107,68.2932836 C40.0832326,68.1452979 40.0001168,67.9445495 40,67.7351833 L40,50.0535519 C40,48.827636 40.9920204,47.8338348 42.2157396,47.8338348 L45.6279787,47.8338348 C46.0650212,47.8338348 46.4193142,48.1887638 46.4193142,48.6265909 C46.4193142,49.064418 46.0650212,49.419347 45.6279787,49.419347 L42.2157396,49.419347 C41.8661056,49.419347 41.5826712,49.7032902 41.5826712,50.0535519 L41.5826712,66.5714174 L46.5712507,66.5714174 C47.5914595,66.573163 48.4180681,67.4012554 48.4198106,68.4232956 L48.4198106,73.4049748 L58.6312049,73.4049748 C58.980839,73.4049748 59.2642734,73.1210316 59.2642734,72.7707699 L59.2642734,69.6758502 C59.2642734,69.2380231 59.6185664,68.8830941 60.055609,68.8830941 C60.4926515,68.8830941 60.8469445,69.2380231 60.8469445,69.6758502 L60.8469445,72.780283 C60.8469445,74.0061988 59.8549241,75 58.6312049,75 L47.2612953,75 C47.0523043,74.999883 46.8519156,74.916618 46.704195,74.7685152 Z M46.8498008,68.4264666 L46.8466354,68.4232956 C46.8466354,68.2709318 46.7233415,68.1474165 46.5712507,68.1474165 L42.3201959,68.1474165 L46.8498008,72.6819812 L46.8498008,68.4264666 Z M64.4934189,55.945315 L64.5029149,55.9294599 C64.5029149,56.367287 64.1486219,56.722216 63.7115793,56.722216 C63.2745368,56.722216 62.9202438,56.367287 62.9202438,55.9294599 L62.9202438,54.9781526 L59.5459888,58.3552935 C59.2382397,58.6633515 58.7395375,58.6633515 58.4317883,58.3552935 L55.9564907,55.8755525 L52.7911483,59.0465768 C52.5940827,59.2554217 52.2993105,59.3405107 52.0215309,59.2687346 C51.7437513,59.1969585 51.5268355,58.9796534 51.4551881,58.7013752 C51.3835406,58.4230969 51.4684771,58.1277955 51.6769478,57.9303762 L55.4025557,54.2012516 C55.7103049,53.8931936 56.2090071,53.8931936 56.5167562,54.2012516 L58.9920539,56.6809926 L61.7902166,53.8682941 L60.8406139,53.8682941 C60.4035713,53.8682941 60.0492783,53.5133651 60.0492783,53.075538 C60.0492783,52.6377109 60.4035713,52.2827819 60.8406139,52.2827819 L63.7052487,52.2827819 C64.1405431,52.2827819 64.4934189,52.6362912 64.4934189,53.072367 L64.4934189,55.945315 Z" id="Combined-Shape"></path>
                        </g>
                    </g>
                </g>
            </g>
        </g>
    </g>
</svg>