<?xml version="1.0" encoding="UTF-8"?>
<svg width="80px" height="29px" viewBox="0 0 80 29" version="1.1" xmlns="http://www.w3.org/2000/svg" xmlns:xlink="http://www.w3.org/1999/xlink">
    <!-- Generator: Sketch 49.1 (51147) - http://www.bohemiancoding.com/sketch -->
    <title>Jira Software-blue</title>
    <desc>Created with Sketch.</desc>
    <defs>
        <linearGradient x1="91.8666124%" y1="40.3276956%" x2="28.2635218%" y2="81.6596195%" id="linearGradient-1">
            <stop stop-color="#0052CC" offset="18%"></stop>
            <stop stop-color="#2684FF" offset="100%"></stop>
        </linearGradient>
        <linearGradient x1="8.70980871%" y1="59.1664468%" x2="72.2425722%" y2="17.9899763%" id="linearGradient-2">
            <stop stop-color="#0052CC" offset="18%"></stop>
            <stop stop-color="#2684FF" offset="100%"></stop>
        </linearGradient>
    </defs>
    <g id="Page-1" stroke="none" stroke-width="1" fill="none" fill-rule="evenodd">
        <g id="HF-Homepage" transform="translate(-793.000000, -4898.000000)" fill-rule="nonzero">
            <g id="Group-32" transform="translate(0.000000, 4543.000000)">
                <g id="Group-50" transform="translate(246.000000, 121.000000)">
                    <g id="Group-31" transform="translate(0.000000, 168.000000)">
                        <g id="Group-29" transform="translate(507.000000, 0.000000)">
                            <g id="Jira-Software-blue" transform="translate(40.000000, 66.000000)">
                                <path d="M41.0441315,3.43421053 L44.0187793,3.43421053 L44.0187793,18.7736842 C44.0187793,22.8375 42.2685446,25.6421053 38.1671362,25.6421053 C36.9542604,25.6607516 35.7472771,25.4671348 34.599061,25.0697368 L34.599061,22.1315789 C35.5785042,22.5173741 36.6209079,22.7115736 37.6713615,22.7039474 C40.1840376,22.7039474 41.0516432,21.1776316 41.0516432,18.9759211 L41.0441315,3.43421053 Z" id="Shape" fill="#253858"></path>
                                <path d="M49.4384977,2.25513158 C49.9753057,2.2161053 50.5023435,2.415805 50.8828947,2.80242751 C51.2634459,3.18905001 51.4600097,3.72449618 51.4215962,4.26986842 C51.4215962,5.38257685 50.5337328,6.28460526 49.4384977,6.28460526 C48.3432625,6.28460526 47.4553991,5.38257685 47.4553991,4.26986842 C47.4169856,3.72449618 47.6135494,3.18905001 47.9941006,2.80242751 C48.3746518,2.415805 48.9016896,2.2161053 49.4384977,2.25513158 Z M47.9849765,8.70381579 L50.828169,8.70381579 L50.828169,25.4932895 L47.9849765,25.4932895 L47.9849765,8.70381579 Z" id="Shape" fill="#253858"></path>
                                <path d="M55.1211268,8.7 L57.8967136,8.7 L57.8967136,11.6534211 C58.8544601,9.67302632 60.5258216,8.26118421 63.7483568,8.46342105 L63.7483568,11.2832895 C60.1126761,10.9017105 57.8967136,12.0235526 57.8967136,15.5798684 L57.8967136,25.5009211 L55.1211268,25.5009211 L55.1211268,8.7 Z" id="Shape" fill="#253858"></path>
                                <path d="M77.0666667,22.4673684 C76.0075117,24.6843421 74.0244131,25.8252632 71.4816901,25.8252632 C67.0873239,25.8252632 64.8713615,22.0323684 64.8713615,17.0947368 C64.8713615,12.3593421 67.1849765,8.36421053 71.8122066,8.36421053 C74.2234742,8.36421053 76.0751174,9.47078947 77.0704225,11.6534211 L77.0704225,8.7 L79.913615,8.7 L79.913615,25.4894737 L77.0704225,25.4894737 L77.0666667,22.4673684 Z M72.2403756,23.1389474 C74.7868545,23.1389474 77.0666667,21.4943421 77.0666667,17.7663158 L77.0666667,16.4078947 C77.0666667,12.6798684 74.9859155,11.0352632 72.5596244,11.0352632 C69.3521127,11.0352632 67.6995305,13.1835526 67.6995305,17.0794737 C67.714554,21.1242105 69.2995305,23.1389474 72.2441315,23.1389474 L72.2403756,23.1389474 Z" id="Shape" fill="#253858"></path>
                                <path d="M27.1924883,13.6452632 L14.9483568,1.20578947 L13.7615023,0 L4.54460094,9.36394737 L0.330516432,13.6452632 C-0.108850145,14.0921952 -0.108850145,14.8162258 0.330516432,15.2631579 L8.75117371,23.8181579 L13.7615023,28.9084211 L22.9784038,19.5444737 L23.1211268,19.3994737 L27.1924883,15.2631579 C27.6318548,14.8162258 27.6318548,14.0921952 27.1924883,13.6452632 Z M13.7615023,18.7278947 L9.55492958,14.4542105 L13.7615023,10.1805263 L17.9680751,14.4542105 L13.7615023,18.7278947 Z" id="Shape" fill="#2684FF"></path>
                                <path d="M13.7615023,10.1805263 C11.0073533,7.3821072 10.9939306,2.84954735 13.7314554,0.0343421053 L4.5258216,9.38302632 L9.53615023,14.4732895 L13.7615023,10.1805263 Z" id="Shape" fill="url(#linearGradient-1)"></path>
                                <path d="M17.9793427,14.4427632 L13.7615023,18.7278947 C15.0908405,20.0776379 15.8377215,21.9087647 15.8377215,23.8181579 C15.8377215,25.7275511 15.0908405,27.5586778 13.7615023,28.9084211 L22.9896714,19.5330263 L17.9793427,14.4427632 Z" id="Shape" fill="url(#linearGradient-2)"></path>
                            </g>
                        </g>
                    </g>
                </g>
            </g>
        </g>
    </g>
</svg>