<svg xmlns="http://www.w3.org/2000/svg" width="96" height="28" viewBox="0 0 96 28">
    <path fill="#0089D6" fill-rule="nonzero" d="M17.006 26.433l8.27-1.46.078-.017-4.254-5.049c-2.34-2.776-4.254-5.059-4.254-5.072 0-.025 4.392-12.093 4.417-12.136.008-.014 2.998 5.135 7.246 12.482l7.287 12.602.056.097-13.52-.002-13.518-.002 8.192-1.443zm51.844-1.221c-2.058-.132-3.255-1.301-3.572-3.49-.085-.582-.085-.597-.094-4.376l-.008-3.658H66.997l.008 3.538c.006 3.189.01 3.563.04 3.787.125.91.372 1.523.792 1.962.336.352.73.558 1.275.667.257.051.989.051 1.223 0a2.705 2.705 0 0 0 1.387-.75c.445-.445.774-1.075.934-1.788l.053-.24.006-3.568.006-3.568h1.86v11.218h-1.84v-.89c0-.605-.007-.888-.021-.883a.73.73 0 0 0-.105.16 3.737 3.737 0 0 1-1.425 1.423c-.694.381-1.39.516-2.34.456zm20.887-.01a4.833 4.833 0 0 1-2.117-.689c-1.317-.813-2.097-2.154-2.325-3.998-.08-.639-.089-1.496-.023-2.039.147-1.211.625-2.401 1.305-3.25.174-.218.57-.613.787-.787a4.913 4.913 0 0 1 2.01-.957 6.549 6.549 0 0 1 1.631-.095c1.138.105 2.181.64 2.89 1.481.72.855 1.117 2.05 1.167 3.521.008.23.01.635.004.898l-.01.48-3.986.004-3.986.005v.178c0 .54.132 1.155.36 1.679.196.451.534.944.81 1.183.567.49 1.262.782 2.021.852.282.027 1 0 1.32-.05a5.603 5.603 0 0 0 2.49-1.025c.082-.062.162-.12.176-.128.02-.013.025.149.025.828l-.001.844-.189.117a6.607 6.607 0 0 1-2.67.923c-.288.036-1.345.051-1.69.026zm3.469-7.12c0-.905-.382-1.91-.923-2.428a2.539 2.539 0 0 0-1.408-.681 4.168 4.168 0 0 0-1.092.03 2.858 2.858 0 0 0-1.49.791c-.445.438-.778.97-.987 1.576a5.048 5.048 0 0 0-.191.774l-.013.095h6.104v-.157zm-54.07 6.839l3.008-7.884 3-7.86h1.927l.08.205c.244.625 6.004 15.547 6.004 15.554 0 .006-.46.01-1.025.01h-1.025l-.83-2.206-.83-2.205h-6.686l-.03.074c-.015.042-.37 1.034-.787 2.206l-.76 2.13h-1.027c-.813 0-1.026-.004-1.019-.024zm9.698-6.07c0-.003-.558-1.514-1.241-3.358-1.278-3.449-1.35-3.656-1.45-4.21-.047-.26-.071-.267-.1-.03-.02.17-.107.549-.174.759-.033.104-.608 1.68-1.278 3.5a540.37 540.37 0 0 0-1.218 3.329c0 .01 1.229.017 2.73.017 1.502 0 2.731-.003 2.731-.006zm4.942 5.808v-.288l3.33-4.568 3.33-4.568-3.015-.01-3.015-.01-.005-.763-.006-.764H63.118v.516l-3.33 4.593c-1.833 2.526-3.332 4.597-3.332 4.602 0 .006 1.481.01 3.291.01h3.291v1.537h-9.262v-.287zm24.44.273c-.008-.007-.014-2.54-.014-5.628v-5.616h1.82v1.158c0 .637.008 1.158.018 1.158.01 0 .053-.104.098-.232a4 4 0 0 1 1.017-1.563c.412-.39.883-.624 1.438-.713.156-.025.288-.03.6-.022.392.01.597.04.835.117l.076.024v1.886l-.216-.108a2.301 2.301 0 0 0-1.205-.241 2.278 2.278 0 0 0-1.867 1.075 5.422 5.422 0 0 0-.761 2.184c-.015.134-.024 1.222-.028 3.366l-.005 3.169h-.897c-.493 0-.902-.006-.91-.014zM.781 24.893c0-.007 2.004-3.479 4.454-7.715L9.69 9.477l5.19-4.346C17.737 2.74 20.08.78 20.09.778c.01-.004-.028.09-.084.21L14.37 13.05 8.833 24.896l-4.026.005c-2.214.003-4.025 0-4.025-.008z"/>
</svg>
