<svg xmlns="http://www.w3.org/2000/svg" width="161" height="24" viewBox="0 0 161 24">
    <g fill="none" fill-rule="nonzero">
        <path fill="#5386FF" d="M23.667 7.662l1.59 2.64a3.76 3.76 0 0 1 0 3.51l-4.823 8.267A3.567 3.567 0 0 1 17.288 24H8.38a3.57 3.57 0 0 1-3.147-1.92L3.57 19.26l6.571-6.103 4.761 2.763a1.17 1.17 0 0 0 1.559-.213l7.207-8.045zm-14.334.673L2.13 16.447.435 13.848a3.748 3.748 0 0 1 0-3.504l5.087-8.426A3.572 3.572 0 0 1 8.671 0h8.572c1.315 0 2.523.736 3.15 1.918l1.73 2.916-6.44 5.992-4.745-2.758a1.175 1.175 0 0 0-1.605.266z"/>
        <path fill="#33334F" d="M41.39 14.807c0-2.307-.837-3.461-2.513-3.461a4.12 4.12 0 0 0-1.079.144 3.04 3.04 0 0 0-.866.36v6.514c.174.033.396.06.664.085.269.024.562.036.878.036.964 0 1.691-.337 2.182-1.01.49-.672.735-1.562.735-2.668zm3.605.096c0 1.01-.145 1.924-.438 2.74a5.803 5.803 0 0 1-1.27 2.092 5.576 5.576 0 0 1-2.038 1.334c-.807.312-1.724.47-2.751.47-.427 0-.874-.021-1.34-.06-.46-.04-.919-.093-1.376-.158-.433-.06-.865-.137-1.293-.228-.411-.088-.774-.18-1.09-.276V3.435l3.533-.864V8.87c.82-.37 1.71-.559 2.609-.553.885 0 1.668.156 2.347.469.667.302 1.253.76 1.708 1.333.459.577.807 1.27 1.044 2.08.237.809.355 1.71.355 2.704zm6.93 3.823c.347 0 .68-.009.995-.025.254-.01.508-.033.759-.072v-2.716a6.442 6.442 0 0 0-.64-.096 6.91 6.91 0 0 0-1.72.012c-.267.032-.528.11-.77.228-.212.103-.392.26-.523.457-.125.193-.188.433-.188.721 0 .561.185.95.557 1.166.371.216.882.324 1.53.324v.001zm-.238-10.431c1.044 0 1.913.12 2.609.36s1.252.586 1.671 1.034c.42.45.668.943.842 1.584.175.641.261 1.354.261 2.14v7.452a43.85 43.85 0 0 1-2.11.396c-.902.153-1.992.23-3.273.23-.806 0-1.537-.074-2.193-.218-.656-.144-1.221-.38-1.696-.708a3.233 3.233 0 0 1-1.09-1.286c-.254-.53-.38-1.179-.38-1.948 0-.737.145-1.362.438-1.875a3.402 3.402 0 0 1 1.174-1.226 5.262 5.262 0 0 1 1.684-.66 9.322 9.322 0 0 1 1.968-.205c.459 0 .866.02 1.222.06.355.04.644.092.865.156v-.336c0-.609-.182-1.098-.546-1.466-.363-.369-.996-.554-1.896-.554-.6 0-1.194.045-1.78.133a7.544 7.544 0 0 0-1.517.372l-.402-2.834a13.247 13.247 0 0 1 1.778-.397c.364-.056.746-.104 1.15-.144.402-.04.81-.06 1.221-.06zm14.637 3.263s-.882.171-1.588.457c-.706.287-1.473.978-1.553 1.002v8.156H59.65L59.654 9.1l3.286-.86.243 1.2s.706-.429 1.553-.716c.847-.286 1.617-.409 1.617-.409l-.029 3.243zm65.14.055s-.882.172-1.588.457c-.706.287-1.473.977-1.553 1.002v8.1h-3.533l.004-12.017 3.286-.86.243 1.2s.706-.429 1.553-.715c.847-.287 1.616-.41 1.616-.41l-.028 3.243zM67.473 15c0-1.121.17-2.103.51-2.944.34-.842.786-1.543 1.34-2.104a5.568 5.568 0 0 1 1.91-1.274c.719-.288 1.495-.382 2.254-.382 1.771 0 3.132.498 4.16 1.596 1.027 1.098 1.541 2.712 1.541 4.843 0 .21-.009.437-.024.686-.015.249-.032.469-.047.66H71.1a2.39 2.39 0 0 0 1.02 1.756c.6.433 1.407.65 2.419.65.648 0 1.284-.06 1.91-.18.624-.12 1.133-.27 1.529-.447l.473 2.91a4.838 4.838 0 0 1-.758.288 9.83 9.83 0 0 1-1.055.252c-.388.072-.803.133-1.246.18-.442.05-.885.073-1.327.073-1.123 0-2.099-.169-2.929-.505-.83-.336-1.518-.798-2.064-1.382a5.502 5.502 0 0 1-1.209-2.08A8.34 8.34 0 0 1 67.473 15zm8.3-1.37a3.71 3.71 0 0 0-.154-.89 2.144 2.144 0 0 0-1.091-1.321c-.277-.145-.621-.217-1.032-.217-.394 0-.735.068-1.02.205a2.115 2.115 0 0 0-.711.54 2.41 2.41 0 0 0-.439.782 5.164 5.164 0 0 0-.225.901h4.672zm13.294-4.822a7.95 7.95 0 0 0-.4-.166c-.615-.236-1.294-.348-2.195-.348-.458 0-.924.02-1.399.06-.197.017-.587.058-.587.058l-.232.03c-.177.023-.418.056-.567.08a24.24 24.24 0 0 0-2.337.493v12.211h3.534v-9.759c.22-.033.45-.06.688-.084a6.84 6.84 0 0 1 .687-.036c.711 0 1.067.113 1.506.72.439.609.439 2.452.439 2.452v6.707h3.548v-9.759c.221-.033.45-.06.688-.084.237-.024.466-.036.687-.036.711 0 1.067.113 1.506.72.44.609.44 2.452.44 2.452v6.707h3.533v-9.394s-.064-1.16-1.208-2.11a6.318 6.318 0 0 0-1.863-1.08c-.615-.236-1.293-.348-2.194-.348a16.539 16.539 0 0 0-1.987.118l-.231.03a24.21 24.21 0 0 0-.57.08c-.498.079-.993.174-1.486.286zM100.634 15c0-1.121.17-2.103.51-2.944.34-.842.787-1.543 1.34-2.104a5.568 5.568 0 0 1 1.91-1.274c.72-.288 1.365-.382 2.124-.382 1.77 0 3.263.498 4.29 1.596 1.028 1.098 1.542 2.712 1.542 4.843 0 .21-.009.437-.024.686-.017.249-.032.469-.047.66h-8.016a2.39 2.39 0 0 0 1.019 1.756c.601.433 1.408.65 2.42.65.648 0 1.284-.06 1.909-.18.623-.12 1.134-.27 1.529-.447l.474 2.91a4.838 4.838 0 0 1-.759.288 9.88 9.88 0 0 1-1.055.252c-.387.072-.802.133-1.245.18-.443.05-.885.073-1.327.073-1.123 0-2.1-.169-2.93-.505-.83-.336-1.517-.798-2.063-1.382a5.502 5.502 0 0 1-1.21-2.08 8.34 8.34 0 0 1-.39-2.596zm8.3-1.37a3.743 3.743 0 0 0-.154-.89 2.231 2.231 0 0 0-.402-.768 2.152 2.152 0 0 0-.689-.553c-.276-.145-.62-.217-1.03-.217-.396 0-.736.069-1.02.205a2.104 2.104 0 0 0-.712.54 2.428 2.428 0 0 0-.439.782 5.164 5.164 0 0 0-.225.901h4.671zm6.083-7.911l3.534-.863v3.44h2.996l-.625 2.98h-2.371v4.734c0 .753.13 1.354.391 1.803.261.449.371.673 1.161.673.38 0 .771-.036 1.174-.108a6.02 6.02 0 0 0 1.103-.3l.498 2.788a9.89 9.89 0 0 1-1.423.456c-.523.129-1.162.193-1.921.193-.964 0-1.346-.133-1.978-.397-.634-.264-1.14-.633-1.519-1.105-.38-.473-.644-1.046-.794-1.719a10.28 10.28 0 0 1-.226-2.236v-4.781h-1.282V8.37h1.282V5.717v.001zm21.776 15.454h-3.534l.022-12.019 3.533-.858-.021 12.878zm.352-16.245c0 .657-.209 1.174-.627 1.551-.42.377-.913.564-1.483.564-.57 0-1.063-.188-1.481-.565-.42-.376-.63-.893-.63-1.55s.21-1.174.629-1.55c.42-.377.913-.566 1.481-.566.57 0 1.064.189 1.484.566.418.376.627.893.627 1.55zm1.831 9.977c0-.915.146-1.775.439-2.585a6.191 6.191 0 0 1 1.269-2.116 6.055 6.055 0 0 1 2.015-1.43c.791-.352 1.692-.478 2.704-.478.664 0 1.272.01 1.826.13.554.12 1.09.292 1.612.517l-.735 2.86a8.726 8.726 0 0 0-1.09-.336c-.436-.1-.881-.15-1.328-.145-1.044 0-1.823.33-2.336.986-.514.657-.771 1.523-.771 2.597 0 1.137.241 2.019.724 2.643.482.626 1.324.938 2.525.938.427 0 .886-.04 1.375-.12a5.786 5.786 0 0 0 1.352-.385l.498 2.933c-.41.176-.925.329-1.541.456a10.01 10.01 0 0 1-2.04.193c-1.138 0-2.118-.172-2.94-.517-.822-.344-1.499-.814-2.028-1.405a5.507 5.507 0 0 1-1.162-2.105 9.047 9.047 0 0 1-.368-2.631zm16.091 3.75c.648 0 1.106-.065 1.375-.193.27-.128.403-.377.403-.746 0-.288-.173-.54-.52-.756-.35-.216-.879-.46-1.59-.733a16.165 16.165 0 0 1-1.506-.65 4.426 4.426 0 0 1-1.15-.805 3.273 3.273 0 0 1-.736-1.118c-.173-.432-.26-.954-.26-1.562 0-1.186.435-2.123 1.304-2.812.87-.69 2.063-1.034 3.58-1.034.76 0 1.488.068 2.183.204.695.136 1.249.284 1.66.445l-.617 2.788c-.44-.152-.886-.28-1.34-.385a7.187 7.187 0 0 0-1.624-.168c-1.106 0-1.66.313-1.66.938 0 .144.024.272.072.385.047.111.142.22.284.324.142.104.336.217.58.337.245.12.558.252.937.396.775.288 1.415.573 1.921.853.505.28.905.586 1.197.914.293.328.499.693.617 1.094.12.4.178.865.178 1.394 0 1.25-.462 2.195-1.387 2.837-.925.64-2.233.961-3.925.961-1.106 0-2.027-.096-2.763-.289-.734-.192-1.245-.352-1.53-.48l.593-2.909c.602.24 1.218.429 1.85.565a8.88 8.88 0 0 0 1.874.204z"/>
    </g>
</svg>
