<svg xmlns="http://www.w3.org/2000/svg" width="132" height="30" viewBox="0 0 132 30">
    <g fill="#34313F" fill-rule="evenodd">
        <path fill-rule="nonzero" d="M36.252 14.45c2.003 0 3.348.908 4.171 2.036V.413c0-.303-.356-.496-.603-.303L20.033 14.615h.522c2.058 0 3.1 1.32 3.1 2.752 0 1.128-.576 1.954-1.371 2.312a.163.163 0 0 0 0 .303c.905.385 1.564 1.348 1.564 2.504 0 1.652-1.07 2.945-3.129 2.945h-5.625a.217.217 0 0 1-.22-.22v-6.826L.137 29.202c-.247.22-.137.605.192.605h39.738c.192 0 .329-.137.329-.33V24c-1.07.99-2.47 1.624-4.171 1.624-3.184 0-5.763-2.202-5.763-5.587.027-3.413 2.634-5.587 5.79-5.587zm-7.876 10.789c0 .11-.082.192-.192.192H26.29a.188.188 0 0 1-.192-.192V14.807c0-.11.082-.192.192-.192h1.894c.11 0 .192.082.192.192V25.24z"/>
        <path d="M17.399 18.908h2.662c.768 0 1.262-.44 1.262-1.128 0-.66-.494-1.129-1.262-1.129h-2.772c-.055 0-.11.055-.11.11v1.955c0 .11.11.192.22.192zM17.399 23.422h2.771c.851 0 1.373-.468 1.373-1.239 0-.688-.494-1.238-1.373-1.238H17.4c-.11 0-.22.083-.22.22v2.037c0 .11.11.22.22.22zM38.694 17.725c-.521-.688-1.4-1.239-2.442-1.239-1.976 0-3.403 1.514-3.403 3.55 0 2.037 1.427 3.551 3.403 3.551.906 0 1.756-.385 2.223-.77a.21.21 0 0 0 .055-.138v-1.046c0-.083-.083-.165-.165-.165h-2.442a.217.217 0 0 1-.22-.22v-1.542c0-.137.11-.22.22-.22h4.528v-2.45l-1.455.799a.304.304 0 0 1-.302-.11zM42.125 20.037c0-3.33 2.387-5.587 5.46-5.587 2.004 0 3.294 1.018 4.062 2.256.055.083.028.22-.082.248l-1.235.66c-.082.056-.192.028-.22-.054-.52-.826-1.481-1.432-2.524-1.432-2.058 0-3.595 1.624-3.595 3.909 0 2.257 1.537 3.908 3.595 3.908 1.043 0 2.003-.606 2.525-1.431.054-.083.137-.11.22-.055l1.234.633c.11.055.137.165.082.275-.795 1.239-2.085 2.284-4.061 2.284-3.074-.027-5.461-2.312-5.461-5.614z"/>
        <path fill-rule="nonzero" d="M52.718 20.037c0-2.698 1.536-4.79 3.842-5.395 3.924-1.046 7.519 2.642 6.668 6.743-.521 2.532-2.524 4.266-5.186 4.266-3.129-.027-5.324-2.394-5.324-5.614zm8.754 0c0-2.23-1.372-3.909-3.458-3.909-2.113 0-3.458 1.68-3.458 3.909 0 2.23 1.345 3.908 3.458 3.908 2.113 0 3.458-1.706 3.458-3.908z"/>
        <path d="M74.535 25.294v-8.23l-3.266 8.285c0 .027-.055.055-.082.055H70.5c-.028 0-.083-.028-.083-.055l-3.293-8.285v8.23c0 .082-.055.137-.137.137H65.34c-.082 0-.137-.055-.137-.137v-10.57c0-.082.055-.137.137-.137h2.36c.11 0 .193.055.247.165l2.882 7.431 2.854-7.43c.027-.11.137-.166.247-.166h2.36c.082 0 .137.055.137.138v10.569c0 .082-.055.137-.137.137h-1.647c-.027 0-.11-.055-.11-.137zM93.196 25.239V14.807c0-.11.082-.192.192-.192h6.998c.11 0 .192.082.192.192v1.266c0 .11-.082.193-.192.193H95.28a.188.188 0 0 0-.192.193v2.394c0 .11.083.193.192.193h4.995c.11 0 .192.082.192.193v1.266c0 .11-.082.192-.192.192h-4.995a.188.188 0 0 0-.192.193v2.615c0 .11.083.192.192.192h5.105c.11 0 .192.083.192.193v1.266c0 .11-.082.193-.192.193h-6.998c-.11.082-.192 0-.192-.11z"/>
        <path fill-rule="nonzero" d="M109.36 25.321l-2.278-3.853c-.028-.055-.11-.083-.165-.083h-1.591a.188.188 0 0 0-.193.193v3.66c0 .11-.082.193-.192.193h-1.482a.188.188 0 0 1-.192-.192V14.807c0-.11.083-.192.192-.192h4.556c2.14 0 3.54 1.376 3.54 3.385 0 1.789-1.098 2.807-2.305 3.11-.137.028-.192.165-.137.303.439.715 1.81 2.917 2.332 3.715.083.138 0 .303-.164.303h-1.73c-.082 0-.136-.027-.191-.11zm.247-7.349c0-1.045-.769-1.706-1.839-1.706h-2.415a.188.188 0 0 0-.192.193v3.055c0 .11.082.192.192.192h2.415c1.07 0 1.839-.66 1.839-1.734z"/>
        <path d="M124.343 25.239V14.807c0-.11.083-.192.193-.192h7.025c.11 0 .192.082.192.192v1.294c0 .11-.082.193-.192.193h-5.132a.188.188 0 0 0-.192.192v2.422c0 .11.082.193.192.193h4.995c.11 0 .192.082.192.193v1.293c0 .11-.083.193-.192.193h-4.995a.188.188 0 0 0-.192.192v2.643c0 .11.082.192.192.192h5.132c.11 0 .192.083.192.193v1.294c0 .11-.082.192-.192.192h-7.025c-.11-.055-.193-.137-.193-.247zM112.927 19.982c0-3.33 2.388-5.588 5.461-5.588 2.004 0 3.293 1.019 4.062 2.257.055.083.027.22-.082.248l-1.235.66c-.083.056-.192.028-.22-.054-.521-.826-1.482-1.432-2.525-1.432-2.058 0-3.595 1.624-3.595 3.909 0 2.257 1.537 3.908 3.595 3.908 1.043 0 2.004-.606 2.525-1.431.055-.083.137-.11.22-.055l1.235.633c.11.055.137.165.082.275-.796 1.238-2.086 2.284-4.062 2.284-3.073-.027-5.46-2.284-5.46-5.614zM88.53 25.294v-8.23l-3.265 8.285c0 .027-.055.055-.082.055h-.687c-.027 0-.082-.028-.082-.055l-3.293-8.285v8.23c0 .082-.055.137-.137.137h-1.647c-.082 0-.137-.055-.137-.137v-10.57c0-.082.055-.137.137-.137h2.36c.11 0 .192.055.247.165l2.882 7.431 2.854-7.43c.027-.11.137-.166.247-.166h2.36c.082 0 .137.055.137.138v10.569c0 .082-.055.137-.137.137H88.64c-.055 0-.11-.055-.11-.137z"/>
    </g>
</svg>
