<svg xmlns="http://www.w3.org/2000/svg" width="140" height="26" viewBox="0 0 140 26">
    <g fill="#000" fill-rule="evenodd">
        <path d="M130.734 4.6v7.7c0 1.2-.302 2.2-.907 2.7-.604.6-1.41 1-2.417 1-.906 0-1.611-.3-2.216-.9-.604-.6-.906-1.4-.906-2.3V4.6h-3.123v8.2c0 1.8.504 3.5 1.612 4.6 1.007 1.1 2.417 1.6 4.13 1.6.503 0 1.007-.1 1.41-.2.503-.1.906-.3 1.208-.5.302-.1.705-.3.907-.5.1-.1.201-.1.302-.3l.1-.1v1.2h3.123V4.4l-3.223.2zM9.77 16c-3.425 0-6.144-2.7-6.144-6.1 0-3.4 2.72-6.1 6.144-6.1 2.014 0 3.928 1 5.036 2.6l2.72-1.6C15.913 2.3 12.992.7 9.77.7 4.633.7.403 4.9.403 10c0 5.1 4.23 9.3 9.367 9.3 3.223 0 6.043-1.6 7.755-4.1l-2.72-1.6C13.598 15 11.786 16 9.77 16zM136.072.7h3.122v18.1h-3.122zM83.496.8L78.36 9.5 73.223.8 69.194.7v18.2h3.123V5.4l4.935 8.3h2.216l5.036-8.3v13.5h3.122V.8zM62.849 7.8h4.23V4.7h-4.23V.8h-3.122V13.6c0 3.1 1.41 5.4 5.338 5.4h2.014v-3.2h-1.813c-2.216 0-2.518-1.1-2.518-2.2v-.5l.1-5.3z"/>
        <path fill-rule="nonzero" d="M47.741 11.9V4.6h-3.122v1.3C43.41 5 42 4.6 40.489 4.6c-4.029 0-7.352 3.3-7.352 7.3s3.323 7.3 7.352 7.3c1.612 0 2.921-.5 4.13-1.3v1h3.122v-6.7-.3zM40.388 16c-2.215 0-4.129-1.8-4.129-4.1s1.813-4.1 4.13-4.1c2.215 0 4.129 1.8 4.129 4.1s-1.813 4.1-4.13 4.1z"/>
        <path d="M57.41 4.6c-.604 0-2.619.1-4.33 1.2V4.6h-3.123v14.3h3.122v-7.8c0-.9.202-1.6.604-2 1.008-1.2 3.123-1.4 3.324-1.4.1 0 .302-.1.504-.1h.806V4.5h-.504c-.1.1-.403.1-.403.1z"/>
        <path fill-rule="nonzero" d="M96.288 19.2c-4.029 0-7.353-3.3-7.353-7.3s3.324-7.3 7.353-7.3 7.352 3.3 7.352 7.3c-.1 4-3.323 7.3-7.352 7.3zm0-11.4c-2.216 0-4.13 1.8-4.13 4.1s1.813 4.1 4.13 4.1c2.316 0 4.13-1.8 4.13-4.1 0-2.2-1.814-4.1-4.13-4.1zM115.928 4.6v1.2c-1.209-.8-2.619-1.2-4.13-1.2-4.028 0-7.352 3.3-7.352 7.3s3.324 7.3 7.353 7.3c1.51 0 2.92-.5 4.13-1.2v.3c0 .2-.102.3-.102.3-.1 1-.705 2-1.208 2.7-.806.8-1.813 1.1-2.921 1.1h-.1c-1.612-.1-3.022-.8-3.929-2l-2.216 2.2c1.209 1.8 3.626 2.9 6.245 2.9 2.014 0 3.726-.7 5.237-2.2 1.31-1.4 2.015-3 2.015-5v-.5V4.6h-3.022zm-4.13 11.4c-2.215 0-4.129-1.8-4.129-4.1s1.813-4.1 4.13-4.1c2.316 0 4.13 1.8 4.13 4.1s-1.915 4.1-4.13 4.1z"/>
        <path d="M24.878 7.8H25.583 24.878zM31.525 10.7c0-3.7-2.619-6.1-6.144-6.1-1.208 0-2.518.4-3.525 1v-5h-3.021v18.2h3.122v-7-.3c0-1.2.302-2.1.906-2.7.504-.6 1.209-.9 2.015-1h.604c.906.1 1.51.4 2.014 1 .504.7.907 1.5.907 2.6V19h3.122v-8.3z"/>
    </g>
</svg>
