<svg xmlns="http://www.w3.org/2000/svg" width="121" height="30" viewBox="0 0 121 30">
    <g fill="none" fill-rule="evenodd">
        <path fill="#47C486" d="M13.516 14.576a1.198 1.198 0 0 0 1.201-1.196V.708c0-.508-.61-.875-1.06-.63L1.06 6.933A2.007 2.007 0 0 0 0 8.711v5.906c0 .536.582.056 1.041-.207l6.238-4.025a.697.697 0 0 1 1.04.602v2.388c0 .663.536 1.2 1.197 1.201h4z"/>
        <path fill="#2196F3" d="M1.21 15.388a1.198 1.198 0 0 0-1.2 1.196V29.247c0 .508.61.875 1.06.63l12.596-6.855a2.054 2.054 0 0 0 1.06-1.778V16.89c-.009-1.533-.656-1.317-1.125-1.044L7.448 19.58a.697.697 0 0 1-1.042-.602v-2.389a1.198 1.198 0 0 0-1.193-1.204H1.21v.003z"/>
        <path fill="#37474F" d="M29.209 19.197a.271.271 0 0 0-.394.01l-.019.018a3.264 3.264 0 0 1-1.895 1.12h-.018c-.23.037-.462.056-.694.056h-.057a1.972 1.972 0 0 1-.234-.01c-1.05-.047-1.904-.442-2.58-1.185a1.199 1.199 0 0 1-.103-.122c-.628-.752-.947-1.655-.966-2.737v-.266a4.113 4.113 0 0 1 .947-2.332c.038-.038.066-.085.104-.122.666-.743 1.528-1.138 2.579-1.185.075 0 .16-.01.234-.01h.057c.232 0 .464.02.694.057h.019a3.265 3.265 0 0 1 1.894 1.119l.057.075a.28.28 0 0 0 .394.038l.009-.01.113-.113.29-.282 1.2-1.157.01-.009a.283.283 0 0 0 .01-.395l-.038-.038a6.092 6.092 0 0 0-.431-.423l-.01-.01a6.23 6.23 0 0 0-.684-.516l-.057-.038a6.54 6.54 0 0 0-2.223-.931 8.9 8.9 0 0 0-1.5-.132 7.373 7.373 0 0 0-2.458.565 7.26 7.26 0 0 0-2.017 1.307c-1.37 1.26-2.054 2.893-2.054 4.9 0 2.006.657 3.63 1.97 4.87.272.254.56.49.863.706a6.464 6.464 0 0 0 2.204.978h.01a7.28 7.28 0 0 0 1.622.18c.132 0 .263 0 .385-.01a.615.615 0 0 0 .131-.01l.085-.01.075-.009.13-.009.085-.01h.028l.057-.009.084-.01.075-.009.094-.01h.066l.037-.008h.056a6.7 6.7 0 0 0 2.223-.932l.057-.037c.238-.159.467-.332.684-.517l.01-.01c.15-.131.29-.272.431-.423a.237.237 0 0 0-.01-.33l-.008-.009-1.623-1.614zM37.322 15.924v6.969a.282.282 0 0 1-.281.282H34.79a.282.282 0 0 1-.282-.282V5.382c0-.156.126-.282.282-.282h2.251c.155 0 .281.126.281.282v6.028c1.332-1.561 2.674-1.75 3.593-1.75 1.51 0 2.87.311 3.94 1.233.994.855 1.96 2.332 1.96 4.081v7.928a.282.282 0 0 1-.282.282h-2.25a.282.282 0 0 1-.282-.282V15.83c0-2.464-1.295-3.395-3.34-3.395-.975 0-1.716.254-2.41.922-.657.63-.929 1.326-.929 2.567M73.594 12.143a.282.282 0 0 1-.281.283c-1.323.028-2.326.48-3.011 1.354-.704.912-1.05 2.125-1.05 3.649v5.454a.282.282 0 0 1-.282.282h-2.251a.282.282 0 0 1-.282-.282V9.943c0-.156.126-.282.282-.282h2.251c.155 0 .281.126.281.282v1.467c1.06-1.477 3.02-1.702 4.034-1.74a.271.271 0 0 1 .29.273v.01c.01.526.02 1.654.02 2.19M94.483 23.175h-2.251a.282.282 0 0 1-.281-.282V9.943a.29.29 0 0 1 .272-.292h2.26c.156 0 .282.127.282.282v12.95a.282.282 0 0 1-.272.292h-.01M120.634 9.66c.156 0 .282.127.282.283v12.216c-.01.254-.02.508-.038.752-.01.057-.01.104-.019.16a9.396 9.396 0 0 1-.103.743.47.47 0 0 0-.019.113c-.008.06-.02.12-.037.179l-.01.047a.982.982 0 0 1-.037.16 6.655 6.655 0 0 1-1.135 2.501l-.103.132a2.589 2.589 0 0 1-.206.244l-.02.02a1.118 1.118 0 0 0-.102.112c-.036.04-.073.078-.113.113-.038.038-.084.075-.122.113-.037.037-.084.075-.122.113a1.186 1.186 0 0 1-.122.103c-.037.028-.084.075-.122.104-.084.065-.169.131-.262.197l-.132.094-.094.066c-.3.194-.617.36-.947.498l-.112.047c-.113.047-.226.085-.338.123l-.14.047-.057.019-.056.018-.104.029c-.065.018-.122.028-.187.047l-.047.009c-.066.01-.122.028-.178.038a1.631 1.631 0 0 0-.188.037l-.084.01-.16.018c-.056.01-.112.01-.169.02l-.093.009-.113.009c-.075.01-.16.01-.234.019h-.45c-1.483 0-2.787-.367-3.912-1.091a2.005 2.005 0 0 1-.178-.122.516.516 0 0 1-.085-.066.388.388 0 0 0-.075-.057c-.028-.018-.047-.037-.075-.056l-.01-.01a1.08 1.08 0 0 1-.159-.131c-.047-.047-.103-.085-.15-.132-.028-.028-.056-.047-.084-.075-.028-.028-.075-.066-.113-.103l-.169-.17a1.439 1.439 0 0 1-.159-.178c-.047-.066-.094-.113-.14-.17a5.493 5.493 0 0 1-.16-.207c-.056-.075-.094-.131-.14-.197a2.427 2.427 0 0 1-.132-.198c-.038-.065-.085-.14-.122-.206a2.515 2.515 0 0 0-.122-.217 1.418 1.418 0 0 1-.103-.207c0-.009 0-.009-.01-.009a2.374 2.374 0 0 1-.103-.226 2.59 2.59 0 0 0-.103-.235.151.151 0 0 1 .019-.14c0-.01.01-.01.01-.02l.018-.019c.01-.009.028-.018.038-.028l2.204-.968a.13.13 0 0 1 .131.009l.019.019c.01.01.019.019.019.028 0 .01.009.019.018.028.02.057.047.104.066.16.019.057.047.104.066.15.018.046.04.09.065.132l.019.038c.019.047.047.084.066.132.056.094.103.188.16.272.027.038.046.075.074.113.058.09.124.176.197.254.028.038.066.075.094.113.03.039.064.074.103.103.065.073.137.14.216.198l.112.094.113.084.113.085c.047.036.097.067.15.094.033.021.067.04.103.057.037.018.084.047.131.065.047.02.085.047.131.066a.963.963 0 0 0 .113.047l.066.028c.134.054.272.098.412.132l.113.028c.21.05.423.084.638.104.056 0 .112.01.169.01.056 0 .112.009.168.009h.17c2.429 0 3.676-1.552 3.742-4.656v-.592c-1.426 2.417-4.934 1.683-5.225 1.646a6.671 6.671 0 0 1-5.206-5.831c0-.028-.009-.066-.009-.094a8.458 8.458 0 0 1-.028-.696V9.924c0-.156.126-.282.281-.282h2.251c.156 0 .282.126.282.282v5.812a9.671 9.671 0 0 0 .037 1.298c.122.787.456 1.525.967 2.135.684.818 1.603 1.232 2.757 1.232.079.001.157-.002.235-.01 1.05-.047 1.904-.442 2.58-1.185a1.2 1.2 0 0 0 .102-.122c.629-.743.948-1.655.966-2.737V9.924c0-.156.126-.282.282-.282l2.28.019zM101.443 9.68v1.72h3.236c.156 0 .281.127.281.283v1.702a.282.282 0 0 1-.28.282h-3.237v9.226a.282.282 0 0 1-.281.282H98.91a.282.282 0 0 1-.28-.282V9.755c0-1.44.45-2.568 1.34-3.386.891-.818 1.923-1.241 3.311-1.27h2.28a.282.282 0 0 1 .244.424l-1.21 2.106a.281.281 0 0 1-.244.141h-.826c-1.388 0-2.082.64-2.082 1.91M81.389 20.438c-.23 0-.459-.018-.685-.056h-.019a3.264 3.264 0 0 1-1.894-1.12c-.685-.799-1.023-1.749-1.023-2.849a4.281 4.281 0 0 1 .995-2.793 3.287 3.287 0 0 1 2.654-1.185h.29a3.63 3.63 0 0 1 2.683 1.354c.552.659.883 1.475.948 2.333v.272c-.019 1.082-.347 1.994-.966 2.737-.038.038-.066.085-.103.122-.666.743-1.53 1.138-2.58 1.185h-.3zm3.94-10.495v1.467c-1.445-2.37-4.916-1.646-5.197-1.608a6.68 6.68 0 0 0-2.223.921l-.056.038a7.267 7.267 0 0 0-.685.517l-.019.01a6.34 6.34 0 0 0-2.026 3.677c-.094.499-.14 1.006-.14 1.514 0 1.843.572 3.395 1.707 4.636.14.15.28.292.431.423l.019.01c.216.188.445.36.685.517l.056.038c.677.447 1.43.765 2.223.937.29.038 3.79.771 5.224-1.645v.592A7.766 7.766 0 0 1 85 24.159l-.056.17v.01c-.544 1.532-1.66 2.294-3.367 2.294h-.17a1.005 1.005 0 0 1-.168-.01 1.012 1.012 0 0 0-.169-.009 4.749 4.749 0 0 1-.638-.103l-.112-.029a5.298 5.298 0 0 1-.413-.131l-.066-.029c-.037-.018-.075-.028-.112-.047-.038-.018-.085-.037-.132-.065a.848.848 0 0 0-.13-.066 1.037 1.037 0 0 1-.104-.057c-.047-.028-.094-.056-.15-.094-.056-.037-.075-.056-.113-.084l-.112-.085a.986.986 0 0 1-.113-.094c-.075-.066-.14-.132-.216-.197-.028-.038-.065-.066-.093-.104a1.008 1.008 0 0 1-.094-.113l-.197-.254c-.028-.037-.047-.075-.075-.113a2.595 2.595 0 0 1-.16-.272c-.018-.047-.047-.085-.065-.132l-.02-.038c-.018-.047-.046-.084-.065-.131-.018-.047-.047-.104-.065-.15-.02-.048-.047-.104-.066-.16 0-.01-.01-.02-.019-.029-.01-.01-.01-.019-.019-.028l-.018-.019a.128.128 0 0 0-.141-.01l-2.157.941-.02.01-.037.018a.129.129 0 0 0-.037.029c-.01 0-.01.009-.019.018-.01.01-.01.01-.01.02a.184.184 0 0 0-.018.14c.029.081.063.16.103.235.038.076.066.15.103.226l.01.01c.037.075.075.14.103.206.035.075.076.148.122.217.037.075.084.14.122.207.038.069.082.135.131.197.047.057.094.132.14.198.048.065.104.14.16.207.056.065.094.112.14.169.048.056.104.122.16.178l.17.17c.034.037.072.071.112.103.037.028.056.057.084.075.047.047.103.085.15.132s.103.085.16.132l.01.01c.022.02.047.039.074.056.023.02.048.04.075.056a.82.82 0 0 0 .094.066c.056.037.112.084.178.122 1.126.724 2.43 1.091 3.912 1.091h.45c.078-.002.157-.008.234-.019l.113-.01.094-.009c.056-.009.112-.009.168-.018l.16-.02.094-.009.187-.037c.066-.01.122-.028.188-.038l.047-.01c.065-.018.122-.027.187-.046l.104-.028.046-.02.057-.018.14-.047c.113-.038.226-.075.338-.122l.113-.047c.33-.138.647-.305.947-.499l.094-.066a.666.666 0 0 0 .131-.094c.085-.066.178-.131.263-.197.042-.032.083-.067.122-.104.038-.037.079-.071.122-.103l.122-.113c.037-.038.084-.075.121-.113l.113-.113a1.13 1.13 0 0 0 .103-.113c0-.009.01-.009.019-.018.074-.078.143-.16.206-.245l.104-.132a6.511 6.511 0 0 0 1.134-2.501c.01-.057.029-.104.038-.16 0-.019.01-.028.01-.047v-.019l.028-.16a.469.469 0 0 0 .018-.113c.017-.077.03-.156.038-.235.028-.169.047-.329.065-.507.01-.057.01-.104.02-.16.018-.245.037-.49.046-.753V9.943a.282.282 0 0 0-.281-.282H85.6a.294.294 0 0 0-.272.282zM92.232 5.1h2.251c.156 0 .282.126.282.282v2.257a.282.282 0 0 1-.282.282h-2.251a.282.282 0 0 1-.281-.282V5.382a.29.29 0 0 1 .281-.282M59.994 16.241v.103c-.02 1.082-.348 1.985-.967 2.737-.037.038-.065.085-.103.122-.666.743-1.491 1.176-2.532 1.223h-.366a3.819 3.819 0 0 1-.657-.094h-.028a3.265 3.265 0 0 1-1.895-1.12c-.675-.799-1.013-1.748-1.013-2.858a4.103 4.103 0 0 1 1.042-2.746 3.264 3.264 0 0 1 1.894-1.12h.019c.226-.037.455-.056.685-.056h.056c.078-.001.157.002.235.01 1.05.047 1.904.442 2.579 1.185.037.038.072.079.103.122.552.659.883 1.474.948 2.332v.16zm2.842-6.273a.315.315 0 0 0-.282-.31h-2.28a.282.282 0 0 0-.28.282v1.467c-1.445-2.37-4.916-1.646-5.197-1.608-.79.17-1.544.482-2.223.922l-.056.037a7.251 7.251 0 0 0-.685.517l-.019.01a6.34 6.34 0 0 0-2.026 3.677 8.2 8.2 0 0 0-.14 1.514c0 1.843.572 3.395 1.707 4.636.14.15.281.292.431.424l.019.009c.216.188.445.36.685.517l.056.038c.68.443 1.432.761 2.223.94.29.038 3.79.772 5.225-1.645l-.01 1.504c0 .156.126.282.282.282h2.279a.282.282 0 0 0 .281-.282v-6.376l.01-6.555z"/>
    </g>
</svg>
