<svg xmlns="http://www.w3.org/2000/svg" width="20" height="20" viewBox="0 0 20 20">
    <g fill="none" fill-rule="evenodd" opacity=".5">
        <g>
            <g>
                <g>
                    <g>
                        <g>
                            <path d="M0 0L20 0 20 20 0 20z" transform="translate(-635 -4221) translate(0 4090) translate(184 100) translate(146 31) translate(305)"/>
                            <path fill="#FFF" d="M13 3c1.657 0 3 1.343 3 3s-1.343 3-3 3h-2v4h4.791c.322 0 .631.129.858.358.194.196.315.452.344.725l.006.164-.01.113-.03.187-.027.118-.037.131-.076.22-.067.16-.082.167-.047.087-.107.177c-.038.06-.08.12-.125.182l-.145.184-.08.093-.179.186C15.071 17.147 13.325 18 10 18s-5.07-.853-5.987-1.748l-.178-.186-.08-.093-.146-.184c-.045-.061-.087-.122-.125-.182l-.107-.177-.047-.087-.082-.167-.067-.16-.076-.22-.051-.192-.031-.16-.02-.15L3 14.22c-.005-.666.528-1.21 1.192-1.22H9V9H7C5.343 9 4 7.657 4 6s1.343-3 3-3h6zM8.25 5.5c-.414 0-.75.336-.75.75s.336.75.75.75.75-.336.75-.75-.336-.75-.75-.75zm3.5 0c-.414 0-.75.336-.75.75s.336.75.75.75.75-.336.75-.75-.336-.75-.75-.75z" transform="translate(-635 -4221) translate(0 4090) translate(184 100) translate(146 31) translate(305)"/>
                        </g>
                    </g>
                </g>
            </g>
        </g>
    </g>
</svg>
