<?xml version="1.0" encoding="UTF-8"?>
<svg width="26px" height="23px" viewBox="0 0 26 23" version="1.1" xmlns="http://www.w3.org/2000/svg" xmlns:xlink="http://www.w3.org/1999/xlink">
    <!-- Generator: Sketch 49.1 (51147) - http://www.bohemiancoding.com/sketch -->
    <title>discuss-issue</title>
    <desc>Created with Sketch.</desc>
    <defs></defs>
    <g id="Page-1" stroke="none" stroke-width="1" fill="none" fill-rule="evenodd">
        <g id="HF-Homepage" transform="translate(-338.000000, -4101.000000)">
            <g id="Group-16" transform="translate(306.000000, 3624.000000)">
                <g id="Group-15" transform="translate(0.000000, 408.000000)">
                    <g id="Group-27" transform="translate(30.000000, 65.000000)">
                        <g id="discuss-issue" transform="translate(2.000000, 4.000000)">
                            <path d="M26,3.01744713 L26,10.0564894 C26,11.7231208 24.6225014,13.0755347 22.9045675,13.0755347 L14.5446722,13.0755347 C14.3812231,13.0755347 14.2466391,13.0746314 14.1340441,13.0723384 C14.0160771,13.0699758 13.8832837,13.0690725 13.8314986,13.0746314 C13.7775647,13.1093746 13.6453444,13.2268761 13.5179229,13.3407644 C13.467427,13.385861 13.41027,13.4354743 13.3486006,13.4900906 L10.9833884,15.5814924 C10.7947273,15.7484683 10.5156033,15.7916888 10.2819614,15.6917674 C10.0483196,15.5917764 9.88429752,15.3673353 9.88429752,15.1196163 L9.88429752,8.48943202 L3.13146006,8.48943202 C2.12426446,8.48943202 1.2892562,9.29012387 1.2892562,10.2671027 L1.2892562,17.306145 C1.2892562,18.2831934 2.12433609,19.0513656 3.13146006,19.0513656 L12.4695427,19.0513656 C12.6303416,19.0513656 12.7807548,19.123006 12.8995096,19.2282085 L14.8264463,20.9517492 L14.8264463,15.0079517 C14.8264463,14.6625347 15.1150248,14.382574 15.4710744,14.382574 C15.827124,14.382574 16.1157025,14.6625347 16.1157025,15.0079517 L16.1157025,22.3692024 C16.1157025,22.6169215 15.9695868,22.8380272 15.7358733,22.9380181 C15.6522865,22.9738036 15.5683416,22.9879094 15.4804573,22.9879094 C15.322595,22.9879094 15.1668815,22.9250242 15.0457631,22.8177372 L12.2196419,20.3020514 L3.13146006,20.3020514 C1.41345455,20.3020514 0,18.9727764 0,17.3060755 L0,10.2671027 C0,8.6004713 1.41345455,7.23867674 3.13146006,7.23867674 L9.88429752,7.23867674 L9.88429752,3.01744713 C9.88429752,1.35074622 11.3085675,0.0120906344 13.026573,0.0120906344 L22.9046391,0.0120906344 C24.6225014,0.0120906344 26,1.35074622 26,3.01744713 Z M24.7107438,3.01744713 C24.7107438,2.04039879 23.9116198,1.26284592 22.9045675,1.26284592 L13.026573,1.26284592 C12.019449,1.26284592 11.1735537,2.04039879 11.1735537,3.01744713 L11.1735537,7.86989124 L11.1735537,13.7021631 L12.4696143,12.565852 C12.5296364,12.5126949 12.5968926,12.4640544 12.6459559,12.420139 C13.2377961,11.8910695 13.3892121,11.8065045 14.1611901,11.8219305 C14.2664793,11.8240846 14.3918953,11.8248489 14.5446722,11.8248489 L22.9045675,11.8248489 C23.9116198,11.8248489 24.7107438,11.0335378 24.7107438,10.0565589 L24.7107438,3.01744713 Z" id="Shape" fill="#429FFD" fill-rule="nonzero"></path>
                            <path d="M19.8925069,5.4284864 C19.8925069,6.1926284 19.3190744,6.65735347 18.9003526,6.99839275 C18.7417741,7.12756798 18.4466061,7.36326586 18.4473939,7.45130514 C18.450259,7.79665257 18.1640441,8.07244411 17.8079945,8.07244411 C17.8062039,8.07244411 17.8044132,8.07244411 17.8026226,8.07244411 C17.4490799,8.07244411 17.1610028,7.80512991 17.1581377,7.46151964 C17.1524793,6.78423565 17.6619504,6.3786435 18.0713609,6.04517825 C18.3926006,5.78349245 18.6032507,5.59935347 18.6032507,5.43084894 C18.6032507,5.08974018 18.3171791,4.81221148 17.9655702,4.81221148 C17.6138182,4.81221148 17.3276749,5.08974018 17.3276749,5.43084894 C17.3276749,5.77626586 17.0390964,6.05622659 16.6830468,6.05622659 C16.3269972,6.05622659 16.0384187,5.77626586 16.0384187,5.43084894 C16.0384187,4.40008761 16.902865,3.56145619 17.965427,3.56145619 C19.0280606,3.56138671 19.8925069,4.39765559 19.8925069,5.4284864 Z" id="Path" fill="#323643"></path>
                            <path d="M17.8204573,8.64973716 C17.4644077,8.64973716 17.1900826,8.92969789 17.1900826,9.2751148 L17.1900826,9.27990937 C17.1900826,9.62532628 17.4644793,9.90292447 17.8204573,9.90292447 C18.1764353,9.90292447 18.4650854,9.62053172 18.4650854,9.2751148 C18.4650854,8.92969789 18.1765069,8.64973716 17.8204573,8.64973716 Z" id="Path" fill="#323643"></path>
                            <path d="M4.82697521,13.0060483 C4.47092562,13.0060483 4.18234711,13.2860091 4.18234711,13.631426 C4.18234711,13.9768429 4.47092562,14.2568036 4.82697521,14.2568036 L4.88069421,14.2568036 C5.2367438,14.2568036 5.52532231,13.9768429 5.52532231,13.631426 C5.52532231,13.2860091 5.2367438,13.0060483 4.88069421,13.0060483 L4.82697521,13.0060483 Z" id="Path" fill="#323643"></path>
                            <path d="M7.06734435,13.0060483 C6.71129477,13.0060483 6.42271625,13.2860091 6.42271625,13.631426 C6.42271625,13.9768429 6.71129477,14.2568036 7.06734435,14.2568036 L7.12099174,14.2568036 C7.47704132,14.2568036 7.76561983,13.9768429 7.76561983,13.631426 C7.76561983,13.2860091 7.47704132,13.0060483 7.12099174,13.0060483 L7.06734435,13.0060483 Z" id="Path" fill="#323643"></path>
                        </g>
                    </g>
                </g>
            </g>
        </g>
    </g>
</svg>