<?xml version="1.0" encoding="UTF-8"?>
<svg width="20px" height="20px" viewBox="0 0 20 20" version="1.1" xmlns="http://www.w3.org/2000/svg" xmlns:xlink="http://www.w3.org/1999/xlink">
    <!-- Generator: sketchtool 50.2 (55047) - http://www.bohemiancoding.com/sketch -->
    <title>B6222CFC-C035-45DD-8A98-5FE490ED8C4A@1x</title>
    <desc>Created with sketchtool.</desc>
    <defs></defs>
    <g id="v1" stroke="none" stroke-width="1" fill="none" fill-rule="evenodd" opacity="0.900000036">
        <g id="HF-Homepage" transform="translate(-890.000000, -7227.000000)" fill="#FFFFFF" fill-rule="nonzero">
            <g id="Group-42" transform="translate(0.000000, 6119.000000)">
                <g id="Group-41" transform="translate(246.000000, 1108.000000)">
                    <g id="Group-40" transform="translate(644.000000, 0.000000)">
                        <g id="facebook-logo-button">
                            <path d="M9.9304,0 C4.4548,0 0,4.4548 0,9.9304 C0,15.4056 4.4548,19.8608 9.9304,19.8608 C15.4056,19.8608 19.8608,15.4056 19.8608,9.9304 C19.8608,4.4548 15.4064,0 9.9304,0 Z M12.4,10.28 L10.7844,10.28 C10.7844,12.8612 10.7844,16.0384 10.7844,16.0384 L8.3904,16.0384 C8.3904,16.0384 8.3904,12.892 8.3904,10.28 L7.2524,10.28 L7.2524,8.2448 L8.3904,8.2448 L8.3904,6.9284 C8.3904,5.9856 8.8384,4.5124 10.8064,4.5124 L12.5804,4.5192 L12.5804,6.4948 C12.5804,6.4948 11.5024,6.4948 11.2928,6.4948 C11.0832,6.4948 10.7852,6.5996 10.7852,7.0492 L10.7852,8.2452 L12.6092,8.2452 L12.4,10.28 Z" id="Shape"></path>
                        </g>
                    </g>
                </g>
            </g>
        </g>
    </g>
</svg>