<?xml version="1.0" encoding="UTF-8"?>
<svg width="20px" height="40px" viewBox="0 0 20 40" version="1.1" xmlns="http://www.w3.org/2000/svg" xmlns:xlink="http://www.w3.org/1999/xlink">
    <!-- Generator: Sketch 49.1 (51147) - http://www.bohemiancoding.com/sketch -->
    <title>facebook</title>
    <desc>Created with Sketch.</desc>
    <defs></defs>
    <g id="Page-1" stroke="none" stroke-width="1" fill="none" fill-rule="evenodd">
        <g id="HF-Homepage" transform="translate(-1330.000000, -4892.000000)" fill="#385C8E" fill-rule="nonzero">
            <g id="Group-32" transform="translate(0.000000, 4543.000000)">
                <g id="Group-50" transform="translate(246.000000, 121.000000)">
                    <g id="Group-31" transform="translate(0.000000, 168.000000)">
                        <g id="Group-29" transform="translate(1014.000000, 0.000000)">
                            <g id="facebook" transform="translate(70.000000, 60.000000)">
                                <path d="M0.687769231,21.3039844 L5.00492308,21.3039844 L5.00492308,39.3548438 C5.00492308,39.71125 5.28923077,40 5.64015385,40 L12.9600769,40 C13.311,40 13.5953077,39.71125 13.5953077,39.3548438 L13.5953077,21.3890625 L18.5583077,21.3890625 C18.881,21.3890625 19.1525385,21.143125 19.1893846,20.8175781 L19.9431538,14.1721875 C19.9638462,13.989375 19.9068462,13.80625 19.7863846,13.6690625 C19.6658462,13.5317969 19.4933077,13.4532031 19.3122308,13.4532031 L13.5956154,13.4532031 L13.5956154,9.2875 C13.5956154,8.03179687 14.2613077,7.395 15.5745385,7.395 C15.7616923,7.395 19.3122308,7.395 19.3122308,7.395 C19.6631538,7.395 19.9474615,7.10609375 19.9474615,6.74984375 L19.9474615,0.649921875 C19.9474615,0.293515625 19.6631538,0.004765625 19.3122308,0.004765625 L14.1610769,0.004765625 C14.1247692,0.00296875 14.0440769,0 13.9251538,0 C13.0313846,0 9.92469231,0.178203125 7.47061538,2.47109375 C4.75153846,5.01203125 5.12953846,8.05429688 5.21984615,8.58179688 L5.21984615,13.4530469 L0.687692308,13.4530469 C0.336769231,13.4530469 0.0524615385,13.7417969 0.0524615385,14.0982031 L0.0524615385,20.65875 C0.0525384615,21.0150781 0.336846154,21.3039844 0.687769231,21.3039844 Z" id="Shape"></path>
                            </g>
                        </g>
                    </g>
                </g>
            </g>
        </g>
    </g>
</svg>