<?xml version="1.0" encoding="UTF-8"?>
<svg width="41px" height="40px" viewBox="0 0 41 40" version="1.1" xmlns="http://www.w3.org/2000/svg" xmlns:xlink="http://www.w3.org/1999/xlink">
    <!-- Generator: Sketch 49.1 (51147) - http://www.bohemiancoding.com/sketch -->
    <title>github-logo</title>
    <desc>Created with Sketch.</desc>
    <defs></defs>
    <g id="Page-1" stroke="none" stroke-width="1" fill="none" fill-rule="evenodd">
        <g id="HF-Homepage" transform="translate(-1067.000000, -5132.000000)" fill="#000000" fill-rule="nonzero">
            <g id="Group-32" transform="translate(0.000000, 4543.000000)">
                <g id="Group-50" transform="translate(246.000000, 121.000000)">
                    <g id="Group-31" transform="translate(0.000000, 168.000000)">
                        <g id="Group-29" transform="translate(761.000000, 240.000000)">
                            <g id="github-logo" transform="translate(60.000000, 60.000000)">
                                <path d="M38.2105057,10.2165967 C36.3792346,7.08410256 33.8952323,4.60410256 30.7578451,2.7760373 C27.6199909,0.947878788 24.1943895,0.034032634 20.4786128,0.034032634 C16.763303,0.034032634 13.3365809,0.948158508 10.1993804,2.7760373 C7.06171298,4.60400932 4.5778041,7.08410256 2.74653303,10.2165967 C0.915542141,13.3489977 0,16.7696037 0,20.4783217 C0,24.9333333 1.30191344,28.9393939 3.90639408,32.4975291 C6.51059453,36.0559441 9.87483599,38.5182284 13.9988383,39.884662 C14.4788838,39.9736131 14.8342483,39.911049 15.0653052,39.6985548 C15.2964556,39.4857809 15.4118907,39.2193007 15.4118907,38.9002331 C15.4118907,38.846993 15.4073144,38.3680186 15.3984419,37.4627506 C15.3892893,36.5574825 15.3849932,35.7677389 15.3849932,35.0938928 L14.7716743,35.1998135 C14.3806333,35.2713287 13.8873257,35.3016317 13.2917517,35.2930536 C12.6964579,35.2847552 12.0784692,35.2224709 11.4386264,35.1066667 C10.7985034,34.9918881 10.2031162,34.7256876 9.65199772,34.3086247 C9.10115945,33.8915618 8.71011845,33.345641 8.47896811,32.6717016 L8.21232802,32.0591142 C8.03459909,31.6512821 7.75479043,31.1982284 7.37252847,30.7016317 C6.99026651,30.2045688 6.60370843,29.8675991 6.21266743,29.6901632 L6.02597267,29.5567366 C5.90157175,29.4680653 5.78613667,29.3611189 5.67938724,29.2370163 C5.57273121,29.1129138 5.49287927,28.9887179 5.43955125,28.8643357 C5.38612984,28.7398601 5.43039863,28.6377622 5.5728246,28.557669 C5.71525057,28.4775758 5.97264465,28.4386946 6.34612756,28.4386946 L6.87922096,28.5182284 C7.23477221,28.5893706 7.67456492,28.8018648 8.19915945,29.1570163 C8.7234738,29.5118881 9.15448747,29.9732401 9.49229385,30.5408858 C9.90135991,31.2687179 10.3942005,31.82331 10.9722164,32.2049417 C11.5497654,32.5865734 12.1320774,32.7770629 12.7185923,32.7770629 C13.3051071,32.7770629 13.8116765,32.7326807 14.2384875,32.6443823 C14.6648314,32.5556177 15.0648383,32.4221911 15.4383212,32.2448485 C15.5983052,31.0552914 16.0338952,30.1414452 16.7447175,29.5026573 C15.7315786,29.3963636 14.8207062,29.2362704 14.0116333,29.0234033 C13.2030273,28.8102564 12.3674305,28.4643357 11.5054032,27.9847086 C10.6429089,27.5057343 9.92741686,26.9109557 9.35874032,26.2013986 C8.78997039,25.4914685 8.32318679,24.5594406 7.95904328,23.4061538 C7.59471298,22.2524009 7.41250114,20.9214918 7.41250114,19.4130536 C7.41250114,17.2652681 8.1148246,15.4375758 9.51919134,13.928951 C8.86132346,12.3142191 8.92343052,10.5040559 9.70569932,8.49864802 C10.2212346,8.33874126 10.9857585,8.45874126 11.9988975,8.8579021 C13.0122232,9.25724942 13.7541458,9.59934732 14.2254123,9.88298368 C14.6966788,10.1665268 15.0742711,10.4068065 15.3587494,10.6016783 C17.0122916,10.1404196 18.7186948,9.90974359 20.478426,9.90974359 C22.2381572,9.90974359 23.9449339,10.1404196 25.5985695,10.6016783 L26.6118018,9.96307692 C27.3046925,9.5369697 28.122918,9.14648019 29.0645171,8.79151515 C30.0066765,8.4367366 30.7271185,8.33902098 31.2250957,8.49892774 C32.0247358,10.5044289 32.0959954,12.3144988 31.4379408,13.9292308 C32.8422141,15.4378555 33.5448178,17.266014 33.5448178,19.4133333 C33.5448178,20.9217716 33.3619522,22.2568765 32.9981822,23.4194872 C32.6339453,24.5822844 32.1631458,25.51338 31.5855968,26.2147319 C31.0073941,26.9159907 30.2873257,27.5061072 29.4252984,27.9849883 C28.5630843,28.4642424 27.7272073,28.8101632 26.9186014,29.02331 C26.1096219,29.2364569 25.1987494,29.3966434 24.1856105,29.5031235 C25.1096515,30.3014452 25.5717654,31.5615851 25.5717654,33.2829837 L25.5717654,38.8994872 C25.5717654,39.2185548 25.6829043,39.4849417 25.905369,39.6978089 C26.1275535,39.910303 26.4784351,39.9728671 26.9584806,39.8838228 C31.0830433,38.5175758 34.4472847,36.0551981 37.0513918,32.4967832 C39.6552187,28.938648 40.9575991,24.9325874 40.9575991,20.4775758 C40.9566651,16.769324 40.040656,13.3489977 38.2105057,10.2165967 Z" id="Shape"></path>
                            </g>
                        </g>
                    </g>
                </g>
            </g>
        </g>
    </g>
</svg>