<svg xmlns="http://www.w3.org/2000/svg" xmlns:xlink="http://www.w3.org/1999/xlink" width="109" height="26" viewBox="0 0 109 26">
    <defs>
        <path id="a" d="M0 .158h20.937V26H0z"/>
        <path id="c" d="M.09.033h17.669v24.941H.089z"/>
    </defs>
    <g fill="none" fill-rule="evenodd">
        <g>
            <mask id="b" fill="#fff">
                <use xlink:href="#a"/>
            </mask>
            <path fill="#100F0F" d="M20.519 11.218h-8.953c-.23 0-.418.169-.418.376v3.926c0 .207.188.376.418.376h3.493v4.877s-.784.24-2.952.24c-2.558 0-6.13-.838-6.13-7.886 0-7.049 3.72-7.976 7.212-7.976 3.024 0 4.327.477 5.155.707.26.072.502-.16.502-.368l.998-3.793a.338.338 0 0 0-.16-.293c-.336-.216-2.39-1.246-7.577-1.246C6.13.158 0 2.438 0 13.402S7.019 26 12.933 26c4.897 0 7.868-1.877 7.868-1.877.123-.06.136-.214.136-.284V11.594c0-.207-.187-.376-.418-.376" mask="url(#b)"/>
        </g>
        <path fill="#100F0F" d="M68 1.371c0-.205-.188-.371-.424-.371h-5.143c-.235 0-.426.166-.426.371l.001 8.59h-8.016V1.37c0-.205-.19-.371-.424-.371h-5.143c-.234 0-.425.166-.425.371v23.257c0 .205.19.372.425.372h5.143c.235 0 .424-.167.424-.372V14.68h8.016l-.013 9.948c0 .205.19.372.426.372h5.155c.235 0 .423-.167.424-.372V1.37zM31 4.999C31 3.34 29.433 2 27.5 2 25.568 2 24 3.34 24 4.999 24 6.656 25.568 8 27.5 8 29.433 8 31 6.656 31 4.999M30 19.848V9.362c0-.2-.19-.362-.426-.362h-5.128c-.236 0-.446.205-.446.404v15.023c0 .442.326.573.748.573h4.62c.508 0 .632-.21.632-.58v-4.572zM87.583 9h-4.971c-.228 0-.414.168-.414.376v11.521s-1.263.828-3.056.828c-1.793 0-2.268-.729-2.268-2.302V9.376c0-.208-.186-.376-.414-.376h-5.046c-.227 0-.414.168-.414.376v10.808C71 24.857 73.906 26 77.903 26c3.28 0 5.924-1.624 5.924-1.624s.126.856.183.957a.444.444 0 0 0 .366.204l3.21-.013c.227 0 .414-.168.414-.375l-.002-15.773c0-.208-.186-.376-.415-.376"/>
        <g transform="translate(91 1)">
            <mask id="d" fill="#fff">
                <use xlink:href="#c"/>
            </mask>
            <path fill="#100F0F" d="M8.757 20.666c-1.731-.048-2.905-.756-2.905-.756V12.4s1.158-.64 2.579-.755c1.797-.145 3.529.344 3.529 4.208 0 4.074-.782 4.878-3.203 4.813m1.968-13.364c-2.834 0-4.762 1.14-4.762 1.14V.411c0-.21-.186-.378-.415-.378H.505C.275.033.089.202.089.41v23.718c0 .209.186.38.417.38h3.498a.425.425 0 0 0 .365-.203c.088-.127.213-1.093.213-1.093s2.062 1.761 5.966 1.761c4.583 0 7.211-2.095 7.211-9.406 0-7.31-4.198-8.265-7.034-8.265" mask="url(#d)"/>
        </g>
        <path fill="#100F0F" d="M44.517 8.769h-3.75l-.006-4.513c0-.17-.096-.256-.313-.256h-5.11c-.198 0-.305.08-.305.254v4.663s-2.56.563-2.734.609a.385.385 0 0 0-.299.363v2.93c0 .21.185.38.413.38h2.62v7.05c0 5.237 4.032 5.751 6.753 5.751 1.243 0 2.73-.364 2.975-.446a.352.352 0 0 0 .235-.342L45 21.99c0-.21-.195-.38-.414-.38-.219 0-.778.08-1.353.08-1.842 0-2.466-.78-2.466-1.79v-6.7h3.75c.228 0 .413-.17.413-.38V9.15c0-.21-.185-.38-.413-.38"/>
    </g>
</svg>
