<?xml version="1.0" encoding="UTF-8"?>
<svg width="1920px" height="944px" viewBox="0 0 1920 944" version="1.1" xmlns="http://www.w3.org/2000/svg" xmlns:xlink="http://www.w3.org/1999/xlink">
    <!-- Generator: Sketch 49.1 (51147) - http://www.bohemiancoding.com/sketch -->
    <title>BG@1x</title>
    <desc>Created with Sketch.</desc>
    <defs>
        <linearGradient x1="50%" y1="95.5049302%" x2="50%" y2="-22.4328732%" id="linearGradient-1">
            <stop stop-color="#1C1F28" offset="0%"></stop>
            <stop stop-color="#323643" offset="100%"></stop>
        </linearGradient>
        <path d="M0,83.8206617 L1920,0.092751661 L1920,878.444591 C1503.9143,863.906531 1134.70421,876.152687 812.369722,915.183058 C497.211761,953.344449 226.421854,953.344449 0,915.183058 L0,83.8206617 Z" id="path-2"></path>
    </defs>
    <g id="Page-1" stroke="none" stroke-width="1" fill="none" fill-rule="evenodd">
        <g id="HF-Homepage" transform="translate(0.000000, -2520.000000)">
            <g id="Group-43" transform="translate(0.000000, 2520.000000)">
                <g id="BG">
                    <mask id="mask-3" fill="white">
                        <use xlink:href="#path-2"></use>
                    </mask>
                    <use id="Mask" fill="url(#linearGradient-1)" xlink:href="#path-2"></use>
                    <g id="trianglify-(1)" opacity="0.5" mask="url(#mask-3)" fill-rule="nonzero" stroke-width="1.51">
                        <g transform="translate(1068.500000, 497.000000) rotate(-360.000000) translate(-1068.500000, -497.000000) translate(0.000000, -308.000000)" id="Shape">
                            <polygon stroke="#282C39" fill="#282C39" points="1272 870.506912 1415 900 1408.54194 700"></polygon>
                            <polygon stroke="#282C39" fill="#282C39" points="1409 699.09324 1158 475 1272.42647 869"></polygon>
                            <polygon stroke="#252934" fill="#252934" points="1412.42268 900 1762 711.059908 1406 700"></polygon>
                            <polygon stroke="#262A37" fill="#262A37" points="1409 699 1267.8125 224 1158 474.82205"></polygon>
                            <polygon stroke="#1F222B" fill="#1F222B" points="1279 1522 1587 1332.19881 1412.31343 901"></polygon>
                            <polygon stroke="#292D3A" fill="#292D3A" points="1156.35949 475 908 869 1270 869"></polygon>
                            <polygon stroke="#232731" fill="#232731" points="1412 901 1834 849.370732 1763.0524 712"></polygon>
                            <polygon stroke="#1E2029" fill="#1E2029" points="1954 321 1744 452.223529 1763.25764 711"></polygon>
                            <polygon stroke="#222530" fill="#222530" points="1762 711 1742.73196 452 1406 699.978723"></polygon>
                            <polygon stroke="#272B37" fill="#272B37" points="1156 475 922.642066 480.51049 908 869"></polygon>
                            <polygon stroke="#262936" fill="#262936" points="1265 224 922 481 1155.86364 475.473118"></polygon>
                            <polygon stroke="#20232C" fill="#20232C" points="1412 900.479167 1789.77293 1202 1834 849"></polygon>
                            <polygon stroke="#242732" fill="#242732" points="1281.22581 1520 1415 899.461756 1272 870"></polygon>
                            <polygon stroke="#242631" fill="#242631" points="1746 450.934236 1267 224 1407.93654 699"></polygon>
                            <polygon stroke="#1F212A" fill="#1F212A" points="1587.17073 1330 1790 1201.66667 1412 901"></polygon>
                            <polygon stroke="#252934" fill="#252934" points="908 870 1280 1520 1270.81481 870"></polygon>
                            <polygon stroke="#20232D" fill="#20232D" points="906.926829 870 714 1398.47025 1279 1520"></polygon>
                            <polygon stroke="#272A37" fill="#272A37" points="585 550 662.28 1039 907 870.474576"></polygon>
                            <polygon stroke="#242834" fill="#242834" points="1266 224 764 260.845878 922.139194 481"></polygon>
                            <polygon stroke="#252935" fill="#252935" points="922 481 585 549.971631 907.26776 870"></polygon>
                            <polygon stroke="#242732" fill="#242732" points="763.628415 262 585 551 922 481.971338"></polygon>
                            <polygon stroke="#1F222A" fill="#1F222A" points="1790 1202 2137 1066.86719 1834.06349 849"></polygon>
                            <polygon stroke="#1F2229" fill="#1F2229" points="2120.47619 1342 2137 1067 1790 1202.20067"></polygon>
                            <polygon stroke="#22252F" fill="#22252F" points="662 1038.01568 713.368421 1397 906 870"></polygon>
                            <polygon stroke="#1D2029" fill="#1D2029" points="612 1418 715 1397.81114 663.036036 1039"></polygon>
                            <polygon stroke="#1D2025" fill="#1D2025" points="2074.10833 1610 2121 1341.01802 1790 1201"></polygon>
                            <polygon stroke="#21242E" fill="#21242E" points="341 833 614.375 1417 665 1037.7673"></polygon>
                            <polygon stroke="#282C38" fill="#282C38" points="80 666.181818 339.952727 834 587 550"></polygon>
                            <polygon stroke="#272A37" fill="#272A37" points="587.681818 550 341 833.638418 665 1039"></polygon>
                            <polygon stroke="#222530" fill="#222530" points="763 261.544474 408 209 584.580311 551"></polygon>
                            <polygon stroke="#242733" fill="#242733" points="408.640449 209 258 303.948787 585 551"></polygon>
                            <polygon stroke="#272A37" fill="#272A37" points="258.832727 304 80 666 587 550.233503"></polygon>
                            <polygon stroke="#22252F" fill="#22252F" points="339.081081 833 0 1359.15094 612 1417"></polygon>
                            <polygon stroke="#2A2D39" fill="#2A2D39" points="79.6910569 666 0 1359 338 833.054305"></polygon>
                        </g>
                    </g>
                </g>
            </g>
        </g>
    </g>
</svg>