<?xml version="1.0" encoding="UTF-8"?>
<svg width="40px" height="40px" viewBox="0 0 40 40" version="1.1" xmlns="http://www.w3.org/2000/svg" xmlns:xlink="http://www.w3.org/1999/xlink">
    <!-- Generator: Sketch 49.1 (51147) - http://www.bohemiancoding.com/sketch -->
    <title>search</title>
    <desc>Created with Sketch.</desc>
    <defs></defs>
    <g id="Page-1" stroke="none" stroke-width="1" fill="none" fill-rule="evenodd">
        <g id="HF-Homepage" transform="translate(-306.000000, -4867.000000)" fill-rule="nonzero">
            <g id="Group-32" transform="translate(0.000000, 4518.000000)">
                <g id="Group-50" transform="translate(246.000000, 121.000000)">
                    <g id="Group-31" transform="translate(0.000000, 168.000000)">
                        <g id="Group-29">
                            <g id="search" transform="translate(60.000000, 60.000000)">
                                <path d="M8.86484375,24.1725 L7.4725,29.3703125 L2.38351562,29.4779688 C0.86265625,26.6571094 0,23.4296875 0,20 C0,16.6835156 0.8065625,13.5560156 2.23625,10.8021875 L2.23734375,10.8021875 L6.76796875,11.6328125 L8.75265625,16.13625 C8.33726562,17.3472656 8.11085937,18.6472656 8.11085937,20 C8.11101563,21.468125 8.37695312,22.8747656 8.86484375,24.1725 Z" id="Shape" fill="#FBBB00"></path>
                                <path d="M39.6505469,16.26375 C39.8802344,17.4735938 40,18.7230469 40,20 C40,21.431875 39.8494531,22.8285938 39.5626562,24.1758594 C38.5890625,28.7604688 36.0450781,32.76375 32.5209375,35.5967188 L32.5198437,35.595625 L26.8132812,35.3044531 L26.005625,30.2626563 C28.3440625,28.89125 30.1715625,26.7450781 31.1342187,24.1758594 L20.4396875,24.1758594 L20.4396875,16.26375 L31.2902344,16.26375 L39.6505469,16.26375 Z" id="Shape" fill="#518EF8"></path>
                                <path d="M32.5197656,35.595625 L32.5208594,35.5967188 C29.0934375,38.3516406 24.7395313,40 20,40 C12.3835156,40 5.7615625,35.7428906 2.38351562,29.4780469 L8.86484375,24.1725781 C10.5538281,28.6802344 14.9021875,31.8890625 20,31.8890625 C22.1911719,31.8890625 24.2439844,31.2967188 26.0054687,30.2626563 L32.5197656,35.595625 Z" id="Shape" fill="#28B446"></path>
                                <path d="M32.7659375,4.604375 L26.2867969,9.90875 C24.46375,8.76921875 22.30875,8.1109375 20,8.1109375 C14.7867969,8.1109375 10.3571094,11.4669531 8.75273437,16.13625 L2.23734375,10.8021875 L2.23625,10.8021875 C5.56484375,4.38460938 12.2703125,0 20,0 C24.8527344,0 29.3021875,1.72859375 32.7659375,4.604375 Z" id="Shape" fill="#F14336"></path>
                            </g>
                        </g>
                    </g>
                </g>
            </g>
        </g>
    </g>
</svg>