<?xml version="1.0" encoding="UTF-8"?>
<svg width="30px" height="30px" viewBox="0 0 30 30" version="1.1" xmlns="http://www.w3.org/2000/svg" xmlns:xlink="http://www.w3.org/1999/xlink">
    <!-- Generator: Sketch 49.1 (51147) - http://www.bohemiancoding.com/sketch -->
    <title>Combined Shape</title>
    <desc>Created with Sketch.</desc>
    <defs></defs>
    <g id="Page-1" stroke="none" stroke-width="1" fill="none" fill-rule="evenodd">
        <g id="HF-Homepage" transform="translate(-346.000000, -2868.000000)" fill="#429FFD" fill-rule="nonzero">
            <g id="Group-43" transform="translate(0.000000, 2520.000000)">
                <g id="Group-28" transform="translate(306.000000, 155.000000)">
                    <g id="Group-21" transform="translate(0.000000, 148.000000)">
                        <g id="Group-13">
                            <path d="M58.0681818,62.3131083 C58.0681818,62.541845 57.8828451,62.7272727 57.6542208,62.7272727 L52.6866883,62.7272727 C52.4580639,62.7272727 52.2727273,62.541845 52.2727273,62.3131083 L52.2727273,57.6868917 C52.2727273,57.458155 52.4580639,57.2727273 52.6866883,57.2727273 L57.6542208,57.2727273 C57.8828451,57.2727273 58.0681818,57.458155 58.0681818,57.6868917 L58.0681818,62.3131083 Z M55.7013978,53.936175 C55.7013978,54.2726708 55.428614,54.5454545 55.0921182,54.5454545 C54.7556225,54.5454545 54.4828387,54.2726708 54.4828387,53.936175 L54.4828387,51.8756209 C52.7391314,51.604194 51.4876407,50.0281722 51.597632,48.2422349 C51.7076232,46.4562976 53.1427554,45.0505177 54.9062086,45.0013272 C56.6696619,44.9521368 58.1787922,46.2757884 58.3853819,48.0528949 C58.5919715,49.8300014 57.4277634,51.4734076 55.7013978,51.84163 L55.7013978,53.936175 Z M54.9915871,46.2516658 C53.7852497,46.2516658 52.8073201,47.2436197 52.8073201,48.470347 C52.8090009,49.6927772 53.7864384,50.6828492 54.9915871,50.682848 C56.1979245,50.682848 57.1758542,49.6908941 57.1758542,48.4672569 C57.1758542,47.2436197 56.1979245,46.2516658 54.9915871,46.2516658 Z M54.2986022,66.063825 C54.2986022,65.7273292 54.571386,65.4545455 54.9078818,65.4545455 C55.2443775,65.4545455 55.5171613,65.7273292 55.5171613,66.063825 L55.5171613,68.1243791 C57.2608686,68.395806 58.5123593,69.9718278 58.402368,71.7577651 C58.2923768,73.5437024 56.8572446,74.9494823 55.0937914,74.9986728 C53.3303381,75.0478632 51.8212078,73.7242116 51.6146181,71.9471051 C51.4080285,70.1699986 52.5722366,68.5265924 54.2986022,68.15837 L54.2986022,66.063825 Z M55.0084129,73.7483342 C56.2147503,73.7483342 57.1926799,72.7563803 57.1926799,71.529653 C57.1909991,70.3072228 56.2135616,69.3171508 55.0084129,69.317152 C53.8020755,69.317152 52.8241458,70.3091059 52.8241458,71.5327431 C52.8241458,72.7563803 53.8020755,73.7483342 55.0084129,73.7483342 Z M63.1345429,59.4901676 C63.38934,57.828314 64.8343778,56.5976006 66.5417913,56.5909093 C68.357192,56.5902226 69.8638215,57.9745203 69.991342,59.7603714 C70.1188625,61.5462225 68.8238199,63.1250767 67.0262366,63.3752863 C65.2286533,63.625496 63.5410777,62.4617992 63.162395,60.7109079 L61.0649156,60.7109079 C60.7278175,60.7109079 60.4545455,60.4376359 60.4545455,60.1005377 C60.4545455,59.7634396 60.7278175,59.4901676 61.0649156,59.4901676 L63.1345429,59.4901676 Z M64.4884158,60.8334475 C64.8316756,61.6514879 65.6409582,62.184951 66.5386966,62.1880037 C67.7634486,62.1863227 68.7558813,61.2076265 68.7575859,59.9998267 C68.758838,59.114515 68.2190175,58.3156901 67.3899753,57.9760401 C66.5609331,57.6363901 65.6060421,57.8228472 64.9708024,58.4484206 C64.3355626,59.0739941 64.145156,60.015407 64.4884158,60.8334475 Z M46.8699117,60.5098324 C46.6149492,62.171686 45.1689738,63.4023994 43.4604525,63.4090907 C41.6438739,63.4097774 40.1362669,62.0254797 40.0086636,60.2396286 C39.8810604,58.4537775 41.1769433,56.8749233 42.9756929,56.6247137 C44.7744425,56.374504 46.463113,57.5382008 46.8420414,59.2890921 L48.9350844,59.2890921 C49.2721825,59.2890921 49.5454545,59.5623641 49.5454545,59.8994623 C49.5454545,60.2365604 49.2721825,60.5098324 48.9350844,60.5098324 L46.8699117,60.5098324 Z M45.5151603,59.1665525 C45.1716778,58.3485121 44.3618701,57.815049 43.4635492,57.8119963 C42.2372954,57.8119963 41.2432202,58.7916765 41.2432202,60.0001733 C41.2419673,60.885485 41.782138,61.6843099 42.6117182,62.0239599 C43.4412983,62.3636099 44.3968088,62.1771528 45.0324607,61.5515794 C45.6681126,60.9260059 45.8586428,59.984593 45.5151603,59.1665525 Z M61.0869951,55.1397222 C60.8438756,55.3779472 60.4550389,55.3785108 60.2112299,55.1409915 C60.2082514,55.1380898 60.2053031,55.1351572 60.2023856,55.1321942 C59.9700529,54.8962373 59.9729909,54.5166135 60.2089479,54.2842809 L61.666191,52.8494207 C60.5972485,51.4197119 60.8130709,49.4231034 62.1636912,48.2469634 C63.5143116,47.0708233 65.5532413,47.1039606 66.8637047,48.3233493 C68.1741681,49.5427381 68.3229517,51.5452723 67.2066713,52.9394661 C66.0903909,54.33366 64.0780671,54.6586204 62.5679879,53.6885445 L61.0869951,55.1397222 Z M66.0201911,49.276297 C65.1524705,48.4218993 63.7456145,48.4218912 62.8778838,49.2793303 C62.0122027,50.1333818 62.0122027,51.5163057 62.8778838,52.3703572 C63.7456145,53.2247449 65.1524705,53.2247368 66.0201911,52.3703392 C66.8879117,51.5159416 66.8879117,50.1306946 66.0201911,49.276297 Z M48.9130049,65.2011869 C49.1561244,64.9629618 49.5449611,64.9623983 49.7887701,65.1999176 C49.7917486,65.2028193 49.7946969,65.2057519 49.7976144,65.2087149 C50.0299471,65.4446718 50.0270091,65.8242955 49.7910521,66.0566282 L48.333809,67.4914884 C49.4027515,68.9211972 49.1869291,70.9178057 47.8363088,72.0939457 C46.4856884,73.2700858 44.4467587,73.2369485 43.1362953,72.0175598 C41.8258319,70.798171 41.6770483,68.7956368 42.7933287,67.401443 C43.9096091,66.0072491 45.9219329,65.6822887 47.4320121,66.6523646 L48.9130049,65.2011869 Z M47.1221162,71.0676816 C47.9898506,70.2132754 47.9898506,68.8280093 47.1221162,67.9736032 C46.2543819,67.1191971 44.8475066,67.1191971 43.9797722,67.9736032 C43.1120379,68.8280093 43.1120379,70.2132754 43.9797722,71.0676816 C44.8475066,71.9220877 46.2543819,71.9220877 47.1221162,71.0676816 Z M66.6100419,67.009934 C67.9475702,68.3692385 67.9482551,70.5738031 66.6115718,71.9339668 C65.2748885,73.2941305 63.1070118,73.2948271 61.7694835,71.9355226 C60.6243427,70.7748581 60.4366009,68.9565817 61.3196971,67.5793482 L59.864063,66.0942815 C59.6240651,65.8494309 59.6243821,65.457474 59.8647758,65.213012 C59.8671574,65.2105902 59.8695592,65.2081884 59.871981,65.2058069 C60.1110969,64.9706703 60.4955545,64.9738961 60.7306911,65.213012 L62.1672538,66.6738862 C63.5252338,65.6500646 65.4159505,65.7930764 66.6100419,67.009934 Z M62.6399886,71.0502857 C63.4959052,71.923265 64.8856751,71.9253547 65.7471864,71.0456184 C66.5582409,70.1669669 66.5365347,68.7921276 65.6981609,67.9404064 C64.859787,67.0886852 63.5078067,67.0679683 62.6445782,67.8936151 C61.7861267,68.7640168 61.7840719,70.1773063 62.6399886,71.0502857 Z M43.5139662,48.2829172 C44.8664614,47.0399447 46.9388864,47.0959378 48.2339101,48.397734 C49.3788872,49.5596385 49.5666021,51.3798574 48.6836321,52.7585624 L50.1363578,54.2448663 C50.3762608,54.4903144 50.3757844,54.8825619 50.1352861,55.1274267 C50.1327362,55.1300228 50.130163,55.132596 50.1275668,55.1351459 C49.8884851,55.3699644 49.5043131,55.3665084 49.2694946,55.1274267 L47.8331373,53.6649917 C46.3672529,54.7666711 44.3102552,54.5036586 43.1574389,53.0671461 C42.0046226,51.6306336 42.161471,49.5258897 43.5139662,48.2829172 Z M44.247598,52.4595341 L44.256776,52.4470746 C45.1149512,53.3167007 46.5024517,53.3153075 47.3589406,52.4439597 C48.2135527,51.5721299 48.2135527,50.1604187 47.3589406,49.2885889 C46.4989222,48.4138167 45.1052419,48.414514 44.2460683,49.2901463 C43.3868948,50.1657787 43.3875797,51.5847619 44.247598,52.4595341 Z" id="Combined-Shape"></path>
                        </g>
                    </g>
                </g>
            </g>
        </g>
    </g>
</svg>