<svg xmlns="http://www.w3.org/2000/svg" width="20" height="20" viewBox="0 0 20 20">
    <g fill="none" fill-rule="evenodd" opacity=".5">
        <g>
            <g>
                <g>
                    <g>
                        <path d="M0 0L20 0 20 20 0 20z" transform="translate(-330 -4221) translate(0 4090) translate(184 100) translate(146 31)"/>
                        <path fill="#FFF" fill-rule="nonzero" d="M10 1.667c4.602 0 8.333 3.73 8.333 8.333 0 4.602-3.73 8.333-8.333 8.333S1.667 14.603 1.667 10 5.397 1.667 10 1.667zM5.997 12.235l-1.812 1.812c.42.602.931 1.136 1.515 1.582l.254.186 1.811-1.813c-.673-.376-1.24-.916-1.65-1.569l-.117-.198zm8.005 0c-.376.673-.916 1.24-1.569 1.65l-.198.117 1.812 1.813c.602-.42 1.136-.931 1.582-1.515l.186-.253-1.813-1.812zM10 6.667c-1.84 0-3.333 1.492-3.333 3.333 0 1.84 1.492 3.333 3.333 3.333 1.84 0 3.333-1.492 3.333-3.333 0-1.84-1.492-3.333-3.333-3.333zM5.954 4.185c-.603.42-1.137.931-1.583 1.515l-.186.254 1.813 1.811c.376-.673.916-1.24 1.569-1.65l.198-.117-1.81-1.813zm8.092 0l-1.811 1.813c.673.376 1.24.916 1.65 1.569l.117.198 1.813-1.81c-.42-.604-.931-1.138-1.515-1.584l-.253-.186h-.001z" transform="translate(-330 -4221) translate(0 4090) translate(184 100) translate(146 31)"/>
                    </g>
                </g>
            </g>
        </g>
    </g>
</svg>
