<?xml version="1.0" encoding="UTF-8"?>
<svg width="20px" height="20px" viewBox="0 0 20 20" version="1.1" xmlns="http://www.w3.org/2000/svg" xmlns:xlink="http://www.w3.org/1999/xlink">
    <title>assist-ai copy</title>
    <g id="Page-1" stroke="none" stroke-width="1" fill="none" fill-rule="evenodd">
        <g id="Why-Assist-AI" transform="translate(-412.000000, -6012.000000)">
            <g id="Group-33" transform="translate(0.000000, 1171.000000)">
                <g id="new-footer" transform="translate(0.000000, 4346.000000)">
                    <g id="Group-12" transform="translate(184.000000, 464.000000)">
                        <g id="Group-13" transform="translate(73.000000, 31.000000)">
                            <g id="assist-ai-copy" transform="translate(155.000000, 0.000000)">
                                <polygon id="Path" points="0 0 20 0 20 20 0 20"></polygon>
                                <g id="Group-54" opacity="0.5" transform="translate(3.000000, 2.004752)" fill="#FFFFFF">
                                    <path d="M14.1651057,2.85151574 C14.1693199,2.91683508 14.1714286,2.98227324 14.1714286,3.04772839 L14.1714286,9.94896901 C14.1714286,11.6321225 12.806963,12.9965881 11.1238095,12.9965881 C11.0801413,12.9965881 11.0364781,12.9956495 10.9928502,12.993773 L6.86755661,12.8163411 C6.60130134,12.8048892 6.36745953,12.991736 6.31987564,13.253955 L5.95828147,15.2465798 C5.93574191,15.3707878 5.81677951,15.4532064 5.69257152,15.4306668 C5.63702589,15.4205872 5.58717531,15.3903087 5.55262362,15.3456645 L3.61520388,12.8423313 C3.53116451,12.7337443 3.40276684,12.6686835 3.2655038,12.6651336 L3.10021904,12.660859 L2.91023564,12.6522861 C1.2821614,12.5788196 7.10542736e-15,11.2374961 7.10542736e-15,9.60776516 L7.10542736e-15,3.56877294 C7.10542736e-15,1.96179662 1.24776405,0.630937556 2.85140639,0.52747676 L10.9275969,0.00643221282 C12.6072584,-0.101933045 14.0567404,1.17185424 14.1651057,2.85151574 Z M2.5433849,8.5786381 L2.52429708,8.57839485 C2.11060322,8.57839485 1.7752381,8.91375998 1.7752381,9.32745384 C1.7752381,9.75495843 2.11601913,10.1045369 2.5433849,10.1154308 L2.5433849,10.1154308 L10.4832818,10.3178241 C10.4896431,10.3179863 10.4960062,10.3180674 10.5023696,10.3180674 C10.9160634,10.3180674 11.2514286,9.98270225 11.2514286,9.5690084 C11.2514286,9.1415038 10.9106475,8.79192533 10.4832818,8.78103148 L10.4832818,8.78103148 L2.5433849,8.5786381 L2.5433849,8.5786381 Z M7.00119115,5.90228248 L2.61976123,5.95868969 C2.19383222,5.96417316 1.85142857,6.31101334 1.85142857,6.73697765 L1.85142857,6.73697765 L1.85149143,6.74674275 C1.85688455,7.16565333 2.20085065,7.50087546 2.61976123,7.49548234 L2.61976123,7.49548234 L7.00119115,7.43907513 C7.42712016,7.43359166 7.76952381,7.08675147 7.76952381,6.66078717 L7.76952381,6.66078717 C7.76406783,6.23211149 7.42010173,5.89688936 7.00119115,5.90228248 L7.00119115,5.90228248 Z M10.4838749,2.80455742 L2.54279176,3.17676494 C2.11319151,3.19690079 1.7752381,3.55106548 1.7752381,3.98113737 C1.7752381,3.9925852 1.7755062,4.00403146 1.77604218,4.01546673 C1.79500176,4.41997125 2.13828725,4.73251718 2.54279176,4.71355759 L2.54279176,4.71355759 L10.4838749,4.34135008 C10.9134752,4.32121423 11.2514286,3.96704954 11.2514286,3.53697765 C11.2514286,3.52552982 11.2511605,3.51408356 11.2506245,3.50264829 C11.2316649,3.09814377 10.8883794,2.78559784 10.4838749,2.80455742 L10.4838749,2.80455742 Z" id="Combined-Shape"></path>
                                </g>
                            </g>
                        </g>
                    </g>
                </g>
            </g>
        </g>
    </g>
</svg>