<?xml version="1.0" encoding="UTF-8"?>
<svg width="651px" height="144px" viewBox="0 0 651 144" version="1.1" xmlns="http://www.w3.org/2000/svg" xmlns:xlink="http://www.w3.org/1999/xlink">
    <title>hfBI-logo</title>
    <g id="Page-1" stroke="none" stroke-width="1" fill="none" fill-rule="evenodd">
        <g id="HFAnalytics" transform="translate(-635.000000, -468.000000)" fill-rule="nonzero">
            <g id="hfBI-logo" transform="translate(635.000000, 468.000000)">
                <g id="Group" transform="translate(0.210090, 27.000001)">
                    <polygon id="Shape" fill="#FFC300" points="53.7561312 116.724205 0.0854262825 76.7347164 0.0854262825 56.7565756 30.9854125 63.7404904 53.7793428 95.5479863 76.5358761 63.7404904 107.439731 56.7565756 107.439731 56.7565756 107.447468 56.7565756 107.447468 76.7347164"></polygon>
                    <path d="M0.0854262825,10.2493869 L0.0854262825,56.7565756 L0.0918739886,56.7565756 L53.7612893,26.4858601 C53.7612893,26.4858601 13.5469469,3.01841824 10.1064509,1.63305816 C3.64455999,-1.00218096 0.0854262825,-1.39135689 0.0854262825,10.2493869 Z" id="Shape" fill="#FF8D00"></path>
                    <path d="M97.4238646,1.6343864 C93.9820794,3.01974649 53.8825061,26.4141349 53.8825061,26.4141349 L0.0918739886,56.7565756 L30.9944393,63.7404904 L53.7561312,95.5479863 L76.5603776,63.7404904 L107.447468,56.7565756 L107.447468,20.371946 L107.447468,10.2493869 C107.447468,-1.39135689 103.888335,-1.00218096 97.4238646,1.6343864 Z" id="Shape" fill="#FF4F00"></path>
                </g>
                <g id="Group" transform="translate(163.239693, 0.593548)" fill="#000000">
                    <path d="M43.9142152,75.0941095 C43.9142152,63.1122959 40.4115883,53.7813259 25.8703797,53.7813259 C18.5467052,53.7813259 13.0274143,57.7045746 10.3739091,62.6881609 L10.1616287,62.6881609 L10.1616287,31.9383734 L0.0783088306,31.9383734 L0.0783088306,105.101661 L10.1616287,105.101661 L10.1616287,80.1837297 C10.1616287,70.1105234 14.0888165,62.1579921 23.3230147,62.1579921 C32.5572128,62.1579921 33.7247552,69.3682871 33.7247552,76.5785821 L33.7247552,105.101661 L43.9142152,105.101661 L43.9142152,75.0941095 Z M94.022267,75.8363458 C94.022267,67.2476121 92.005603,63.0062621 88.6091166,59.5071483 C85.2126297,56.1140684 80.33018,53.7813259 71.9451037,53.7813259 C63.5600269,53.7813259 56.7670535,56.7502708 53.0521463,58.8709458 L56.1302124,65.6571058 C57.8284557,64.5967683 63.9845879,61.3097221 71.3082621,61.3097221 C78.6319368,61.3097221 83.8328072,65.1269371 83.8328072,72.7613672 L83.8328072,74.7760083 L70.3530003,75.3061773 C58.6775773,75.8363458 50.6109217,80.8199321 50.6109217,90.6810707 C50.6109217,100.436176 58.6775773,106.268032 68.0179159,106.268032 C77.2521139,106.268032 82.0284233,100.860311 84.0450873,98.739636 L84.1512275,105.101661 L94.022267,105.101661 L94.022267,75.8363458 Z M83.938947,91.7414082 C82.0284233,94.6043195 77.6766749,99.0577372 71.0959821,99.0577372 C64.4091485,99.0577372 60.6942413,95.1344885 60.6942413,90.3629695 C60.6942413,85.591451 63.9845879,82.0923369 72.1573842,81.6682022 L83.938947,80.925966 L83.938947,91.7414082 Z M156.867144,79.8656285 C156.867144,64.9148696 147.420666,53.7813259 132.561036,53.7813259 C125.131222,53.7813259 119.08123,56.7502708 114.623341,62.6881609 L114.411061,62.6881609 L114.411061,54.7356296 L104.646161,54.7356296 L104.646161,124.823938 L114.835621,124.823938 L114.835621,97.1491296 L114.941761,97.2551634 C118.550528,102.874952 124.38824,106.268032 132.348756,106.268032 C147.314525,106.268032 156.867144,94.8163873 156.867144,79.8656285 Z M146.465404,79.7595946 C146.465404,89.832801 140.521552,97.5732647 130.438232,97.5732647 C120.354912,97.5732647 114.411061,89.832801 114.411061,79.7595946 C114.411061,69.6863884 120.354912,62.0519584 130.438232,62.0519584 C140.521552,62.0519584 146.465404,69.6863884 146.465404,79.7595946 Z M217.270796,79.8656285 C217.270796,64.9148696 207.824317,53.7813259 192.964688,53.7813259 C185.534874,53.7813259 179.484882,56.7502708 175.026993,62.6881609 L174.814712,62.6881609 L174.814712,54.7356296 L165.049813,54.7356296 L165.049813,124.823938 L175.239273,124.823938 L175.239273,97.1491296 L175.345414,97.2551634 C178.954181,102.874952 184.791892,106.268032 192.752408,106.268032 C207.718177,106.268032 217.270796,94.8163873 217.270796,79.8656285 Z M206.869056,79.7595946 C206.869056,89.832801 200.925204,97.5732647 190.841884,97.5732647 C180.758564,97.5732647 174.814712,89.832801 174.814712,79.7595946 C174.814712,69.6863884 180.758564,62.0519584 190.841884,62.0519584 C200.925204,62.0519584 206.869056,69.6863884 206.869056,79.7595946 Z M255.915705,54.6295959 L241.056076,93.8620832 L226.090307,54.7356296 L215.476286,54.6295959 L235.642925,104.041323 L233.201701,110.72145 C230.972756,116.871407 228.743812,116.65934 226.621008,116.65934 C224.073643,116.65934 221.313997,115.492968 221.313997,115.492968 L219.297333,123.763601 C219.297333,123.763601 223.224521,125.566175 228.849952,125.566175 C234.475383,125.566175 238.614851,122.597229 242.117478,113.902462 L266.423586,54.7356296 L255.915705,54.6295959 Z" id="happy"></path>
                    <path d="M297.0629,31.7690715 C297.0629,31.7690715 294.266283,30.6000012 288.56947,30.6000012 C282.872657,30.6000012 278.936677,33.3632582 276.76153,36.1265152 C274.689962,38.7834931 273.447021,43.0346577 273.447021,49.6239628 L273.447021,54.7253603 L273.447021,62.9088522 L273.447021,105.101661 L283.286971,105.101661 L283.286971,62.9088522 L294.991332,62.9088522 L294.991332,54.7253603 L283.286971,54.7253603 L283.286971,49.0925672 C283.286971,43.353495 284.322755,38.3583766 290.848195,38.3583766 C293.644812,38.3583766 296.44143,39.3148886 296.44143,39.3148886 L297.0629,31.7690715 Z" id="f-copy"></path>
                    <path d="M347.845216,80.0778149 C347.845216,64.4909279 336.169849,53.7815701 321.20415,53.7815701 C306.132313,53.7815701 294.456945,64.4909279 294.456945,80.0778149 C294.456945,95.7707353 306.132313,106.268026 321.20415,106.268026 C336.169849,106.268026 347.845216,95.7707353 347.845216,80.0778149 Z M337.549665,79.7597154 C337.549665,89.7268401 331.287422,97.5733003 321.20415,97.5733003 C311.014739,97.5733003 304.752496,89.7268401 304.752496,79.7597154 C304.752496,69.8986234 311.014739,62.0521632 321.20415,62.0521632 C331.287422,62.0521632 337.549665,69.8986234 337.549665,79.7597154 Z M378.208179,78.5933494 L396.464208,54.7358693 L385.10726,54.7358693 L372.264356,72.8675542 L359.421451,54.7358693 L348.170643,54.7358693 L366.320532,78.5933494 L345.835569,105.101661 L357.298658,105.101661 L372.264356,84.6372447 L387.230054,105.101661 L398.693142,105.101661 L378.208179,78.5933494 Z" id="ox"></path>
                    <path d="M458.108332,83.8824508 C458.108332,74.0784504 451.400332,67.8864502 441.389931,66.2352501 C447.788332,64.37765 452.638732,57.8760498 452.638732,50.6520495 C452.638732,43.4280492 450.058732,39.5064491 445.930732,36.4104489 C441.802731,33.3144488 436.436331,32.7984488 429.418731,32.7984488 L413.73233,32.7984488 L413.73233,104.006452 L432.824331,104.006452 C440.904672,104.006452 446.019356,103.017899 450.296925,99.5895157 L450.574732,99.3624514 C455.012332,95.7504513 458.108332,91.1064511 458.108332,83.8824508 Z M452.122732,84.1920508 C452.122732,89.558451 450.058732,93.1704512 445.930732,96.0600513 C442.045555,98.6825455 436.78914,98.9282258 431.882256,98.948055 L419.305131,98.9496514 L419.305131,69.5376502 L430.966731,69.5376502 C436.126731,69.5376502 441.802731,69.7440503 445.930732,72.5304504 C450.058732,75.4200505 452.122732,78.7224506 452.122732,84.1920508 Z M446.962732,50.8584495 C446.962732,56.9187051 444.194785,59.9144484 441.464698,61.8774701 L441.286731,62.0040499 C438.603531,63.96485 434.578731,64.58405 428.902731,64.58405 L419.305131,64.58405 L419.305131,37.855249 L429.934731,37.855249 C435.238586,37.855249 438.310515,38.4374903 441.032512,39.8842719 L441.286731,40.0224491 C444.176332,41.5704491 446.962732,44.6664493 446.962732,50.8584495 Z M477.303533,32.7984488 L477.303533,104.006452 L471.730733,104.006452 L471.730733,32.7984488 L477.303533,32.7984488 Z" id="BI"></path>
                </g>
            </g>
        </g>
    </g>
</svg>