<?xml version="1.0" encoding="UTF-8"?>
<svg width="894px" height="144px" viewBox="0 0 894 144" version="1.1" xmlns="http://www.w3.org/2000/svg" xmlns:xlink="http://www.w3.org/1999/xlink">
    <title>hfchatbot-logo</title>
    <g id="Page-1" stroke="none" stroke-width="1" fill="none" fill-rule="evenodd">
        <g id="HFCBot" transform="translate(-583.000000, -468.000000)" fill-rule="nonzero">
            <g id="hfchatbot-logo" transform="translate(583.000000, 468.000000)">
                <g id="Group" transform="translate(0.210090, 27.000001)">
                    <polygon id="Shape" fill="#FFC300" points="53.7561312 116.724205 0.0854262825 76.7347164 0.0854262825 56.7565756 30.9854125 63.7404904 53.7793428 95.5479863 76.5358761 63.7404904 107.439731 56.7565756 107.439731 56.7565756 107.447468 56.7565756 107.447468 76.7347164"></polygon>
                    <path d="M0.0854262825,10.2493869 L0.0854262825,56.7565756 L0.0918739886,56.7565756 L53.7612893,26.4858601 C53.7612893,26.4858601 13.5469469,3.01841824 10.1064509,1.63305816 C3.64455999,-1.00218096 0.0854262825,-1.39135689 0.0854262825,10.2493869 Z" id="Shape" fill="#FF8D00"></path>
                    <path d="M97.4238646,1.6343864 C93.9820794,3.01974649 53.8825061,26.4141349 53.8825061,26.4141349 L0.0918739886,56.7565756 L30.9944393,63.7404904 L53.7561312,95.5479863 L76.5603776,63.7404904 L107.447468,56.7565756 L107.447468,20.371946 L107.447468,10.2493869 C107.447468,-1.39135689 103.888335,-1.00218096 97.4238646,1.6343864 Z" id="Shape" fill="#FF4F00"></path>
                </g>
                <g id="Group" transform="translate(163.239693, 0.593548)" fill="#000000">
                    <path d="M43.9142152,75.0941095 C43.9142152,63.1122959 40.4115883,53.7813259 25.8703797,53.7813259 C18.5467052,53.7813259 13.0274143,57.7045746 10.3739091,62.6881609 L10.1616287,62.6881609 L10.1616287,31.9383734 L0.0783088306,31.9383734 L0.0783088306,105.101661 L10.1616287,105.101661 L10.1616287,80.1837297 C10.1616287,70.1105234 14.0888165,62.1579921 23.3230147,62.1579921 C32.5572128,62.1579921 33.7247552,69.3682871 33.7247552,76.5785821 L33.7247552,105.101661 L43.9142152,105.101661 L43.9142152,75.0941095 Z M94.022267,75.8363458 C94.022267,67.2476121 92.005603,63.0062621 88.6091166,59.5071483 C85.2126297,56.1140684 80.33018,53.7813259 71.9451037,53.7813259 C63.5600269,53.7813259 56.7670535,56.7502708 53.0521463,58.8709458 L56.1302124,65.6571058 C57.8284557,64.5967683 63.9845879,61.3097221 71.3082621,61.3097221 C78.6319368,61.3097221 83.8328072,65.1269371 83.8328072,72.7613672 L83.8328072,74.7760083 L70.3530003,75.3061773 C58.6775773,75.8363458 50.6109217,80.8199321 50.6109217,90.6810707 C50.6109217,100.436176 58.6775773,106.268032 68.0179159,106.268032 C77.2521139,106.268032 82.0284233,100.860311 84.0450873,98.739636 L84.1512275,105.101661 L94.022267,105.101661 L94.022267,75.8363458 Z M83.938947,91.7414082 C82.0284233,94.6043195 77.6766749,99.0577372 71.0959821,99.0577372 C64.4091485,99.0577372 60.6942413,95.1344885 60.6942413,90.3629695 C60.6942413,85.591451 63.9845879,82.0923369 72.1573842,81.6682022 L83.938947,80.925966 L83.938947,91.7414082 Z M156.867144,79.8656285 C156.867144,64.9148696 147.420666,53.7813259 132.561036,53.7813259 C125.131222,53.7813259 119.08123,56.7502708 114.623341,62.6881609 L114.411061,62.6881609 L114.411061,54.7356296 L104.646161,54.7356296 L104.646161,124.823938 L114.835621,124.823938 L114.835621,97.1491296 L114.941761,97.2551634 C118.550528,102.874952 124.38824,106.268032 132.348756,106.268032 C147.314525,106.268032 156.867144,94.8163873 156.867144,79.8656285 Z M146.465404,79.7595946 C146.465404,89.832801 140.521552,97.5732647 130.438232,97.5732647 C120.354912,97.5732647 114.411061,89.832801 114.411061,79.7595946 C114.411061,69.6863884 120.354912,62.0519584 130.438232,62.0519584 C140.521552,62.0519584 146.465404,69.6863884 146.465404,79.7595946 Z M217.270796,79.8656285 C217.270796,64.9148696 207.824317,53.7813259 192.964688,53.7813259 C185.534874,53.7813259 179.484882,56.7502708 175.026993,62.6881609 L174.814712,62.6881609 L174.814712,54.7356296 L165.049813,54.7356296 L165.049813,124.823938 L175.239273,124.823938 L175.239273,97.1491296 L175.345414,97.2551634 C178.954181,102.874952 184.791892,106.268032 192.752408,106.268032 C207.718177,106.268032 217.270796,94.8163873 217.270796,79.8656285 Z M206.869056,79.7595946 C206.869056,89.832801 200.925204,97.5732647 190.841884,97.5732647 C180.758564,97.5732647 174.814712,89.832801 174.814712,79.7595946 C174.814712,69.6863884 180.758564,62.0519584 190.841884,62.0519584 C200.925204,62.0519584 206.869056,69.6863884 206.869056,79.7595946 Z M255.915705,54.6295959 L241.056076,93.8620832 L226.090307,54.7356296 L215.476286,54.6295959 L235.642925,104.041323 L233.201701,110.72145 C230.972756,116.871407 228.743812,116.65934 226.621008,116.65934 C224.073643,116.65934 221.313997,115.492968 221.313997,115.492968 L219.297333,123.763601 C219.297333,123.763601 223.224521,125.566175 228.849952,125.566175 C234.475383,125.566175 238.614851,122.597229 242.117478,113.902462 L266.423586,54.7356296 L255.915705,54.6295959 Z" id="happy"></path>
                    <path d="M297.0629,31.7690715 C297.0629,31.7690715 294.266283,30.6000012 288.56947,30.6000012 C282.872657,30.6000012 278.936677,33.3632582 276.76153,36.1265152 C274.689962,38.7834931 273.447021,43.0346577 273.447021,49.6239628 L273.447021,54.7253603 L273.447021,62.9088522 L273.447021,105.101661 L283.286971,105.101661 L283.286971,62.9088522 L294.991332,62.9088522 L294.991332,54.7253603 L283.286971,54.7253603 L283.286971,49.0925672 C283.286971,43.353495 284.322755,38.3583766 290.848195,38.3583766 C293.644812,38.3583766 296.44143,39.3148886 296.44143,39.3148886 L297.0629,31.7690715 Z" id="f-copy"></path>
                    <path d="M347.845216,80.0778149 C347.845216,64.4909279 336.169849,53.7815701 321.20415,53.7815701 C306.132313,53.7815701 294.456945,64.4909279 294.456945,80.0778149 C294.456945,95.7707353 306.132313,106.268026 321.20415,106.268026 C336.169849,106.268026 347.845216,95.7707353 347.845216,80.0778149 Z M337.549665,79.7597154 C337.549665,89.7268401 331.287422,97.5733003 321.20415,97.5733003 C311.014739,97.5733003 304.752496,89.7268401 304.752496,79.7597154 C304.752496,69.8986234 311.014739,62.0521632 321.20415,62.0521632 C331.287422,62.0521632 337.549665,69.8986234 337.549665,79.7597154 Z M378.208179,78.5933494 L396.464208,54.7358693 L385.10726,54.7358693 L372.264356,72.8675542 L359.421451,54.7358693 L348.170643,54.7358693 L366.320532,78.5933494 L345.835569,105.101661 L357.298658,105.101661 L372.264356,84.6372447 L387.230054,105.101661 L398.693142,105.101661 L378.208179,78.5933494 Z" id="ox"></path>
                    <path d="M452.122732,96.7824513 L449.026732,93.1704512 L448.862129,93.3782349 C447.904231,94.5408865 442.751261,100.188051 433.030731,100.188051 C422.194731,100.188051 414.76433,91.6224511 414.76433,79.7544506 C414.76433,67.8864502 423.226731,60.1464499 432.824331,60.1464499 C442.318731,60.1464499 446.446732,64.7904501 448.510732,67.1640501 L451.916332,63.55205 L451.536285,63.0652271 C449.897503,61.0250917 444.585162,55.2960497 433.030731,55.2960497 C420.440331,55.2960497 409.08833,65.3064501 409.08833,80.0640507 C409.08833,94.7184512 419.614731,105.038452 432.514731,105.038452 C445.414732,105.038452 450.368332,98.8464514 452.122732,96.7824513 Z M499.491534,104.006452 L499.491534,75.4200505 L499.487636,74.742076 C499.359355,63.7206788 496.017822,55.2960497 482.566733,55.2960497 C475.652333,55.2960497 469.460333,59.3208498 467.086732,64.9968501 L467.086732,32.7984488 L461.720332,32.7984488 L461.720332,104.006452 L467.086732,104.006452 L467.086732,80.2704507 C467.086732,68.9184502 472.040333,59.9400499 482.360333,59.9400499 C492.680333,59.9400499 494.021934,67.8864502 494.021934,75.6264505 L494.021934,104.006452 L499.491534,104.006452 Z M547.995536,75.6264505 C547.995536,67.3704502 546.137936,63.75845 543.351535,60.6624499 C540.461935,57.5664498 536.127535,55.2960497 528.903535,55.2960497 C521.679535,55.2960497 516.003534,58.0824498 512.907534,60.1464499 L514.971534,64.06805 C516.003534,63.24245 521.679535,59.9400499 529.109935,59.9400499 C536.643535,59.9400499 542.525935,64.27445 542.525935,73.0464504 L542.525935,75.6264505 L529.419535,76.1424505 C516.519534,76.6584505 510.327534,82.3344508 510.327534,90.5904511 C510.327534,98.8464514 517.035534,105.038452 526.323535,105.038452 C535.611535,105.038452 540.771535,99.3624514 542.525935,97.2984513 L542.525935,104.006452 L547.995536,104.006452 L547.995536,75.6264505 Z M542.525935,91.6224511 C540.255535,95.2344513 535.095535,100.394451 527.355535,100.394451 C519.615535,100.394451 515.693934,95.7504513 515.693934,90.5904511 C515.693934,85.5031269 518.803651,81.2183103 528.484604,80.6041175 L542.525935,79.7544506 L542.525935,91.6224511 Z M582.051537,103.490452 L581.535537,98.8464514 L581.324652,98.9702612 C580.725256,99.3023858 578.891037,100.188051 576.375537,100.188051 C569.977137,100.188051 569.357937,93.8928512 569.357937,88.629651 L569.357937,61.1784499 L581.535537,61.1784499 L581.535537,56.3280497 L569.461137,56.3280497 L569.461137,41.0544491 L563.991536,41.0544491 L563.991536,56.3280497 L556.767536,56.3280497 L556.767536,61.1784499 L563.991536,61.1784499 L563.994669,87.3170976 C564.020315,93.7654513 564.235264,96.9515237 565.745936,99.8784514 C567.500336,103.077652 570.183537,105.038452 574.827537,105.038452 C579.471537,105.038452 582.051537,103.490452 582.051537,103.490452 Z M638.811539,80.0640507 C638.811539,65.8224501 629.523539,55.2960497 615.281938,55.2960497 C608.367538,55.2960497 601.865938,58.0824498 597.221938,65.3064501 L597.221938,32.7984488 L591.855537,32.7984488 L591.855537,104.006452 L597.221938,104.006452 L597.221938,94.9248513 C601.246738,101.942452 607.851538,105.038452 615.075538,105.038452 C629.523539,105.038452 638.811539,94.2024512 638.811539,80.0640507 Z M633.135539,80.0640507 C633.135539,91.1064511 626.633939,100.188051 615.075538,100.188051 C603.413938,100.188051 597.015538,91.1064511 597.015538,80.0640507 C597.015538,68.9184502 603.413938,59.9400499 615.075538,59.9400499 C626.633939,59.9400499 633.135539,68.9184502 633.135539,80.0640507 Z M696.087542,80.2704507 C696.087542,65.8224501 685.251541,55.2960497 671.525941,55.2960497 C657.90354,55.2960497 647.06754,65.8224501 647.06754,80.2704507 C647.06754,94.7184512 657.90354,105.038452 671.525941,105.038452 C685.251541,105.038452 696.087542,94.7184512 696.087542,80.2704507 Z M690.411541,80.0640507 C690.411541,91.1064511 683.187541,100.188051 671.525941,100.188051 C659.96754,100.188051 652.74354,91.1064511 652.74354,80.0640507 C652.74354,68.9184502 659.96754,59.9400499 671.525941,59.9400499 C683.187541,59.9400499 690.411541,68.9184502 690.411541,80.0640507 Z M727.047543,98.8464514 L727.563543,103.490452 L727.329271,103.616081 C726.597333,103.984844 724.170843,105.038452 720.339543,105.038452 C715.695542,105.038452 713.012342,103.077652 711.257942,99.8784514 C709.606742,96.6792513 709.503542,93.1704512 709.503542,85.4304509 L709.503542,61.1784499 L702.279542,61.1784499 L702.279542,56.3280497 L709.503542,56.3280497 L709.503542,41.0544491 L714.973142,41.0544491 L714.973142,56.3280497 L727.047543,56.3280497 L727.047543,61.1784499 L714.869942,61.1784499 L714.871851,89.1182025 C714.913518,94.2742882 715.686016,100.188051 721.887543,100.188051 C724.983543,100.188051 727.047543,98.8464514 727.047543,98.8464514 Z" id="chatbot"></path>
                </g>
            </g>
        </g>
    </g>
</svg>