<?xml version="1.0" encoding="UTF-8"?>
<svg width="997px" height="144px" viewBox="0 0 997 144" version="1.1" xmlns="http://www.w3.org/2000/svg" xmlns:xlink="http://www.w3.org/1999/xlink">
    <title>happyfoxworkflows-logo</title>
    <g id="Page-1" stroke="none" stroke-width="1" fill="none" fill-rule="evenodd">
        <g id="Workflows" transform="translate(-462.000000, -468.000000)" fill-rule="nonzero">
            <g id="happyfoxworkflows-logo" transform="translate(462.000000, 468.000000)">
                <g id="Group" transform="translate(0.210090, 27.000001)">
                    <polygon id="Shape" fill="#FFC300" points="53.7561312 116.724205 0.0854262825 76.7347164 0.0854262825 56.7565756 30.9854125 63.7404904 53.7793428 95.5479863 76.5358761 63.7404904 107.439731 56.7565756 107.439731 56.7565756 107.447468 56.7565756 107.447468 76.7347164"></polygon>
                    <path d="M0.0854262825,10.2493869 L0.0854262825,56.7565756 L0.0918739886,56.7565756 L53.7612893,26.4858601 C53.7612893,26.4858601 13.5469469,3.01841824 10.1064509,1.63305816 C3.64455999,-1.00218096 0.0854262825,-1.39135689 0.0854262825,10.2493869 Z" id="Shape" fill="#FF8D00"></path>
                    <path d="M97.4238646,1.6343864 C93.9820794,3.01974649 53.8825061,26.4141349 53.8825061,26.4141349 L0.0918739886,56.7565756 L30.9944393,63.7404904 L53.7561312,95.5479863 L76.5603776,63.7404904 L107.447468,56.7565756 L107.447468,20.371946 L107.447468,10.2493869 C107.447468,-1.39135689 103.888335,-1.00218096 97.4238646,1.6343864 Z" id="Shape" fill="#FF4F00"></path>
                </g>
                <g id="Group" transform="translate(163.239693, 0.593548)" fill="#000000">
                    <path d="M43.9142152,75.0941095 C43.9142152,63.1122959 40.4115883,53.7813259 25.8703797,53.7813259 C18.5467052,53.7813259 13.0274143,57.7045746 10.3739091,62.6881609 L10.1616287,62.6881609 L10.1616287,31.9383734 L0.0783088306,31.9383734 L0.0783088306,105.101661 L10.1616287,105.101661 L10.1616287,80.1837297 C10.1616287,70.1105234 14.0888165,62.1579921 23.3230147,62.1579921 C32.5572128,62.1579921 33.7247552,69.3682871 33.7247552,76.5785821 L33.7247552,105.101661 L43.9142152,105.101661 L43.9142152,75.0941095 Z M94.022267,75.8363458 C94.022267,67.2476121 92.005603,63.0062621 88.6091166,59.5071483 C85.2126297,56.1140684 80.33018,53.7813259 71.9451037,53.7813259 C63.5600269,53.7813259 56.7670535,56.7502708 53.0521463,58.8709458 L56.1302124,65.6571058 C57.8284557,64.5967683 63.9845879,61.3097221 71.3082621,61.3097221 C78.6319368,61.3097221 83.8328072,65.1269371 83.8328072,72.7613672 L83.8328072,74.7760083 L70.3530003,75.3061773 C58.6775773,75.8363458 50.6109217,80.8199321 50.6109217,90.6810707 C50.6109217,100.436176 58.6775773,106.268032 68.0179159,106.268032 C77.2521139,106.268032 82.0284233,100.860311 84.0450873,98.739636 L84.1512275,105.101661 L94.022267,105.101661 L94.022267,75.8363458 Z M83.938947,91.7414082 C82.0284233,94.6043195 77.6766749,99.0577372 71.0959821,99.0577372 C64.4091485,99.0577372 60.6942413,95.1344885 60.6942413,90.3629695 C60.6942413,85.591451 63.9845879,82.0923369 72.1573842,81.6682022 L83.938947,80.925966 L83.938947,91.7414082 Z M156.867144,79.8656285 C156.867144,64.9148696 147.420666,53.7813259 132.561036,53.7813259 C125.131222,53.7813259 119.08123,56.7502708 114.623341,62.6881609 L114.411061,62.6881609 L114.411061,54.7356296 L104.646161,54.7356296 L104.646161,124.823938 L114.835621,124.823938 L114.835621,97.1491296 L114.941761,97.2551634 C118.550528,102.874952 124.38824,106.268032 132.348756,106.268032 C147.314525,106.268032 156.867144,94.8163873 156.867144,79.8656285 Z M146.465404,79.7595946 C146.465404,89.832801 140.521552,97.5732647 130.438232,97.5732647 C120.354912,97.5732647 114.411061,89.832801 114.411061,79.7595946 C114.411061,69.6863884 120.354912,62.0519584 130.438232,62.0519584 C140.521552,62.0519584 146.465404,69.6863884 146.465404,79.7595946 Z M217.270796,79.8656285 C217.270796,64.9148696 207.824317,53.7813259 192.964688,53.7813259 C185.534874,53.7813259 179.484882,56.7502708 175.026993,62.6881609 L174.814712,62.6881609 L174.814712,54.7356296 L165.049813,54.7356296 L165.049813,124.823938 L175.239273,124.823938 L175.239273,97.1491296 L175.345414,97.2551634 C178.954181,102.874952 184.791892,106.268032 192.752408,106.268032 C207.718177,106.268032 217.270796,94.8163873 217.270796,79.8656285 Z M206.869056,79.7595946 C206.869056,89.832801 200.925204,97.5732647 190.841884,97.5732647 C180.758564,97.5732647 174.814712,89.832801 174.814712,79.7595946 C174.814712,69.6863884 180.758564,62.0519584 190.841884,62.0519584 C200.925204,62.0519584 206.869056,69.6863884 206.869056,79.7595946 Z M255.915705,54.6295959 L241.056076,93.8620832 L226.090307,54.7356296 L215.476286,54.6295959 L235.642925,104.041323 L233.201701,110.72145 C230.972756,116.871407 228.743812,116.65934 226.621008,116.65934 C224.073643,116.65934 221.313997,115.492968 221.313997,115.492968 L219.297333,123.763601 C219.297333,123.763601 223.224521,125.566175 228.849952,125.566175 C234.475383,125.566175 238.614851,122.597229 242.117478,113.902462 L266.423586,54.7356296 L255.915705,54.6295959 Z" id="happy"></path>
                    <path d="M297.0629,31.7690715 C297.0629,31.7690715 294.266283,30.6000012 288.56947,30.6000012 C282.872657,30.6000012 278.936677,33.3632582 276.76153,36.1265152 C274.689962,38.7834931 273.447021,43.0346577 273.447021,49.6239628 L273.447021,54.7253603 L273.447021,62.9088522 L273.447021,105.101661 L283.286971,105.101661 L283.286971,62.9088522 L294.991332,62.9088522 L294.991332,54.7253603 L283.286971,54.7253603 L283.286971,49.0925672 C283.286971,43.353495 284.322755,38.3583766 290.848195,38.3583766 C293.644812,38.3583766 296.44143,39.3148886 296.44143,39.3148886 L297.0629,31.7690715 Z" id="f-copy"></path>
                    <path d="M347.845216,80.0778149 C347.845216,64.4909279 336.169849,53.7815701 321.20415,53.7815701 C306.132313,53.7815701 294.456945,64.4909279 294.456945,80.0778149 C294.456945,95.7707353 306.132313,106.268026 321.20415,106.268026 C336.169849,106.268026 347.845216,95.7707353 347.845216,80.0778149 Z M337.549665,79.7597154 C337.549665,89.7268401 331.287422,97.5733003 321.20415,97.5733003 C311.014739,97.5733003 304.752496,89.7268401 304.752496,79.7597154 C304.752496,69.8986234 311.014739,62.0521632 321.20415,62.0521632 C331.287422,62.0521632 337.549665,69.8986234 337.549665,79.7597154 Z M378.208179,78.5933494 L396.464208,54.7358693 L385.10726,54.7358693 L372.264356,72.8675542 L359.421451,54.7358693 L348.170643,54.7358693 L366.320532,78.5933494 L345.835569,105.101661 L357.298658,105.101661 L372.264356,84.6372447 L387.230054,105.101661 L398.693142,105.101661 L378.208179,78.5933494 Z" id="ox"></path>
                    <path d="M472.040333,56.1216497 L459.140332,96.2664513 L444.176332,56.0184497 L440.048331,56.0184497 L425.084331,96.2664513 L412.18433,56.1216497 L406.50833,56.1216497 L422.504331,104.006452 L427.148331,104.006452 L442.112331,63.75845 L457.076332,104.006452 L461.720332,104.006452 L477.716333,56.1216497 L472.040333,56.1216497 Z M532.412335,80.2704507 C532.412335,65.8224501 521.576335,55.2960497 507.850734,55.2960497 C494.228334,55.2960497 483.392333,65.8224501 483.392333,80.2704507 C483.392333,94.7184512 494.228334,105.038452 507.850734,105.038452 C521.576335,105.038452 532.412335,94.7184512 532.412335,80.2704507 Z M526.736335,80.0640507 C526.736335,91.1064511 519.512335,100.188051 507.850734,100.188051 C496.292334,100.188051 489.068333,91.1064511 489.068333,80.0640507 C489.068333,68.9184502 496.292334,59.9400499 507.850734,59.9400499 C519.512335,59.9400499 526.736335,68.9184502 526.736335,80.0640507 Z M566.468336,61.2816499 L566.984336,56.0184497 L566.680497,55.9245821 C565.999587,55.7290387 564.22124,55.2960497 561.824336,55.2960497 C556.664336,55.2960497 551.401136,58.5984498 549.646736,65.1000501 L549.646736,56.1216497 L544.280336,56.1216497 L544.280336,104.006452 L549.646736,104.006452 L549.646736,78.2064506 C549.646736,70.1005594 552.133771,66.0734052 553.005589,64.8552438 L553.194807,64.6002297 C554.168606,63.3355403 556.90249,60.4560499 561.308336,60.4560499 C563.888336,60.4560499 565.333136,60.8688499 566.468336,61.2816499 Z M591.236337,74.3880504 L610.844338,56.1216497 L604.136338,56.1216497 L581.122737,77.6904506 L581.122737,32.7984488 L575.756337,32.7984488 L575.756337,104.006452 L581.122737,104.006452 L581.122737,83.6760508 L587.624337,77.6904506 L607.232338,104.006452 L613.940338,104.006452 L591.236337,74.3880504 Z M652.64034,32.7984488 L647.17074,32.7984488 L647.17074,104.006452 L652.64034,104.006452 L652.64034,32.7984488 Z M641.804339,37.442449 L642.320339,32.7984488 L642.200197,32.7313022 C641.751338,32.502354 639.969673,31.7664487 635.612339,31.7664487 C630.578193,31.7664487 627.213909,34.7132662 625.615321,37.0611371 L625.498739,37.236049 C623.950739,39.5064491 622.712339,43.1184492 622.712339,49.8264495 L622.712339,56.3280497 L615.488338,56.3280497 L615.488338,61.1784499 L622.712339,61.1784499 L622.712339,104.006452 L628.078739,104.006452 L628.078739,61.1784499 L640.256339,61.1784499 L640.256339,56.3280497 L628.078739,56.3280497 L628.080723,48.7603856 C628.129167,42.2678093 629.116394,36.4104489 636.644339,36.4104489 C639.224339,36.4104489 641.804339,37.442449 641.804339,37.442449 Z M714.044342,80.2704507 C714.044342,65.8224501 703.208342,55.2960497 689.482741,55.2960497 C675.860341,55.2960497 665.02434,65.8224501 665.02434,80.2704507 C665.02434,94.7184512 675.860341,105.038452 689.482741,105.038452 C703.208342,105.038452 714.044342,94.7184512 714.044342,80.2704507 Z M708.368342,80.0640507 C708.368342,91.1064511 701.144342,100.188051 689.482741,100.188051 C677.924341,100.188051 670.700341,91.1064511 670.700341,80.0640507 C670.700341,68.9184502 677.924341,59.9400499 689.482741,59.9400499 C701.144342,59.9400499 708.368342,68.9184502 708.368342,80.0640507 Z M785.252345,56.1216497 L772.352345,96.2664513 L757.388344,56.0184497 L753.260344,56.0184497 L738.296343,96.2664513 L725.396343,56.1216497 L719.720343,56.1216497 L735.716343,104.006452 L740.360343,104.006452 L755.324344,63.75845 L770.288345,104.006452 L774.932345,104.006452 L790.928345,56.1216497 L785.252345,56.1216497 Z M829.318747,90.9000511 C829.318747,99.8784514 821.372347,105.038452 812.497146,105.038452 C803.621946,105.038452 798.049146,100.704051 795.056345,95.7504513 L798.874746,92.6544512 C801.970746,97.1952513 806.717946,100.188051 812.703546,100.188051 C818.689146,100.188051 823.952347,97.2984513 823.952347,91.1064511 C823.952347,85.1141928 815.930452,82.8912583 811.671647,81.4446361 L810.693941,81.1043121 C806.366988,79.5778987 798.152346,76.3847462 798.152346,68.0928502 C798.152346,59.4240498 805.685946,55.2960497 812.703546,55.2960497 C819.721146,55.2960497 824.055547,57.7728498 827.770747,62.0040499 L824.468347,65.3064501 C821.165947,61.6944499 817.863546,59.8368499 812.497146,59.8368499 C807.130746,59.8368499 803.312346,62.52005 803.312346,67.4736502 C803.312346,72.4272504 808.472346,74.5944504 814.354746,76.6584505 L815.863347,77.1834986 C821.737278,79.2638549 829.318747,82.5547967 829.318747,90.9000511 Z" id="workfows"></path>
                </g>
            </g>
        </g>
    </g>
</svg>