<svg xmlns="http://www.w3.org/2000/svg" width="180" height="30" viewBox="0 0 180 30">
    <g fill="none" fill-rule="evenodd">
        <path fill="#FFC300" d="M12.93 29.93L.07 19.675v-5.123l7.404 1.79 5.461 8.156 5.453-8.155 7.404-1.791h.002v5.123z"/>
        <path fill="#FF8D00" d="M.07 2.628v11.925h.002l12.859-7.762S3.296.774 2.471.42C.925-.257.072-.357.072 2.628z"/>
        <path fill="#FF4F00" d="M23.392.42C22.568.773 12.96 6.772 12.96 6.772L.072 14.553l7.404 1.79L12.93 24.5l5.464-8.155 7.4-1.791V2.628c0-2.985-.853-2.885-2.402-2.209z"/>
        <g>
            <path fill="#FF8D00" fill-rule="nonzero" d="M146.532 16.617s-1.297 1.63-3.662 1.63c-2.34 0-3.942-1.875-3.942-4.594 0-2.719 1.78-4.459 3.917-4.459 2.136 0 3.204 1.142 3.61 1.577l.865-1.903c-.127-.163-1.45-1.849-4.679-1.849-3.204 0-6.18 2.556-6.18 6.716 0 4.132 2.849 6.742 6.104 6.742 3.23 0 4.476-1.577 4.832-1.957l-.865-1.903zm12.857-4.133c0-3.072-.84-5.465-4.323-5.465a4.088 4.088 0 0 0-3.713 2.284h-.05V1.42h-2.417v18.76h2.416v-6.39c0-2.583.941-4.622 3.153-4.622 2.213 0 2.493 1.849 2.493 3.698v7.313h2.44v-7.694zm12.094.19c0-2.202-.483-3.29-1.297-4.187-.814-.87-1.984-1.468-3.992-1.468-2.01 0-3.637.762-4.527 1.305l.737 1.74c.407-.272 1.882-1.114 3.637-1.114 1.755 0 3 .978 3 2.936v.516l-3.229.136c-2.797.136-4.73 1.414-4.73 3.943 0 2.501 1.933 3.996 4.17 3.996 2.213 0 3.357-1.386 3.84-1.93l.026 1.631h2.365v-7.504zm-2.416 4.079c-.458.734-1.5 1.876-3.077 1.876-1.602 0-2.492-1.006-2.492-2.23 0-1.223.788-2.12 2.746-2.23l2.823-.19v2.774zm10.67 1.196s-.534.299-1.246.299c-.687 0-1.017-.245-1.246-.653-.28-.543-.305-1.277-.305-2.365V9.385h2.899V7.29h-2.9v-3.86h-2.44v3.86h-1.78v2.094h1.78v5.9c0 2.039.101 3.044.61 3.86.508.816 1.297 1.332 2.568 1.332 1.272 0 2.213-.435 2.213-.435l-.153-2.093z"/>
            <g fill="#000">
                <path fill-rule="nonzero" d="M49.632 12.484c0-3.072-.839-5.465-4.323-5.465a4.088 4.088 0 0 0-3.713 2.284h-.05V1.418H39.13v18.76h2.415V13.79c0-2.583.941-4.622 3.154-4.622 2.212 0 2.492 1.849 2.492 3.698v7.313h2.441v-7.694zm12.006.19c0-2.202-.484-3.29-1.297-4.187-.814-.87-1.984-1.468-3.993-1.468s-3.636.761-4.526 1.305l.737 1.74c.407-.272 1.882-1.114 3.637-1.114 1.754 0 3 .978 3 2.936v.516l-3.23.136c-2.797.136-4.73 1.414-4.73 3.943 0 2.501 1.933 3.996 4.171 3.996 2.213 0 3.357-1.386 3.84-1.93l.026 1.631h2.365v-7.504zm-2.416 4.079c-.458.734-1.5 1.876-3.077 1.876-1.602 0-2.492-1.006-2.492-2.23 0-1.223.788-2.12 2.746-2.23l2.823-.19v2.774zm17.473-3.046c0-3.833-2.264-6.688-5.824-6.688-1.78 0-3.23.761-4.298 2.284h-.05v-2.04h-2.34v17.972h2.441V18.14l.026.027c.864 1.441 2.263 2.311 4.17 2.311 3.586 0 5.875-2.936 5.875-6.77zm-2.492-.027c0 2.583-1.425 4.568-3.84 4.568-2.416 0-3.84-1.985-3.84-4.568 0-2.583 1.424-4.54 3.84-4.54 2.415 0 3.84 1.957 3.84 4.54zm16.964.027c0-3.833-2.263-6.688-5.824-6.688-1.78 0-3.23.761-4.297 2.284h-.051v-2.04h-2.34v17.972h2.441V18.14l.026.027c.865 1.441 2.263 2.311 4.17 2.311 3.586 0 5.875-2.936 5.875-6.77zm-2.492-.027c0 2.583-1.424 4.568-3.84 4.568s-3.84-1.985-3.84-4.568c0-2.583 1.424-4.54 3.84-4.54s3.84 1.957 3.84 4.54zm11.75-6.443l-3.56 10.06L93.28 7.263l-2.543-.027 4.832 12.67-.585 1.712c-.534 1.577-1.068 1.523-1.577 1.523-.61 0-1.271-.3-1.271-.3l-.484 2.121s.941.463 2.29.463c1.347 0 2.339-.762 3.178-2.991l5.823-15.171-2.517-.027z"/>
                <path d="M110.284 1.375s-.67-.3-2.035-.3a3.458 3.458 0 0 0-2.829 1.417c-.496.682-.794 1.772-.794 3.461v14.225h2.358V9.36h2.804V7.26h-2.804V5.817c0-1.472.248-2.752 1.811-2.752.67 0 1.34.245 1.34.245l.15-1.935z"/>
                <path fill-rule="nonzero" d="M122.451 13.762c0-3.997-2.797-6.743-6.383-6.743-3.61 0-6.408 2.746-6.408 6.743 0 4.024 2.797 6.715 6.408 6.715 3.586 0 6.383-2.691 6.383-6.715zm-2.466-.082c0 2.556-1.5 4.568-3.917 4.568-2.441 0-3.941-2.012-3.941-4.568 0-2.528 1.5-4.54 3.941-4.54 2.416 0 3.917 2.012 3.917 4.54zm9.741-.299l4.374-6.117h-2.721l-3.077 4.65-3.077-4.65h-2.696l4.349 6.117-4.908 6.797h2.746l3.586-5.247 3.586 5.247h2.746l-4.908-6.797z"/>
            </g>
        </g>
    </g>
</svg>
