<svg xmlns="http://www.w3.org/2000/svg" width="116" height="36" viewBox="0 0 116 36">
    <g fill="none" fill-rule="evenodd">
        <path fill="#000" fill-rule="nonzero" d="M58.332 27.429V21.16h-6.109v6.269H49.45V13.01h2.773v5.684h6.109V13.01h2.772V27.43h-2.772zm5.556-11.785c-.834 0-1.501-.585-1.501-1.42 0-.858.667-1.463 1.5-1.463.813 0 1.48.606 1.48 1.462 0 .836-.667 1.421-1.48 1.421zM62.616 27.43V17.337h2.502v10.092h-2.502zM75.859 17.19l.334 2.006-1.835.126c.188.397.271.856.271 1.316 0 2.173-1.855 3.469-4.024 3.469-.291 0-.563-.021-.813-.063-.25.188-.416.376-.416.543 0 .335.312.418 1.876.648l1.292.126c2.065.292 3.357.94 3.357 2.486 0 2.173-2.377 3.385-5.296 3.385-2.73 0-4.795-.836-4.795-2.507 0-.941.647-1.672 1.898-2.382-.396-.314-.584-.69-.584-1.087 0-.564.438-1.107 1.272-1.609-1.189-.564-1.898-1.61-1.898-2.946 0-2.194 1.793-3.573 4.045-3.573 1.147 0 2.126.334 2.856.94l2.46-.878zm-7.88 11.263c0 .752.897 1.295 2.794 1.295 1.793 0 2.814-.606 2.814-1.358 0-.543-.438-.856-1.688-1.045l-1.355-.167a15.036 15.036 0 0 1-1.502-.25c-.73.522-1.063 1.003-1.063 1.525zm2.585-9.716c-1.105 0-1.751.856-1.751 1.964 0 1.045.667 1.839 1.75 1.839 1.106 0 1.773-.815 1.773-1.902 0-1.086-.709-1.901-1.772-1.901zm12.743 8.692v-6.603c0-.877-.376-1.484-1.293-1.484-.792 0-1.564.502-2.293 1.275v6.812h-2.502v-14.69l2.502-.396v6.268c.834-.773 1.876-1.483 3.21-1.483 1.877 0 2.877 1.149 2.877 3.03v7.27h-2.501zm6.575-5.788v5.788H87.38V17.337h2.127l.312 2.026c.667-1.17 1.668-2.152 3.232-2.235l.396 2.486c-1.564.105-2.857.94-3.565 2.027zm5.898-5.997c-.833 0-1.5-.585-1.5-1.42 0-.858.666-1.463 1.5-1.463.813 0 1.48.606 1.48 1.462 0 .836-.667 1.421-1.48 1.421zM94.51 27.43V17.337h2.501v10.092H94.51zm7.504.188c-1.46 0-2.96-.46-3.919-.982l.333-2.09c1.084.711 2.419 1.192 3.67 1.192 1.084 0 1.668-.398 1.668-1.045 0-.71-.438-1.003-2.044-1.4-2.439-.627-3.46-1.338-3.46-3.176 0-1.735 1.376-2.968 3.71-2.968 1.314 0 2.523.251 3.524.71l-.333 2.09c-1.001-.564-2.19-.919-3.19-.919-.939 0-1.397.355-1.397.92 0 .543.375.835 1.876 1.232 2.606.669 3.628 1.379 3.628 3.28 0 1.986-1.418 3.156-4.066 3.156zm13.842-4.743h-6.463c.125 1.964 1.167 2.821 2.71 2.821 1.293 0 2.356-.48 3.46-1.254l.293 1.964c-1.084.752-2.398 1.233-4.024 1.233-2.814 0-4.92-1.61-4.92-5.245 0-3.28 1.96-5.265 4.586-5.265 3.024 0 4.379 2.277 4.379 5.14 0 .209-.02.46-.02.606zm-4.42-4.012c-1 0-1.813.794-2.001 2.445h4.003c-.167-1.567-.792-2.445-2.001-2.445z"/>
        <path fill="#ABDEFF" d="M21.64 0C10.029 0 .934 14.793.074 27.288 3.716 33.618 12.502 36 21.64 36c9.137 0 17.924-2.381 21.566-8.712C42.345 14.793 33.25 0 21.64 0z"/>
        <path fill="#17C66C" d="M40.32 25.848c-1.84 4.491-8.354 7.005-18.68 7.26-10.327-.255-17.022-2.899-18.647-7.39 0-2.246 8.014-6.138 18.647-6.327 10.633.19 18.68 4.285 18.68 6.457z"/>
        <path fill="#A8A382" d="M34.034 12.549l-4.405-1.085-4.117.965v13.86l4.052 1.359 4.46-1.924z"/>
        <path fill="#CAC49D" d="M25.512 26.288l4.052 1.36.03-14.31h-.156l-3.926-.909z"/>
        <path fill="#F8F3C9" d="M34.034 12.549l-4.405 1.084-4.117-1.204 4.117-.965z"/>
        <path fill="#A8A382" d="M18.055 18.733l-4.405-4-4.405 1.728v9.206l4.37 2.1 4.44-1.36z"/>
        <path fill="#CAC49D" d="M9.246 25.667l4.37 2.1V17.08l-.156-2.27-4.215-.79z"/>
        <path fill="#F8F3C9" d="M18.055 16.29l-4.405 1.728-4.405-4 4.405-1.727z"/>
        <path fill="#5C98B0" d="M26.88 8.335l-5.24-1.38-5.24 1.38-1.28 20.128 6.469 2.324 6.546-2.49z"/>
        <path fill="#88C6DE" d="M15.12 28.463l6.469 2.324.01-23.746h-.186l-5.014 1.294z"/>
        <path fill="#DEF3FF" d="M26.88 8.335l-5.24 1.381-5.24-1.381 5.24-1.38z"/>
        <path fill="#5C98B0" d="M20.173 3.805c0-.058.049-.103.108-.103.06 0 .108.045.108.103v2.612c.078.038.131.115.131.204V8.71c0 .126-.107.229-.24.229a.234.234 0 0 1-.238-.23V6.622c0-.09.053-.167.131-.205v-2.61zM22.803 2.736c0-.058.048-.104.108-.104s.108.046.108.104v2.612c.078.038.131.115.131.204V7.64c0 .127-.107.23-.24.23a.234.234 0 0 1-.238-.23V5.552c0-.09.053-.167.131-.205V2.736z"/>
    </g>
</svg>
