<?xml version="1.0" encoding="UTF-8"?>
<svg width="158px" height="80px" viewBox="0 0 158 80" version="1.1" xmlns="http://www.w3.org/2000/svg" xmlns:xlink="http://www.w3.org/1999/xlink">
    <!-- Generator: Sketch 51.3 (57544) - http://www.bohemiancoding.com/sketch -->
    <title>jabraGN@1x</title>
    <desc>Created with Sketch.</desc>
    <defs></defs>
    <g id="jabraGN" stroke="none" stroke-width="1" fill="none" fill-rule="evenodd">
        <g fill-rule="nonzero">
            <rect id="Rectangle" x="0" y="0" width="158" height="80"></rect>
            <g id="jabra-logo-vector" transform="translate(20.000000, 20.000000)">
                <path d="M35.8739958,18.8074534 C33.1298097,18.8074534 33.1298097,19.4534161 33.1298097,19.7515528 L33.1298097,20.2732919 C33.1298097,20.5465839 33.1298097,21.1925466 35.8739958,21.1925466 C38.6181818,21.1925466 38.6181818,20.5465839 38.6181818,20.2732919 L38.6181818,19.7515528 C38.5932347,19.4534161 38.5932347,18.8074534 35.8739958,18.8074534 Z" id="Shape" fill="#FFD100"></path>
                <path d="M52.5885835,20.2484472 L52.5885835,16.0745342 C52.5885835,15.8012422 52.5885835,15.1552795 49.8443975,15.1552795 C47.1002114,15.1552795 47.1002114,15.8012422 47.1002114,16.0745342 L47.1002114,20.2484472 C47.1002114,20.5217391 47.1002114,21.1677019 49.8443975,21.1677019 C52.5885835,21.1677019 52.5885835,20.5217391 52.5885835,20.2484472 Z" id="Shape" fill="#FFD100"></path>
                <path d="M70.8249471,21.1925466 C73.5691332,21.1925466 73.5691332,20.5465839 73.5691332,20.2732919 L73.5691332,19.7515528 C73.5691332,19.4782609 73.5691332,18.8074534 70.8249471,18.8074534 C68.0807611,18.8074534 68.0807611,19.4534161 68.0807611,19.7515528 L68.0807611,20.2732919 C68.0807611,20.5465839 68.0807611,21.1925466 70.8249471,21.1925466 Z" id="Shape" fill="#FFD100"></path>
                <path d="M115.405497,0 L2.51966173,0 C1.12262156,0 0,1.11801242 0,2.50931677 L0,37.4906832 C0,38.8819876 1.12262156,40 2.51966173,40 L115.405497,40 C116.802537,40 117.925159,38.8819876 117.925159,37.4906832 L117.925159,2.50931677 C117.900211,1.11801242 116.77759,0 115.405497,0 Z M65.1120507,19.2546584 C65.1120507,18.6086957 65.1120507,17.3416149 70.8,17.3416149 C71.9226216,17.3416149 72.8207188,17.3913043 73.544186,17.4658385 L73.544186,16.0745342 C73.544186,15.8012422 73.544186,15.1552795 70.8,15.1552795 C68.2803383,15.1552795 68.2803383,15.8012422 68.2803383,16.0745342 C68.2803383,16.2732919 68.1306554,16.4223602 67.9310782,16.4223602 L65.6608879,16.4223602 C65.4613108,16.4223602 65.3116279,16.2732919 65.3116279,16.0745342 L65.3116279,15.6024845 C65.3116279,14.9565217 65.3116279,13.689441 70.8,13.689441 C76.4879493,13.689441 76.4879493,14.9565217 76.4879493,15.6024845 L76.4879493,20.7453416 C76.4879493,21.3913043 76.4879493,22.6583851 70.8,22.6583851 C65.1120507,22.6583851 65.1120507,21.3913043 65.1120507,20.7453416 L65.1120507,19.2546584 Z M17.5627907,29.7888199 C17.5627907,29.9130435 17.4630021,29.9875776 17.3632135,29.9875776 L16.5150106,29.9875776 C16.3902748,29.9875776 16.3154334,29.8881988 16.3154334,29.7888199 L16.3154334,27.7018634 C16.3154334,27.5776398 16.415222,27.5031056 16.5150106,27.5031056 L17.3632135,27.5031056 C17.4879493,27.5031056 17.5627907,27.6024845 17.5627907,27.7018634 L17.5627907,29.7888199 Z M21.7788584,29.7639752 C21.7788584,29.8881988 21.6790698,29.9875776 21.554334,29.9875776 L20.5813953,29.9875776 C20.4566596,29.9875776 20.356871,29.8881988 20.356871,29.7639752 L20.356871,27.7018634 C20.356871,27.5776398 20.4566596,27.4782609 20.5813953,27.4782609 L21.554334,27.4782609 C21.6790698,27.4782609 21.7788584,27.5776398 21.7788584,27.7018634 L21.7788584,29.7639752 Z M26.0198732,29.7639752 C26.0198732,29.8881988 25.9200846,29.9875776 25.7953488,29.9875776 L24.6727273,29.9875776 C24.5479915,29.9875776 24.448203,29.8881988 24.448203,29.7639752 L24.448203,27.7267081 C24.448203,27.6024845 24.5479915,27.5031056 24.6727273,27.5031056 L25.7953488,27.5031056 C25.9200846,27.5031056 26.0198732,27.6024845 26.0198732,27.7267081 L26.0198732,29.7639752 Z M27.6913319,20.7453416 C27.6913319,21.3913043 27.6913319,22.6583851 22.0033827,22.6583851 C16.3154334,22.6583851 16.3154334,21.3913043 16.3154334,20.7453416 L16.3154334,19.8757764 C16.3154334,19.6770186 16.4651163,19.5279503 16.6646934,19.5279503 L18.9348837,19.5279503 C19.1344609,19.5279503 19.2841438,19.6770186 19.2841438,19.8757764 L19.2841438,20.3229814 C19.2841438,20.621118 19.3839323,21.2173913 22.0283298,21.2173913 C24.7725159,21.2173913 24.7725159,20.5714286 24.7725159,20.2981366 L24.7725159,10.3850932 C24.7725159,10.1863354 24.9221987,10.0372671 25.1217759,10.0372671 L27.3919662,10.0372671 C27.5915433,10.0372671 27.7412262,10.1863354 27.7412262,10.3850932 L27.6913319,20.7453416 Z M30.2608879,29.7391304 C30.2608879,29.863354 30.1610994,29.9627329 30.0363636,29.9627329 L28.7890063,29.9627329 C28.6642706,29.9627329 28.564482,29.863354 28.564482,29.7391304 L28.564482,27.7018634 C28.564482,27.5776398 28.6642706,27.4782609 28.7890063,27.4782609 L30.0363636,27.4782609 C30.1610994,27.4782609 30.2608879,27.5776398 30.2608879,27.7018634 L30.2608879,29.7391304 Z M34.4769556,29.7391304 C34.4769556,29.863354 34.377167,29.9875776 34.2274841,29.9875776 L32.830444,29.9875776 C32.7057082,29.9875776 32.5809725,29.8881988 32.5809725,29.7391304 L32.5809725,27.7267081 C32.5809725,27.6024845 32.6807611,27.4782609 32.830444,27.4782609 L34.2274841,27.4782609 C34.3522199,27.4782609 34.4769556,27.5776398 34.4769556,27.7267081 L34.4769556,29.7391304 Z M30.1610994,20.7453416 L30.1610994,19.2546584 C30.1610994,18.6086957 30.1610994,17.3416149 35.8490486,17.3416149 C36.9716702,17.3416149 37.8697674,17.3913043 38.5932347,17.4658385 L38.5932347,16.0745342 C38.5932347,15.8012422 38.5932347,15.1552795 35.8490486,15.1552795 C33.3044397,15.1552795 33.3044397,15.8012422 33.3044397,16.0745342 C33.3044397,16.2732919 33.1547569,16.4223602 32.9551797,16.4223602 L30.6849894,16.4223602 C30.4854123,16.4223602 30.3357294,16.2732919 30.3357294,16.0745342 L30.3357294,15.6024845 C30.3357294,14.9565217 30.3357294,13.689441 35.8241015,13.689441 C41.5120507,13.689441 41.5120507,14.9565217 41.5120507,15.6024845 L41.5120507,20.7453416 C41.5120507,21.3913043 41.5120507,22.6583851 35.8241015,22.6583851 C30.1610994,22.6583851 30.1610994,21.3913043 30.1610994,20.7453416 Z M38.7179704,29.7391304 C38.7179704,29.8881988 38.5932347,29.9875776 38.4684989,29.9875776 L36.946723,29.9875776 C36.7970402,29.9875776 36.6972516,29.863354 36.6972516,29.7391304 L36.6972516,27.7515528 C36.6972516,27.6024845 36.8219873,27.5031056 36.946723,27.5031056 L38.4684989,27.5031056 C38.6181818,27.5031056 38.7179704,27.6273292 38.7179704,27.7515528 L38.7179704,29.7391304 Z M42.9589852,29.7142857 C42.9589852,29.863354 42.8342495,29.9875776 42.6845666,29.9875776 L41.0131078,29.9875776 C40.8634249,29.9875776 40.7386892,29.863354 40.7386892,29.7142857 L40.7386892,27.7515528 C40.7386892,27.6024845 40.8634249,27.4782609 41.0131078,27.4782609 L42.6845666,27.4782609 C42.8342495,27.4782609 42.9589852,27.6024845 42.9589852,27.7515528 L42.9589852,29.7142857 Z M44.1564482,20.7204969 L44.1564482,10.3602484 C44.1564482,10.1614907 44.3061311,10.0124224 44.5057082,10.0124224 L46.7758985,10.0124224 C46.9754757,10.0124224 47.1251586,10.1614907 47.1251586,10.3602484 L47.1251586,13.7888199 C47.8486258,13.7142857 48.746723,13.6645963 49.8693446,13.6645963 C55.5572939,13.6645963 55.5572939,14.931677 55.5572939,15.5776398 L55.5572939,20.7204969 C55.5572939,21.3664596 55.5572939,22.6335404 49.8693446,22.6335404 C44.1564482,22.6583851 44.1564482,21.3664596 44.1564482,20.7204969 Z M47.1750529,29.7142857 C47.1750529,29.863354 47.0503171,29.9875776 46.9006342,29.9875776 L45.1044397,29.9875776 C44.9547569,29.9875776 44.8300211,29.863354 44.8300211,29.7142857 L44.8300211,27.7515528 C44.8300211,27.6024845 44.9547569,27.4782609 45.1044397,27.4782609 L46.9006342,27.4782609 C47.0503171,27.4782609 47.1750529,27.6024845 47.1750529,27.7515528 L47.1750529,29.7142857 Z M51.4160677,29.689441 C51.4160677,29.8385093 51.2913319,29.9627329 51.141649,29.9627329 L49.1957717,29.9627329 C49.0460888,29.9627329 48.9213531,29.8385093 48.9213531,29.689441 L48.9213531,27.7515528 C48.9213531,27.6024845 49.0460888,27.4782609 49.1957717,27.4782609 L51.141649,27.4782609 C51.2913319,27.4782609 51.4160677,27.6024845 51.4160677,27.7515528 L51.4160677,29.689441 Z M55.6570825,29.689441 C55.6570825,29.863354 55.5323467,29.9875776 55.3577167,29.9875776 L53.2871036,29.9875776 C53.1124736,29.9875776 52.9877378,29.863354 52.9877378,29.689441 L52.9877378,27.7763975 C52.9877378,27.6024845 53.1124736,27.4782609 53.2871036,27.4782609 L55.3577167,27.4782609 C55.5323467,27.4782609 55.6570825,27.6024845 55.6570825,27.7763975 L55.6570825,29.689441 Z M59.8980973,29.689441 C59.8980973,29.863354 59.7733615,29.9875776 59.5987315,29.9875776 L57.3784355,29.9875776 C57.2038055,29.9875776 57.0790698,29.863354 57.0790698,29.689441 L57.0790698,27.8012422 C57.0790698,27.6273292 57.2038055,27.5031056 57.3784355,27.5031056 L59.5737844,27.5031056 C59.7484144,27.5031056 59.8731501,27.6273292 59.8731501,27.8012422 L59.8731501,29.689441 L59.8980973,29.689441 Z M61.0955603,22.1118012 C61.0955603,22.310559 60.9458774,22.4596273 60.7463002,22.4596273 L58.4761099,22.4596273 C58.2765328,22.4596273 58.1268499,22.310559 58.1268499,22.1118012 L58.1268499,15.6024845 C58.1268499,14.9565217 58.1268499,13.689441 63.8147992,13.689441 C64.0143763,13.689441 64.1640592,13.8385093 64.1640592,14.0372671 L64.1640592,14.8074534 C64.1640592,15.0062112 64.0143763,15.1552795 63.8147992,15.1552795 C61.0706131,15.1552795 61.0706131,15.8012422 61.0706131,16.0745342 L61.0706131,22.1118012 L61.0955603,22.1118012 Z M91.4063425,29.4409938 C91.4063425,29.7391304 91.156871,29.9875776 90.8575053,29.9875776 L61.6942918,29.9875776 C61.394926,29.9875776 61.1454545,29.7391304 61.1454545,29.4409938 L61.1454545,28.0496894 C61.1454545,27.7515528 61.394926,27.5031056 61.6942918,27.5031056 L90.8575053,27.5031056 C91.156871,27.5031056 91.4063425,27.7515528 91.4063425,28.0496894 L91.4063425,29.4409938 Z M91.4312896,17.9130435 C91.4312896,18.310559 91.1069767,18.6335404 90.7078224,18.6335404 L87.0655391,18.6335404 C84.5957717,18.6335404 82.6,16.5714286 82.7247357,14.0869565 C82.8245243,11.7763975 84.7953488,9.96273292 87.1403805,9.96273292 L90.7078224,9.96273292 C91.1069767,9.96273292 91.4312896,10.2857143 91.4312896,10.7080745 C91.4312896,11.1055901 91.0820296,11.4285714 90.6828753,11.4285714 L87.0655391,11.4285714 C85.5188161,11.4285714 84.2465116,12.6459627 84.1716702,14.1614907 C84.0718816,15.826087 85.4439746,17.2173913 87.1154334,17.2173913 L89.784778,17.2173913 C89.8845666,17.2173913 89.959408,17.1428571 89.959408,17.0434783 L89.959408,15.2298137 C89.959408,15.1304348 89.8845666,15.0559006 89.784778,15.0559006 L88.5124736,15.0559006 C88.1133192,15.0559006 87.7890063,14.7329193 87.7890063,14.310559 C87.7890063,13.9130435 88.1382664,13.5900621 88.5374207,13.5900621 L90.6828753,13.5900621 C91.0820296,13.5900621 91.4063425,13.9130435 91.4063425,14.310559 L91.4063425,17.9130435 L91.4312896,17.9130435 Z M101.559831,17.8881988 C101.559831,18.136646 101.435095,18.4099379 101.210571,18.5341615 C101.085835,18.6086957 100.961099,18.6335404 100.836364,18.6335404 C100.636786,18.6335404 100.462156,18.5590062 100.312474,18.4099379 L94.5496829,12.6708075 C94.4748414,12.5962733 94.3251586,12.6459627 94.3251586,12.7701863 L94.3251586,17.8881988 C94.3251586,18.2857143 94.0008457,18.6335404 93.6016913,18.6335404 C93.202537,18.6335404 92.853277,18.310559 92.853277,17.9130435 L92.853277,10.7080745 C92.853277,10.4596273 92.9780127,10.2111801 93.202537,10.0869565 C93.5019027,9.91304348 93.8761099,9.96273292 94.1006342,10.1863354 L99.8883721,15.9503106 C99.9632135,16.0248447 100.112896,15.9751553 100.112896,15.8509317 L100.112896,10.7080745 C100.112896,10.310559 100.437209,9.96273292 100.811416,9.96273292 C101.210571,9.96273292 101.559831,10.2857143 101.559831,10.6832298 L101.559831,17.8881988 Z" id="Shape" fill="#FFD100"></path>
                <path d="M63.8397463,15.1552795 C64.0393235,15.1552795 64.1890063,15.0062112 64.1890063,14.8074534 L64.1890063,14.0372671 C64.1890063,13.8385093 64.0393235,13.689441 63.8397463,13.689441 C58.151797,13.689441 58.151797,14.9565217 58.151797,15.6024845 L58.151797,22.1118012 C58.151797,22.310559 58.3014799,22.4596273 58.5010571,22.4596273 L60.7712474,22.4596273 C60.9708245,22.4596273 61.1205074,22.310559 61.1205074,22.1118012 L61.1205074,16.0745342 C61.0955603,15.8012422 61.0955603,15.1552795 63.8397463,15.1552795 Z" id="Shape" fill="#212721"></path>
                <path d="M41.561945,20.7453416 L41.561945,15.6024845 C41.561945,14.9565217 41.561945,13.689441 35.8739958,13.689441 C30.3856237,13.689441 30.3856237,14.9565217 30.3856237,15.6024845 L30.3856237,16.0745342 C30.3856237,16.2732919 30.5353066,16.4223602 30.7348837,16.4223602 L33.005074,16.4223602 C33.2046512,16.4223602 33.354334,16.2732919 33.354334,16.0745342 C33.354334,15.8012422 33.354334,15.1552795 35.8989429,15.1552795 C38.643129,15.1552795 38.643129,15.8012422 38.643129,16.0745342 L38.643129,17.4658385 C37.9196617,17.3913043 37.0215645,17.3416149 35.8989429,17.3416149 C30.2109937,17.3416149 30.2109937,18.6086957 30.2109937,19.2546584 L30.2109937,20.7453416 C30.2109937,21.3913043 30.2109937,22.6583851 35.8989429,22.6583851 C41.561945,22.6583851 41.561945,21.3913043 41.561945,20.7453416 Z M38.5932347,20.2484472 C38.5932347,20.5217391 38.5932347,21.1677019 35.8490486,21.1677019 C33.1048626,21.1677019 33.1048626,20.5217391 33.1048626,20.2484472 L33.1048626,19.7267081 C33.1048626,19.4534161 33.1048626,18.7826087 35.8490486,18.7826087 C38.5932347,18.7826087 38.5932347,19.4285714 38.5932347,19.7267081 L38.5932347,20.2484472 Z" id="Shape" fill="#212721"></path>
                <path d="M55.5323467,20.7204969 L55.5323467,15.6024845 C55.5323467,14.9565217 55.5323467,13.689441 49.8443975,13.689441 C48.7217759,13.689441 47.8236786,13.7391304 47.1002114,13.8136646 L47.1002114,10.3602484 C47.1002114,10.1614907 46.9505285,10.0124224 46.7509514,10.0124224 L44.4807611,10.0124224 C44.2811839,10.0124224 44.1315011,10.1614907 44.1315011,10.3602484 L44.1315011,20.7204969 C44.1315011,21.3664596 44.1315011,22.6335404 49.8194503,22.6335404 C55.5323467,22.6583851 55.5323467,21.3664596 55.5323467,20.7204969 Z M47.1251586,20.2484472 L47.1251586,16.0745342 C47.1251586,15.8012422 47.1251586,15.1552795 49.8693446,15.1552795 C52.6135307,15.1552795 52.6135307,15.8012422 52.6135307,16.0745342 L52.6135307,20.2484472 C52.6135307,20.5217391 52.6135307,21.1677019 49.8693446,21.1677019 C47.1251586,21.1677019 47.1251586,20.5217391 47.1251586,20.2484472 Z" id="Shape" fill="#212721"></path>
                <path d="M70.8249471,22.6583851 C76.5128964,22.6583851 76.5128964,21.3913043 76.5128964,20.7453416 L76.5128964,15.6024845 C76.5128964,14.9565217 76.5128964,13.689441 70.8249471,13.689441 C65.3365751,13.689441 65.3365751,14.9565217 65.3365751,15.6024845 L65.3365751,16.0745342 C65.3365751,16.2732919 65.4862579,16.4223602 65.6858351,16.4223602 L67.9560254,16.4223602 C68.1556025,16.4223602 68.3052854,16.2732919 68.3052854,16.0745342 C68.3052854,15.8012422 68.3052854,15.1552795 70.8249471,15.1552795 C73.5691332,15.1552795 73.5691332,15.8012422 73.5691332,16.0745342 L73.5691332,17.4658385 C72.845666,17.3913043 71.9475687,17.3416149 70.8249471,17.3416149 C65.1369979,17.3416149 65.1369979,18.6086957 65.1369979,19.2546584 L65.1369979,20.7453416 C65.1120507,21.3913043 65.1120507,22.6583851 70.8249471,22.6583851 Z M68.0807611,19.7267081 C68.0807611,19.4534161 68.0807611,18.7826087 70.8249471,18.7826087 C73.5691332,18.7826087 73.5691332,19.4285714 73.5691332,19.7267081 L73.5691332,20.2484472 C73.5691332,20.5217391 73.5691332,21.1677019 70.8249471,21.1677019 C68.0807611,21.1677019 68.0807611,20.5217391 68.0807611,20.2484472 L68.0807611,19.7267081 Z" id="Shape" fill="#212721"></path>
                <path d="M27.3171247,10.0372671 L25.0469345,10.0372671 C24.8473573,10.0372671 24.6976744,10.1863354 24.6976744,10.3850932 L24.6976744,20.2732919 C24.6976744,20.5465839 24.6976744,21.1925466 21.9534884,21.1925466 C19.3340381,21.1925466 19.2342495,20.5962733 19.2093023,20.2981366 L19.2093023,19.8509317 C19.2093023,19.6521739 19.0596195,19.5031056 18.8600423,19.5031056 L16.589852,19.5031056 C16.3902748,19.5031056 16.240592,19.6521739 16.240592,19.8509317 L16.240592,20.7204969 C16.240592,21.3664596 16.240592,22.6335404 21.9285412,22.6335404 C27.6164905,22.6335404 27.6164905,21.3664596 27.6164905,20.7204969 L27.6164905,10.3602484 C27.6913319,10.1863354 27.5167019,10.0372671 27.3171247,10.0372671 Z" id="Shape" fill="#212721"></path>
                <path d="M17.3382664,27.4782609 L16.4900634,27.4782609 C16.3653277,27.4782609 16.2904863,27.5776398 16.2904863,27.6770186 L16.2904863,29.7639752 C16.2904863,29.8881988 16.3902748,29.9627329 16.4900634,29.9627329 L17.3382664,29.9627329 C17.4630021,29.9627329 17.5378436,29.863354 17.5378436,29.7639752 L17.5378436,27.6770186 C17.5627907,27.5776398 17.4630021,27.4782609 17.3382664,27.4782609 Z" id="Shape" fill="#212721"></path>
                <path d="M21.5792812,27.4782609 L20.6063425,27.4782609 C20.4816068,27.4782609 20.3818182,27.5776398 20.3818182,27.7018634 L20.3818182,29.7639752 C20.3818182,29.8881988 20.4816068,29.9875776 20.6063425,29.9875776 L21.5792812,29.9875776 C21.7040169,29.9875776 21.8038055,29.8881988 21.8038055,29.7639752 L21.8038055,27.7018634 C21.7788584,27.5776398 21.6790698,27.4782609 21.5792812,27.4782609 Z" id="Shape" fill="#212721"></path>
                <path d="M25.7953488,27.4782609 L24.6727273,27.4782609 C24.5479915,27.4782609 24.448203,27.5776398 24.448203,27.7018634 L24.448203,29.7391304 C24.448203,29.863354 24.5479915,29.9627329 24.6727273,29.9627329 L25.7953488,29.9627329 C25.9200846,29.9627329 26.0198732,29.863354 26.0198732,29.7391304 L26.0198732,27.7018634 C26.0198732,27.5776398 25.9200846,27.4782609 25.7953488,27.4782609 Z" id="Shape" fill="#212721"></path>
                <path d="M30.0114165,27.4782609 L28.7640592,27.4782609 C28.6393235,27.4782609 28.5395349,27.5776398 28.5395349,27.7018634 L28.5395349,29.7391304 C28.5395349,29.863354 28.6393235,29.9627329 28.7640592,29.9627329 L30.0114165,29.9627329 C30.1361522,29.9627329 30.2359408,29.863354 30.2359408,29.7391304 L30.2359408,27.7018634 C30.2608879,27.5776398 30.1361522,27.4782609 30.0114165,27.4782609 Z" id="Shape" fill="#212721"></path>
                <path d="M34.2524313,27.4782609 L32.8553911,27.4782609 C32.7306554,27.4782609 32.6059197,27.5776398 32.6059197,27.7267081 L32.6059197,29.7391304 C32.6059197,29.863354 32.7057082,29.9875776 32.8553911,29.9875776 L34.2524313,29.9875776 C34.377167,29.9875776 34.5019027,29.8881988 34.5019027,29.7391304 L34.5019027,27.7267081 C34.4769556,27.6024845 34.377167,27.4782609 34.2524313,27.4782609 Z" id="Shape" fill="#212721"></path>
                <path d="M38.4684989,27.4782609 L36.946723,27.4782609 C36.7970402,27.4782609 36.6972516,27.6024845 36.6972516,27.7267081 L36.6972516,29.7142857 C36.6972516,29.863354 36.8219873,29.9627329 36.946723,29.9627329 L38.4684989,29.9627329 C38.6181818,29.9627329 38.7179704,29.8385093 38.7179704,29.7142857 L38.7179704,27.7267081 C38.7179704,27.6024845 38.5932347,27.4782609 38.4684989,27.4782609 Z" id="Shape" fill="#212721"></path>
                <path d="M42.6845666,27.4782609 L41.0131078,27.4782609 C40.8634249,27.4782609 40.7386892,27.6024845 40.7386892,27.7515528 L40.7386892,29.7142857 C40.7386892,29.863354 40.8634249,29.9875776 41.0131078,29.9875776 L42.6845666,29.9875776 C42.8342495,29.9875776 42.9589852,29.863354 42.9589852,29.7142857 L42.9589852,27.7515528 C42.9589852,27.6024845 42.8342495,27.4782609 42.6845666,27.4782609 Z" id="Shape" fill="#212721"></path>
                <path d="M46.9006342,27.4782609 L45.1044397,27.4782609 C44.9547569,27.4782609 44.8300211,27.6024845 44.8300211,27.7515528 L44.8300211,29.7142857 C44.8300211,29.863354 44.9547569,29.9875776 45.1044397,29.9875776 L46.9006342,29.9875776 C47.0503171,29.9875776 47.1750529,29.863354 47.1750529,29.7142857 L47.1750529,27.7515528 C47.1750529,27.6024845 47.0752643,27.4782609 46.9006342,27.4782609 Z" id="Shape" fill="#212721"></path>
                <path d="M51.141649,27.4782609 L49.1957717,27.4782609 C49.0460888,27.4782609 48.9213531,27.6024845 48.9213531,27.7515528 L48.9213531,29.689441 C48.9213531,29.8385093 49.0460888,29.9627329 49.1957717,29.9627329 L51.141649,29.9627329 C51.2913319,29.9627329 51.4160677,29.8385093 51.4160677,29.689441 L51.4160677,27.7515528 C51.4160677,27.6024845 51.2913319,27.4782609 51.141649,27.4782609 Z" id="Shape" fill="#212721"></path>
                <path d="M55.3577167,27.4782609 L53.2871036,27.4782609 C53.1124736,27.4782609 52.9877378,27.6024845 52.9877378,27.7763975 L52.9877378,29.689441 C52.9877378,29.863354 53.1124736,29.9875776 53.2871036,29.9875776 L55.3577167,29.9875776 C55.5323467,29.9875776 55.6570825,29.863354 55.6570825,29.689441 L55.6570825,27.7763975 C55.6570825,27.6273292 55.5323467,27.4782609 55.3577167,27.4782609 Z" id="Shape" fill="#212721"></path>
                <path d="M59.5737844,27.4782609 L57.3784355,27.4782609 C57.2038055,27.4782609 57.0790698,27.6024845 57.0790698,27.7763975 L57.0790698,29.6645963 C57.0790698,29.8385093 57.2038055,29.9627329 57.3784355,29.9627329 L59.5737844,29.9627329 C59.7484144,29.9627329 59.8731501,29.8385093 59.8731501,29.6645963 L59.8731501,27.7763975 C59.8980973,27.6273292 59.7484144,27.4782609 59.5737844,27.4782609 Z" id="Shape" fill="#212721"></path>
                <path d="M90.8575053,27.4782609 L61.6942918,27.4782609 C61.394926,27.4782609 61.1454545,27.7267081 61.1454545,28.0248447 L61.1454545,29.4161491 C61.1454545,29.7142857 61.394926,29.9627329 61.6942918,29.9627329 L90.8575053,29.9627329 C91.156871,29.9627329 91.4063425,29.7142857 91.4063425,29.4161491 L91.4063425,28.0248447 C91.4063425,27.7267081 91.156871,27.4782609 90.8575053,27.4782609 Z" id="Shape" fill="#212721"></path>
                <path d="M100.836364,9.96273292 C100.437209,9.96273292 100.137844,10.310559 100.137844,10.7080745 L100.137844,15.826087 C100.137844,15.9503106 99.9881607,16 99.9133192,15.9254658 L94.1006342,10.1863354 C93.8761099,9.96273292 93.5019027,9.91304348 93.202537,10.0869565 C92.9780127,10.2111801 92.853277,10.4596273 92.853277,10.7080745 L92.853277,17.9130435 C92.853277,18.310559 93.1775899,18.6335404 93.6016913,18.6335404 C94.0008457,18.6335404 94.3251586,18.2857143 94.3251586,17.8881988 L94.3251586,12.7701863 C94.3251586,12.6459627 94.4748414,12.5962733 94.5496829,12.6708075 L100.337421,18.4347826 C100.487104,18.5838509 100.661734,18.6583851 100.861311,18.6583851 C100.986047,18.6583851 101.110782,18.6335404 101.235518,18.5590062 C101.460042,18.4347826 101.584778,18.1863354 101.584778,17.9130435 L101.584778,10.6832298 C101.559831,10.2857143 101.235518,9.96273292 100.836364,9.96273292 Z" id="Shape" fill="#212721"></path>
                <path d="M90.6828753,13.5900621 L88.5374207,13.5900621 C88.1382664,13.5900621 87.7890063,13.9130435 87.7890063,14.310559 C87.7890063,14.7080745 88.1133192,15.0559006 88.5124736,15.0559006 L89.784778,15.0559006 C89.8845666,15.0559006 89.959408,15.1304348 89.959408,15.2298137 L89.959408,17.0434783 C89.959408,17.1428571 89.8845666,17.2173913 89.784778,17.2173913 L87.1154334,17.2173913 C85.4190275,17.2173913 84.0718816,15.8509317 84.1716702,14.1614907 C84.2465116,12.6459627 85.5188161,11.4285714 87.0655391,11.4285714 L90.6579281,11.4285714 C91.0570825,11.4285714 91.4063425,11.1055901 91.4063425,10.7080745 C91.4063425,10.310559 91.0820296,9.96273292 90.6828753,9.96273292 L87.1154334,9.96273292 C84.7953488,9.96273292 82.8245243,11.7763975 82.6997886,14.0869565 C82.5750529,16.5714286 84.5708245,18.6335404 87.040592,18.6335404 L90.6579281,18.6335404 C91.0570825,18.6335404 91.3813953,18.310559 91.3813953,17.9130435 L91.3813953,14.310559 C91.4312896,13.9130435 91.1069767,13.5900621 90.6828753,13.5900621 Z" id="Shape" fill="#212721"></path>
            </g>
        </g>
    </g>
</svg>