<svg xmlns="http://www.w3.org/2000/svg" width="72" height="26" viewBox="0 0 72 26">
    <defs>
        <linearGradient id="a" x1="91.867%" x2="28.264%" y1="40.328%" y2="81.66%">
            <stop offset="18%" stop-color="#0052CC"/>
            <stop offset="100%" stop-color="#2684FF"/>
        </linearGradient>
        <linearGradient id="b" x1="8.71%" x2="72.243%" y1="59.166%" y2="17.99%">
            <stop offset="18%" stop-color="#0052CC"/>
            <stop offset="100%" stop-color="#2684FF"/>
        </linearGradient>
    </defs>
    <g fill="none" fill-rule="nonzero">
        <path fill="#253858" d="M36.94 3.079h2.677v13.753c0 3.643-1.575 6.157-5.267 6.157a9.409 9.409 0 0 1-3.21-.513v-2.634c.88.346 1.819.52 2.764.513 2.262 0 3.042-1.368 3.042-3.342L36.94 3.079zM44.495 2.022c.483-.035.957.144 1.3.49.342.347.519.827.484 1.316 0 .998-.799 1.806-1.784 1.806a1.796 1.796 0 0 1-1.785-1.806 1.702 1.702 0 0 1 .485-1.315 1.659 1.659 0 0 1 1.3-.491zm-1.309 5.781h2.56v15.053h-2.56V7.803zM49.609 7.8h2.498v2.648c.862-1.776 2.366-3.041 5.267-2.86v2.528c-3.273-.342-5.267.664-5.267 3.852v8.895h-2.498V7.8zM69.36 20.143c-.953 1.988-2.738 3.01-5.026 3.01-3.955 0-5.95-3.4-5.95-7.827 0-4.245 2.082-7.827 6.247-7.827 2.17 0 3.837.992 4.732 2.949V7.8h2.56v15.053h-2.56l-.003-2.71zm-4.344.602c2.292 0 4.344-1.474 4.344-4.817v-1.217c0-3.343-1.873-4.817-4.056-4.817-2.887 0-4.374 1.926-4.374 5.419.013 3.626 1.44 5.432 4.09 5.432h-.004z"/>
        <path fill="#2684FF" d="M24.473 12.234L13.453 1.08 12.386 0 4.09 8.395.297 12.234c-.395.4-.395 1.05 0 1.45l7.58 7.67 4.508 4.564 8.296-8.395.128-.13 3.664-3.709c.396-.4.396-1.05 0-1.45zM12.385 16.79L8.6 12.959l3.786-3.832 3.786 3.832-3.786 3.832z"/>
        <path fill="url(#a)" d="M12.385 9.127c-2.478-2.509-2.49-6.572-.027-9.096L4.073 8.412l4.51 4.564 3.802-3.849z"/>
        <path fill="url(#b)" d="M16.181 12.949l-3.796 3.842a6.492 6.492 0 0 1 1.869 4.563 6.492 6.492 0 0 1-1.869 4.564l8.306-8.406-4.51-4.563z"/>
    </g>
</svg>
