<?xml version="1.0" encoding="UTF-8"?>
<svg width="81px" height="80px" viewBox="0 0 81 80" version="1.1" xmlns="http://www.w3.org/2000/svg" xmlns:xlink="http://www.w3.org/1999/xlink">
    <!-- Generator: Sketch 51.3 (57544) - http://www.bohemiancoding.com/sketch -->
    <title>leapfrog@1x</title>
    <desc>Created with Sketch.</desc>
    <defs></defs>
    <g id="leapfrog" stroke="none" stroke-width="1" fill="none" fill-rule="evenodd">
        <g fill-rule="nonzero">
            <rect id="Rectangle" x="0" y="0" width="81" height="80"></rect>
            <g id="leapfrog-seeklogo.com" transform="translate(20.000000, 20.000000)">
                <path d="M33.3472963,6.48169649 C29.6287424,3.48020992 24.5707095,1.53924861 19.1128321,1.03900084 C13.9348458,0.558762993 8.61691401,2.23959547 5.53811136,5.28110186 C2.61924652,8.20254879 0.979884079,13.8453435 1.13982188,20.3685744 C1.239783,24.3505465 2.09944868,31.5541143 6.69766041,35.0758585 C12.0955611,39.21791 19.7125988,39.4580289 27.0897298,35.7161757 C34.6068064,31.9142927 39.7847927,24.9308339 39.6648393,18.7677815 C39.5648782,14.0054228 37.3857257,9.7433119 33.3472963,6.48169649" id="path3682" fill="#FFFFFF"></path>
                <path d="M25.9301808,35.3359874 C19.2727699,37.3369784 6.33780036,37.2769487 2.7591921,25.8312799 C-0.339602767,15.9463841 4.07867894,5.88139918 14.0747914,2.87991261 C23.5111216,0.038505321 33.9870475,6.28159739 36.6060289,14.7457895 C39.105057,22.7497537 35.6064177,32.4345504 25.9301808,35.3359874 M34.2869308,6.02146855 C30.3284703,2.83989279 24.9505618,0.778872008 19.1528165,0.238604426 C13.6349625,-0.261643336 7.97716281,1.49922879 4.71843014,4.76084419 C1.59964305,7.86238031 -0.159672743,13.8653535 0.0202572817,20.8087924 C0.120218406,25.0308835 1.03986075,32.6946792 5.93795586,36.4565424 C11.6757244,40.8587227 19.7725755,41.1188515 27.6095277,37.1368793 C35.6064177,33.0948774 41.1042795,25.6712006 40.9843262,19.10795 C40.9043573,14.0254327 38.5852592,9.50319297 34.2869308,6.02146855" id="path3684" fill="#036333"></path>
                <path d="M31.7079338,24.1104276 C31.4880193,24.3105267 31.3080893,24.4305862 30.9882137,24.5306357 C29.9886025,24.8507943 29.2288979,24.2905168 28.7091001,22.6096843 C28.16931,20.8688221 28.7290923,19.6682275 29.4887968,19.4281086 C29.7886802,19.328059 30.0485791,19.328059 30.2085169,19.3480689 C30.3284703,19.6282077 31.6879416,24.030388 31.7079338,24.1104276 Z M29.1089446,17.767286 C27.4495899,18.2875437 25.6702819,20.0684257 26.7098776,23.4300907 C27.549551,26.0914087 29.6087502,26.8117655 31.2281204,26.2915079 C31.6279649,26.1714484 31.987825,25.9713493 32.2477239,25.7912601 C32.4676384,26.471597 32.4076617,27.4520827 31.2880971,27.7922511 C30.4684159,28.05238 29.6487346,28.0323701 28.7690767,27.7522313 L28.6691156,27.7122115 L28.9090223,29.4530737 L28.9490068,29.4730836 C29.7886802,29.7532224 30.9082448,29.7332125 31.9278483,29.4130539 C33.9270708,28.7927467 34.8866976,27.2319736 34.1070008,24.7107249 C34.1070008,24.7107249 31.9678327,17.767286 31.9278483,17.6472265 C31.368066,17.4871472 30.3084781,17.3870977 29.1089446,17.767286 Z M23.4911294,26.9518349 C23.2512227,27.0318745 22.9913237,27.0118646 22.7714093,26.8717953 C22.2516114,26.5916565 21.7917902,25.8712997 21.4719146,24.8107745 C21.1320468,23.7502492 21.1120546,22.8698132 21.3719535,22.3495555 C21.4919069,22.1094366 21.6918291,21.9493573 21.9317358,21.8693176 C22.1916347,21.789278 22.4315414,21.8092879 22.6914404,21.9493573 C23.2112382,22.229496 23.6910516,22.9698627 24.0109272,24.0103781 C24.4707484,25.6111709 24.2908184,26.711716 23.4911294,26.9518349 Z M21.3719535,20.1484653 C19.3527388,20.7687726 18.5530498,22.8097834 19.372731,25.4510916 C19.8325522,26.9518349 20.6322412,27.9923502 21.591868,28.492598 C22.3115881,28.8727863 23.1512615,28.932816 24.0109272,28.6726872 C24.8705929,28.4125584 25.5503285,27.8722908 25.9301808,27.1119142 C26.4499787,26.1314286 26.4899631,24.8307844 26.0501342,23.3700609 C25.2304529,20.7487627 23.4311527,19.5281581 21.3719535,20.1484653 Z M17.7933453,21.2690203 L17.7333686,21.2890302 C17.0136485,21.569169 16.4538662,22.2495059 16.173975,23.1499519 C16.0740139,22.9298429 15.6741694,22.1094366 15.6741694,22.1094366 L14.0148147,22.6296942 L16.5538273,30.8337575 L18.573042,30.2134503 C18.573042,30.2134503 16.9336796,24.9508439 16.9336796,24.8908141 C17.2135707,24.1104276 17.9132986,23.4300907 18.7129876,23.1099321 L17.7933453,21.2690203 Z M10.8960276,32.5946296 L12.9952113,31.9543125 C12.9952113,31.9543125 11.8356622,28.1724394 11.7756855,28.05238 C11.8956389,28.0123602 14.4146592,27.2319736 14.4146592,27.2319736 L13.5749858,25.5111213 C13.5749858,25.5111213 11.3358566,26.2114682 11.2159032,26.251488 C11.1759188,26.1314286 10.576152,24.1704573 10.5361676,24.0503979 C10.6561209,24.0103781 13.5549936,23.1099321 13.5549936,23.1099321 L12.9952113,21.3090401 L7.87720168,22.8898231 L10.8960276,32.5946296 Z M26.390002,8.52270736 C26.9097998,8.36262808 27.98938,8.38263799 28.6691156,10.5437083 C29.1889135,12.2245408 28.9290145,13.285066 27.9294033,13.6052246 C27.6295199,13.7052742 27.3896132,13.7052742 27.1097221,13.6652543 C27.0897298,13.5852147 25.6702819,9.00294521 25.6302974,8.90289566 C25.8502119,8.72280646 26.1101108,8.602747 26.390002,8.52270736 Z M27.6295199,15.3260769 C28.0293644,15.3260769 28.3892245,15.2660472 28.7490845,15.1659976 C30.1685325,14.7257796 31.6879416,12.9448976 30.7083226,9.7433119 C29.9686102,7.34212264 28.2092944,6.14152801 25.9301808,6.84187488 C24.3108106,7.34212264 23.4711371,8.18253888 23.2712149,8.42265781 C23.3511838,8.68278664 26.2900409,18.1674842 26.2900409,18.1674842 L28.2092944,17.2270184 C28.2092944,17.2270184 27.6695044,15.4861562 27.6295199,15.3260769 Z M21.5118991,13.1249868 L22.2316192,15.4261265 C22.0516892,15.5862058 21.7518058,15.6862553 21.4719146,15.7863049 C20.9521168,15.9463841 20.3723423,15.8263247 20.1924122,15.2260274 C19.9325133,14.3856111 20.4123267,13.745294 21.5118991,13.1249868 Z M21.9117436,17.4471274 C23.4111605,16.9868995 24.3308028,16.1865031 24.5707095,15.8663445 C24.5107328,15.6862553 22.9713315,10.6837777 22.9713315,10.6837777 C22.4115492,8.86287584 21.3719535,8.26257852 19.5926455,8.82285602 C18.4730809,9.1830344 17.7333686,9.7433119 17.0936174,10.3035894 L17.0536329,10.3436092 L17.8533219,11.964412 L17.9332908,11.8843723 C18.4131042,11.284075 19.1328243,10.8038372 19.6726144,10.6437579 C20.0124822,10.5437083 20.2723811,10.5437083 20.4723034,10.6437579 C20.6922179,10.7638173 20.8521557,11.0039363 20.972109,11.3841246 C20.972109,11.3841246 21.0520779,11.6042336 21.0720701,11.7042831 C18.5930343,12.9448976 17.7533608,14.4256309 18.2331742,15.9663941 C18.752972,17.6672364 20.5122878,17.8873455 21.9117436,17.4471274 Z M13.3550713,12.4246399 C13.9548381,12.2245408 14.5945893,12.844848 14.9944338,14.0254327 C14.8744804,14.0654526 13.0152035,14.64574 12.8752579,14.6857598 C12.615359,13.4451453 12.795289,12.6047291 13.3550713,12.4246399 Z M15.7941228,19.3480689 C16.7537496,19.0479203 17.6733919,18.4076031 18.213182,17.767286 C18.0732364,17.4671373 17.5134541,16.3265724 17.4334852,16.1865031 C16.8936951,16.8868499 16.2139595,17.4071076 15.5342238,17.6272166 C14.394667,17.987395 13.6949391,16.9868995 13.2950946,16.0664436 C13.4350402,16.0264238 17.4334852,14.7858093 17.4334852,14.7858093 L17.413493,14.7257796 L17.233563,14.0654526 C16.7537496,12.5446994 15.994045,11.504184 15.0943949,11.0239462 C14.4546437,10.6837777 13.7149314,10.6437579 12.9352346,10.8838768 C12.1355456,11.1239957 11.5557711,11.6042336 11.1759188,12.3245903 C10.6561209,13.305076 10.576152,14.6857598 11.0359732,16.1464832 C11.8556544,18.8678311 13.6349625,20.0284059 15.7941228,19.3480689 Z M9.03675073,19.2480194 C8.99676628,19.10795 6.63768374,11.5241939 6.63768374,11.5241939 L4.53850012,12.1645111 L7.51734163,21.7292483 L12.5153979,20.1684753 L11.6557322,18.4076031 C11.6557322,18.427613 9.15670408,19.2079995 9.03675073,19.2480194 Z" id="path3686" fill="#036333"></path>
                <path d="M33.587203,17.2470283 L33.4272652,17.3070581 L33.5472185,17.6672364 L33.7071563,17.6072067 C33.8471019,17.5671869 33.9070786,17.4871472 33.8670941,17.3470779 C33.8271097,17.2470283 33.7271485,17.2070085 33.587203,17.2470283 Z M34.2469464,18.1874941 L33.7071563,17.7872959 L33.587203,17.8273157 L33.7471408,18.3275635 L33.5472185,18.3875932 L33.147374,17.1669887 L33.5272263,17.0469292 C33.7871252,16.9668896 33.9870475,17.0469292 34.0670164,17.2670382 C34.126993,17.4471274 34.0670164,17.5871968 33.9270708,17.6872464 L34.4468686,18.0674347 L34.2469464,18.1874941 Z M33.4272652,16.7267706 C32.9074673,16.8868499 32.6275762,17.3870977 32.8274984,18.0074049 C33.0274207,18.6277121 33.5472185,18.8478212 34.0670164,18.6877419 C34.5868142,18.5276626 34.8866976,18.0274148 34.6667831,17.4071076 C34.4668609,16.7667905 33.9270708,16.5666914 33.4272652,16.7267706 Z M34.1070008,18.8078013 C33.4672496,19.0079004 32.8874751,18.7077518 32.6675606,18.0674347 C32.4476461,17.4071076 32.7475295,16.8068103 33.3872807,16.6067112 C34.0270319,16.4066121 34.6068064,16.7067607 34.8267209,17.3670878 C35.0266432,18.0074049 34.7267598,18.6077022 34.1070008,18.8078013 Z" id="path3688" fill="#036333"></path>
            </g>
        </g>
    </g>
</svg>