<svg xmlns="http://www.w3.org/2000/svg" width="20" height="21" viewBox="0 0 20 21">
    <g fill="none" fill-rule="evenodd" opacity=".9">
        <g fill="#FFF" fill-rule="nonzero">
            <g>
                <g>
                    <g>
                        <g>
                            <g>
                                <path d="M9.999 0c5.522 0 9.998 4.477 9.998 9.999S15.521 19.997 10 19.997C4.477 19.997 0 15.521 0 10 0 4.477 4.477 0 9.999 0zM7.704 8.436H6.025V14h1.68V8.436zm2.636.746l.017-.746h-1.67V14h1.653v-2.92c0-1.626 2.002-1.778 2.002 0V14H14v-3.524c0-2.742-2.963-2.64-3.66-1.294zM6.84 6c-.464 0-.84.398-.84.888 0 .491.375.89.839.89.464 0 .84-.398.84-.889 0-.49-.376-.889-.84-.889z" transform="translate(-850 -4301) translate(0 4090) translate(184 181) translate(0 30.5) translate(546) translate(120)"/>
                            </g>
                        </g>
                    </g>
                </g>
            </g>
        </g>
    </g>
</svg>
