<svg xmlns="http://www.w3.org/2000/svg" width="109" height="34" viewBox="0 0 109 34">
    <g fill="#17244E" fill-rule="evenodd">
        <path d="M0 10.863V33.81l20.99-11.407V11.959L.89 32.714 6.77 15.258z"/>
        <path d="M0 9.342V0l20.232 10.989-6.814 4.9z"/>
        <g>
            <path fill-rule="nonzero" d="M26.398 27.845V17.23h2.793c1.816 0 3.195.436 4.12 1.309a5.037 5.037 0 0 1 1.396 3.862 6.18 6.18 0 0 1-.39 2.238 4.757 4.757 0 0 1-1.12 1.721 4.973 4.973 0 0 1-1.782 1.102 6.738 6.738 0 0 1-2.356.39H26.4v-.006zm.983-9.714v8.814h1.632a5.93 5.93 0 0 0 1.959-.299 3.908 3.908 0 0 0 1.465-.872c.41-.396.723-.88.914-1.417.222-.623.329-1.28.316-1.94 0-2.863-1.515-4.294-4.545-4.292h-1.74v.006z"/>
            <path d="M38.368 29.223a4.536 4.536 0 0 1-1.023 1.646c-.378.356-.882.55-1.401.54a2.192 2.192 0 0 1-.69-.098v-.889c.106.04.216.068.328.086.112.018.225.028.339.029.297.004.585-.1.81-.293.266-.244.472-.547.6-.884l.661-1.555-2.922-7.546h1.051l2.172 6c.03.081.058.167.087.267.028.1.051.2.08.299h.034c.023-.086.046-.167.067-.258.026-.097.056-.193.092-.287l2.305-6.02h1.001l-3.59 8.963zM47.756 27.845V23.48c0-1.71-.62-2.571-1.869-2.571a2.13 2.13 0 0 0-.92.195 2.193 2.193 0 0 0-.729.546 2.448 2.448 0 0 0-.482.826 2.996 2.996 0 0 0-.173 1.032v4.338h-.946v-7.58h.948v1.32h.028a2.743 2.743 0 0 1 2.537-1.498 2.29 2.29 0 0 1 1.896.81c.48.678.71 1.501.655 2.33v4.619h-.945z"/>
            <path fill-rule="nonzero" d="M54.526 27.845v-1.348h-.029a2.79 2.79 0 0 1-1.011 1.124 2.694 2.694 0 0 1-1.448.4 2.95 2.95 0 0 1-.988-.154 2.097 2.097 0 0 1-.747-.442 1.982 1.982 0 0 1-.477-.683 2.305 2.305 0 0 1-.167-.884c-.03-.613.202-1.21.638-1.641a3.451 3.451 0 0 1 1.924-.8l2.304-.334c0-1.457-.565-2.186-1.695-2.186a3.694 3.694 0 0 0-2.46.97V20.83c.17-.12.351-.225.54-.31.205-.094.417-.173.633-.236.223-.069.452-.12.684-.154.226-.036.454-.055.683-.058a2.45 2.45 0 0 1 1.913.712c.473.6.705 1.355.65 2.117v4.93h-.948v.015zm-1.954-3.678a6.21 6.21 0 0 0-.873.184c-.217.06-.421.161-.6.298a1.111 1.111 0 0 0-.351.467c-.08.219-.116.45-.109.683-.003.193.034.384.109.562.07.17.176.323.31.448.143.13.311.23.494.292.213.072.437.107.661.104a2.2 2.2 0 0 0 1.658-.729c.212-.238.376-.514.482-.815.118-.33.176-.677.173-1.027v-.746l-1.954.28z"/>
            <path d="M66.526 27.845v-4.458a5.493 5.493 0 0 0-.104-1.154 2.056 2.056 0 0 0-.322-.768 1.287 1.287 0 0 0-.557-.431 2.25 2.25 0 0 0-.801-.133 1.65 1.65 0 0 0-.788.195 2.077 2.077 0 0 0-.649.54c-.192.241-.34.515-.437.809-.11.323-.164.662-.16 1.004v4.384h-.948V23.28c0-1.589-.611-2.383-1.834-2.381a1.679 1.679 0 0 0-.787.19c-.245.13-.46.309-.632.527a2.638 2.638 0 0 0-.425.821 3.396 3.396 0 0 0-.15 1.056v4.344h-.953v-7.573h.948v1.228h.029a2.545 2.545 0 0 1 2.333-1.406 2.265 2.265 0 0 1 1.396.46c.19.146.355.322.489.521.136.205.24.43.31.667a3.03 3.03 0 0 1 1.04-1.228c.43-.284.934-.432 1.448-.425 1.666 0 2.5 1.027 2.5 3.081v4.677h-.946v.005z"/>
            <path fill-rule="nonzero" d="M69.425 18.349a.677.677 0 0 1-.678-.683.628.628 0 0 1 .2-.476.668.668 0 0 1 .478-.19c.09 0 .181.016.267.047a.658.658 0 0 1 .425.616.675.675 0 0 1-.051.267.69.69 0 0 1-.368.361.602.602 0 0 1-.273.058zm-.47 9.496v-7.578h.947v7.58l-.948-.002z"/>
            <path d="M76.574 27.501a4.021 4.021 0 0 1-2.046.528 3.427 3.427 0 0 1-1.465-.281 3.265 3.265 0 0 1-1.115-.803 3.654 3.654 0 0 1-.707-1.217 4.638 4.638 0 0 1-.247-1.52 4.87 4.87 0 0 1 .259-1.6c.162-.483.42-.928.758-1.309a3.583 3.583 0 0 1 1.218-.884 3.926 3.926 0 0 1 1.643-.327 4.022 4.022 0 0 1 1.718.361v1.004a3.165 3.165 0 0 0-1.792-.545 2.696 2.696 0 0 0-1.202.258 2.638 2.638 0 0 0-.885.695 2.989 2.989 0 0 0-.546 1.027 4.032 4.032 0 0 0-.19 1.245c-.002.394.052.787.162 1.165.098.355.264.688.488.981.223.286.507.517.833.678.37.175.774.261 1.183.252a3.14 3.14 0 0 0 1.926-.637v.93h.007zM77.28 26.481c.147.115.303.217.468.304.167.088.34.165.517.23.175.064.356.112.54.143.17.032.344.047.517.046 1.127 0 1.69-.425 1.69-1.267a.97.97 0 0 0-.121-.499 1.325 1.325 0 0 0-.34-.385 2.913 2.913 0 0 0-.534-.321 15.377 15.377 0 0 0-.707-.31 6.65 6.65 0 0 1-.902-.436 2.62 2.62 0 0 1-.62-.488 1.821 1.821 0 0 1-.362-.58 1.99 1.99 0 0 1-.121-.71c-.005-.313.07-.621.218-.896a2.05 2.05 0 0 1 .592-.667c.26-.188.549-.33.856-.418.33-.098.673-.146 1.018-.144a3.846 3.846 0 0 1 1.718.368v1a3.327 3.327 0 0 0-1.84-.546 2.307 2.307 0 0 0-.648.086 1.46 1.46 0 0 0-.5.253c-.277.211-.44.54-.437.89-.003.168.026.335.086.493.06.146.155.276.276.378.148.13.312.24.489.328.2.103.442.212.73.333.324.127.641.275.947.442.242.127.465.287.661.476.165.162.296.355.385.568a2.106 2.106 0 0 1-.086 1.641 1.997 1.997 0 0 1-.586.672 2.595 2.595 0 0 1-.88.413 4.128 4.128 0 0 1-1.097.143 3.645 3.645 0 0 1-1.936-.482v-1.058h.01zM86.94 27.45v-1.613a3.683 3.683 0 0 0 2.344.82 2.74 2.74 0 0 0 1.696-.482c.414-.302.65-.79.632-1.302 0-1.205-.921-1.808-2.764-1.808h-.827v-1.377h.788c1.638 0 2.456-.568 2.454-1.704 0-1.044-.637-1.567-1.913-1.567a3.14 3.14 0 0 0-2.011.764v-1.527a5.125 5.125 0 0 1 2.557-.608 3.423 3.423 0 0 1 2.27.711 2.26 2.26 0 0 1 .85 1.82 2.6 2.6 0 0 1-2.136 2.696v.029a2.812 2.812 0 0 1 1.815.8c.445.463.686 1.086.668 1.727a2.828 2.828 0 0 1-1.075 2.307 4.343 4.343 0 0 1-2.832.878 4.718 4.718 0 0 1-2.516-.565z"/>
            <path fill-rule="nonzero" d="M101.363 24.431c.006.499-.084.994-.267 1.458a3.422 3.422 0 0 1-.73 1.133c-.315.32-.692.571-1.108.74-.441.18-.914.271-1.39.267a3.464 3.464 0 0 1-1.47-.31 3.137 3.137 0 0 1-1.154-.924 4.46 4.46 0 0 1-.753-1.526 7.572 7.572 0 0 1-.267-2.124 8.797 8.797 0 0 1 .351-2.61 5.84 5.84 0 0 1 .966-1.911 4.161 4.161 0 0 1 1.448-1.17 4.104 4.104 0 0 1 1.793-.4c.365-.002.73.024 1.091.08.272.035.538.11.787.223v1.55a5.683 5.683 0 0 0-.81-.328 3.434 3.434 0 0 0-.988-.133 2.65 2.65 0 0 0-1.149.253c-.356.17-.667.421-.909.733a3.61 3.61 0 0 0-.597 1.2 5.71 5.71 0 0 0-.224 1.647h.046c.23-.352.549-.637.925-.826.425-.21.894-.314 1.368-.304.43-.007.857.07 1.258.224.364.143.69.366.954.654.273.3.48.654.609 1.038a3.9 3.9 0 0 1 .22 1.366zm-1.736.144a2.955 2.955 0 0 0-.11-.838 1.725 1.725 0 0 0-.327-.649 1.468 1.468 0 0 0-.546-.419 1.888 1.888 0 0 0-.776-.149 1.76 1.76 0 0 0-1.35.58 1.703 1.703 0 0 0-.346.59c-.075.22-.114.451-.115.683 0 .262.038.523.11.775.069.257.18.501.327.723.148.218.342.402.569.539.248.148.533.221.822.212.257.005.512-.048.747-.155.212-.1.398-.247.545-.43a1.92 1.92 0 0 0 .334-.648c.08-.264.119-.539.116-.814z"/>
            <path d="M102.126 27.599v-1.653a3.747 3.747 0 0 0 2.12.706 2.616 2.616 0 0 0 1.742-.55c.437-.36.682-.902.66-1.467a1.65 1.65 0 0 0-.672-1.406 3.176 3.176 0 0 0-1.925-.505c-.287 0-.867.029-1.741.086l.38-5.583h5.234v1.463h-3.806l-.178 2.657c.34-.018.65-.029.925-.029a3.669 3.669 0 0 1 2.614.867c.634.621.97 1.484.925 2.37a3.24 3.24 0 0 1-1.057 2.533 4.171 4.171 0 0 1-2.902.953 4.783 4.783 0 0 1-2.319-.442z"/>
            <g>
                <path d="M35.337 12.522V5.546c0-.357.031-.932.082-1.731h-.03a5.794 5.794 0 0 1-.185.553 2.4 2.4 0 0 1-.153.378l-3.518 7.775h-.4l-3.529-7.723a7.205 7.205 0 0 1-.317-.994h-.03c.02.215.03.46.04.738.01.277.01.584.01.922v7.057h-.909V2.406h1.105l3.426 7.6c.071.164.144.327.205.492.073.173.135.351.184.533h.04c.062-.185.119-.357.184-.512.066-.155.12-.318.205-.502l3.456-7.6h1.054V12.53h-.92v-.01z"/>
                <path fill-rule="nonzero" d="M38.513 3.472a.784.784 0 0 1-.525-.185.594.594 0 0 1-.228-.46.529.529 0 0 1 .228-.451.784.784 0 0 1 .525-.185.948.948 0 0 1 .298.04.57.57 0 0 1 .238.134.579.579 0 0 1 .166.716.5.5 0 0 1-.166.205.768.768 0 0 1-.238.134.728.728 0 0 1-.298.052zm-.525 9.044V5.295h1.049v7.22h-1.05z"/>
                <path d="M45.196 12.187a3.75 3.75 0 0 1-1.943.503 3.37 3.37 0 0 1-1.39-.267 3.043 3.043 0 0 1-1.054-.769 3.394 3.394 0 0 1-.665-1.158 4.365 4.365 0 0 1-.238-1.444 4.677 4.677 0 0 1 .246-1.526c.151-.46.394-.885.713-1.25.32-.36.714-.647 1.156-.84a3.743 3.743 0 0 1 1.571-.305 3.783 3.783 0 0 1 1.636.348v.963a3.02 3.02 0 0 0-1.707-.522 2.503 2.503 0 0 0-1.135.246 2.33 2.33 0 0 0-.839.666c-.233.293-.41.626-.521.983a3.751 3.751 0 0 0-.185 1.19c-.002.375.05.747.154 1.107.094.336.25.652.46.932.211.27.48.49.787.645.35.168.737.25 1.126.238a3.021 3.021 0 0 0 1.83-.605l-.002.865zM49.63 6.233a1.36 1.36 0 0 0-.818-.238 1.405 1.405 0 0 0-.635.133c-.18.09-.342.216-.475.369-.145.16-.262.344-.348.543a4.736 4.736 0 0 0-.238.635c-.059.218-.099.441-.118.666-.029.214-.043.43-.042.645v3.533h-.89V5.3h.89v1.547h.03c.078-.248.184-.485.318-.707.122-.2.274-.38.45-.533.165-.14.352-.25.553-.328.203-.075.418-.113.634-.113.13 0 .26.01.389.031.107.021.213.049.317.082v.952l-.016.003z"/>
                <path fill-rule="nonzero" d="M53.122 12.69a3.808 3.808 0 0 1-1.443-.267 2.924 2.924 0 0 1-1.084-.758 3.283 3.283 0 0 1-.685-1.178 4.45 4.45 0 0 1-.238-1.516c-.01-.55.077-1.098.256-1.619.155-.449.402-.86.726-1.209a3.078 3.078 0 0 1 1.125-.758c.47-.177.97-.264 1.473-.255a3.65 3.65 0 0 1 1.412.255c.408.165.774.42 1.07.748.3.347.526.752.664 1.19.163.513.243 1.049.237 1.587a4.569 4.569 0 0 1-.246 1.537c-.149.442-.385.85-.695 1.198a3.009 3.009 0 0 1-1.094.778 3.968 3.968 0 0 1-1.478.267zm.071-6.783a2.786 2.786 0 0 0-1.07.204 2.246 2.246 0 0 0-.818.595c-.238.282-.415.61-.522.963a4.18 4.18 0 0 0-.184 1.29c-.006.414.056.825.184 1.219.112.341.289.658.522.931.22.258.497.462.808.595.338.144.702.214 1.07.205.366.004.73-.066 1.069-.205.304-.13.574-.33.787-.584.225-.278.392-.599.491-.942a4.41 4.41 0 0 0 .164-1.27 3.398 3.398 0 0 0-.644-2.233 2.325 2.325 0 0 0-1.856-.766l-.001-.002z"/>
                <path d="M57.245 11.215c.136.111.283.207.44.287.16.08.323.152.49.215.166.06.337.104.511.134.162.028.326.041.49.04 1.07 0 1.607-.4 1.607-1.209a.975.975 0 0 0-.113-.476 1.22 1.22 0 0 0-.326-.369 2.42 2.42 0 0 0-.512-.307c-.195-.091-.42-.195-.666-.297a5.649 5.649 0 0 1-.859-.42 2.833 2.833 0 0 1-.594-.46 1.734 1.734 0 0 1-.348-.554 1.994 1.994 0 0 1-.113-.676 1.77 1.77 0 0 1 .204-.85c.142-.248.333-.464.562-.635.244-.18.518-.315.808-.4.316-.092.644-.137.972-.133a3.598 3.598 0 0 1 1.636.348v.952a3.176 3.176 0 0 0-1.749-.522 2.28 2.28 0 0 0-.613.082c-.171.05-.333.13-.475.238a1.06 1.06 0 0 0-.42.845c-.001.162.026.324.083.476.06.137.151.26.266.357.138.123.293.226.46.307.194.102.419.205.695.318.308.122.609.262.9.42.228.12.438.272.624.45a1.6 1.6 0 0 1 .369.543c.085.222.125.459.118.696a1.844 1.844 0 0 1-.757 1.517c-.252.183-.537.319-.838.4-.34.093-.691.138-1.044.133a3.46 3.46 0 0 1-1.84-.46v-.984l.032-.006z"/>
                <path fill-rule="nonzero" d="M65.753 12.69a3.807 3.807 0 0 1-1.442-.267 2.923 2.923 0 0 1-1.083-.758 3.274 3.274 0 0 1-.686-1.178c-.167-.488-.247-1-.238-1.516a4.71 4.71 0 0 1 .256-1.619c.155-.449.402-.86.726-1.209a3.077 3.077 0 0 1 1.125-.758 3.97 3.97 0 0 1 1.472-.255c.483-.01.963.078 1.412.255.408.165.774.42 1.07.748.3.347.526.752.663 1.19.164.513.244 1.049.238 1.587a4.569 4.569 0 0 1-.245 1.537 3.49 3.49 0 0 1-.695 1.198 3.01 3.01 0 0 1-1.094.778 3.97 3.97 0 0 1-1.48.267zm.072-6.783a2.786 2.786 0 0 0-1.07.204 2.248 2.248 0 0 0-.818.595c-.237.282-.415.61-.522.963a4.18 4.18 0 0 0-.184 1.29c-.006.414.056.825.184 1.219.112.341.289.658.522.931.22.258.497.462.808.595.338.144.702.214 1.07.205a2.75 2.75 0 0 0 1.069-.205c.304-.13.574-.33.787-.584.226-.278.392-.598.491-.942.117-.413.172-.841.164-1.27a3.398 3.398 0 0 0-.644-2.233 2.34 2.34 0 0 0-1.857-.766v-.002z"/>
                <path d="M73.547 2.683a1.39 1.39 0 0 0-.777-.195c-.85 0-1.269.553-1.269 1.659v1.158h1.79v.788H71.5v6.436h-.9V6.097h-1.258v-.789h1.259V4.1c-.006-.332.04-.664.133-.983.082-.278.221-.537.408-.758.184-.21.415-.374.675-.476.296-.12.612-.178.93-.174.273-.013.545.032.798.134l.001.84zM77.484 12.434c-.314.158-.661.24-1.012.238-1.166 0-1.75-.676-1.75-2.023V6.09h-1.267v-.789h1.267v-1.82l.9-.297v2.11h1.862v.789h-1.862v4.415c-.028.368.055.735.238 1.055a.95.95 0 0 0 .808.328c.289 0 .571-.09.808-.256v.809l.008-.001z"/>
            </g>
        </g>
    </g>
</svg>
