<svg xmlns="http://www.w3.org/2000/svg" width="70" height="24" viewBox="0 0 70 24">
    <g fill="#007DC1" fill-rule="evenodd">
        <path fill-rule="nonzero" d="M9.109 6.359c-4.823 0-8.732 3.928-8.732 8.773s3.91 8.773 8.732 8.773c4.823 0 8.732-3.928 8.732-8.773s-3.91-8.773-8.732-8.773zm0 13.16c-2.411 0-4.366-1.965-4.366-4.387 0-2.423 1.955-4.387 4.366-4.387 2.411 0 4.366 1.964 4.366 4.387 0 2.422-1.955 4.386-4.366 4.386z"/>
        <path d="M24.442 18.073c0-.694.839-1.037 1.32-.542 2.18 2.238 5.796 6.065 5.818 6.086.055.054.101.14.313.203.092.027.232.037.374.037l3.939-.002c.707 0 .926-.823.59-1.238l-6.526-6.72-.34-.357c-.742-.89-.662-1.237.186-2.14l5.186-5.785c.336-.415.121-1.226-.606-1.226h-3.568c-.142 0-.248 0-.34.028-.212.063-.292.147-.346.2-.022.022-2.885 3.121-4.646 5.027-.482.522-1.35.18-1.35-.532l-.002-9.948c0-.508-.415-.697-.748-.697h-2.92c-.507 0-.755.338-.755.636V23.18c0 .507.423.646.757.646h2.918c.452 0 .746-.326.746-.665v-5.088zM48.266 23.067l-.313-2.937a.7.7 0 0 0-.81-.617 4.35 4.35 0 0 1-.675.053c-2.332 0-4.225-1.837-4.347-4.15-.004-.078.005-.157.005-.236V11.6c0-.469.344-.848.81-.848l3.907.003c.285 0 .686-.237.686-.758v-2.78c0-.532-.345-.827-.652-.827h-3.935c-.455 0-.824-.336-.825-.793l-.008-4.438c0-.273-.2-.692-.755-.692h-2.906c-.367 0-.715.224-.715.674 0 0-.002 14.203 0 14.282.125 4.736 3.99 8.533 8.735 8.533.395 0 .784-.03 1.164-.08a.737.737 0 0 0 .634-.81z"/>
        <path fill-rule="nonzero" d="M69.292 19.386c-2.473 0-2.842-.882-2.848-4.225l-.001-.032-.006-7.997c0-.272-.201-.743-.756-.743H62.77c-.367 0-.757.292-.757.743v.372a8.66 8.66 0 0 0-4.304-1.145c-4.822 0-8.732 3.926-8.732 8.772 0 4.845 3.91 8.771 8.732 8.771a8.673 8.673 0 0 0 5.671-2.105c.823 1.256 2.142 2.09 4.202 2.105.352.003 2.218.063 2.218-.813v-3.12c0-.29-.217-.583-.507-.583zm-11.58.13c-2.412 0-4.367-1.964-4.367-4.386s1.955-4.386 4.366-4.386c2.411 0 4.366 1.964 4.366 4.386 0 2.423-1.955 4.386-4.366 4.386z"/>
    </g>
</svg>
