<?xml version="1.0" encoding="UTF-8"?>
<svg width="32px" height="30px" viewBox="0 0 32 30" version="1.1" xmlns="http://www.w3.org/2000/svg" xmlns:xlink="http://www.w3.org/1999/xlink">
    <!-- Generator: Sketch 49.1 (51147) - http://www.bohemiancoding.com/sketch -->
    <title>Combined Shape</title>
    <desc>Created with Sketch.</desc>
    <defs></defs>
    <g id="Page-1" stroke="none" stroke-width="1" fill="none" fill-rule="evenodd">
        <g id="HF-Homepage" transform="translate(-1018.000000, -2868.000000)" fill="#08C299" fill-rule="nonzero">
            <g id="Group-43" transform="translate(0.000000, 2520.000000)">
                <g id="Group-28" transform="translate(306.000000, 155.000000)">
                    <g id="Group-21" transform="translate(0.000000, 148.000000)">
                        <g id="Group-13" transform="translate(672.000000, 0.000000)">
                            <path d="M71.4674735,71.1904762 C71.7579425,71.1904762 71.9515885,70.952381 72,71.1904762 L72,72 C72,74.4285714 69.9667171,75 67.4977307,75 L44.5022693,75 C42.0332829,75 40,74.4285714 40,72 L40,71.1904762 C40,70.9047619 40.193646,70.7142857 40.484115,70.7142857 L41.4039334,70.7142857 L41.4039334,52.8571429 C41.4039334,51.5238095 42.5173979,50.4285714 43.8729198,50.4285714 L47.7458396,50.4285714 C48.0363086,50.4285714 48.2299546,50.6190476 48.2299546,50.9047619 C48.2299546,51.1904762 48.0363086,51.3809524 47.7458396,51.3809524 L43.8729198,51.3809524 C43.0499244,51.3809524 42.3721634,52.047619 42.3721634,52.8571429 L42.3721634,68.2380952 L69.5794251,68.2380952 L69.5794251,52.8571429 C69.5794251,52.047619 68.9016641,51.3809524 68.0786687,51.3809524 L62.6081694,51.3809524 C62.3177005,51.3809524 62.1240545,51.1904762 62.1240545,50.9047619 C62.1240545,50.6190476 62.3177005,50.4285714 62.6081694,50.4285714 L68.0786687,50.4285714 C69.4341906,50.4285714 70.5476551,51.5238095 70.5476551,52.8571429 L70.5476551,70.7142857 L71.4674735,71.1904762 Z M42.3721634,68.2380952 L42.3721634,70.7142857 L69.5794251,70.7142857 L69.5794251,68.2380952 L42.3721634,68.2380952 Z M70.9833585,72 L70.9833585,71.6666667 L40.96823,71.6666667 L40.96823,72 C40.96823,73.9047619 42.5658094,74.047619 44.5022693,74.047619 L67.4493192,74.047619 C69.3857791,74.047619 70.9833585,73.9047619 70.9833585,72 Z M45.2768533,49.5714286 C44.2118003,49.5714286 43.3888048,48.7619048 43.3888048,47.7619048 C43.3888048,46.7142857 44.2118003,45.9047619 45.2284418,45.9047619 C46.0998487,45.9047619 46.8260212,46.4761905 47.0196672,47.2857143 L49.4886536,47.2857143 C49.7791225,47.2857143 49.9727685,47.4761905 49.9727685,47.7619048 L49.9727685,53 C50.118003,52.952381 50.214826,52.952381 50.3600605,52.952381 C51.0378215,52.952381 51.667171,53.1428571 52.1996974,53.5238095 L52.1996974,48.6190476 C51.376702,48.4285714 50.795764,47.7142857 50.795764,46.8571429 C50.795764,45.8095238 51.667171,45 52.6838124,45 C53.7488654,45 54.5718608,45.8571429 54.5718608,46.8571429 C54.5718608,47.7142857 53.9909228,48.4285714 53.1679274,48.6190476 L53.1679274,52.952381 C53.5552194,52.8571429 53.9425113,52.7619048 54.3298033,52.7619048 C55.3464448,52.7619048 56.2662632,53.1904762 56.8472012,53.952381 L56.8956127,53.9047619 L56.8956127,48.6190476 C56.0726172,48.4285714 55.4916793,47.7142857 55.4916793,46.8571429 C55.4916793,45.8095238 56.3630862,45 57.3797277,45 C58.4447806,45 59.2677761,45.8571429 59.2677761,46.8571429 C59.2677761,47.7142857 58.6868381,48.4285714 57.8638427,48.6190476 L57.8638427,53.3333333 C58.2995461,53.1428571 58.7352496,53.047619 59.1709531,53.047619 C59.5098336,53.047619 59.8487141,53.0952381 60.1391831,53.1904762 L60.1391831,47.7619048 C60.1391831,47.4761905 60.332829,47.2857143 60.623298,47.2857143 L62.9954614,47.2857143 C63.2375189,46.4761905 63.9636914,45.9047619 64.8350983,45.9047619 C65.9001513,45.9047619 66.7231467,46.7619048 66.7231467,47.7619048 C66.7231467,48.8095238 65.8517398,49.6190476 64.8350983,49.6190476 C63.9636914,49.6190476 63.2375189,49.047619 63.0438729,48.2380952 L61.1558245,48.2380952 L61.1558245,53.5714286 C61.7367625,54.047619 62.172466,54.6666667 62.3177005,55.4285714 C63.8184569,55.6190476 64.9803328,56.8571429 64.9803328,58.3333333 L64.9803328,58.4761905 C66.1906203,58.9047619 66.9652042,59.952381 66.9652042,61.1904762 C66.9652042,62.5238095 66.0453858,63.6666667 64.6898638,64 C64.1089259,65.1904762 62.8502269,66 61.4462935,66 L52.1512859,66 C51.183056,66 50.3600605,65.7142857 49.7791225,65.1428571 C49.5370651,65.1904762 49.3434191,65.2380952 49.1013616,65.2380952 C47.3585477,65.2380952 45.9546142,63.9047619 45.9546142,62.2857143 C45.9546142,61.952381 46.0030257,61.6190476 46.1482602,61.2857143 C45.4220877,60.7142857 45.0347958,59.9047619 45.0347958,59.047619 C45.0347958,57.7142857 46.0030257,56.5714286 47.3101362,56.2380952 C47.2617247,56.1428571 47.2617247,56 47.2617247,55.9047619 C47.2617247,54.7619048 47.9878971,53.7619048 49.0529501,53.2857143 L49.0529501,48.1904762 L47.0680787,48.1904762 C46.8744327,49 46.1482602,49.5714286 45.2768533,49.5714286 Z M64.7866868,46.8571429 C64.2541604,46.8571429 63.8668684,47.2380952 63.8668684,47.7619048 C63.8668684,48.2857143 64.3025719,48.6666667 64.7866868,48.6666667 C65.2708018,48.6666667 65.7065053,48.2380952 65.7065053,47.7619048 C65.7065053,47.2380952 65.2708018,46.8571429 64.7866868,46.8571429 Z M56.4599092,46.8571429 C56.4599092,47.3333333 56.8956127,47.7619048 57.3797277,47.7619048 C57.9122542,47.7619048 58.2995461,47.3333333 58.2995461,46.8571429 C58.2995461,46.3333333 57.8638427,45.952381 57.3797277,45.952381 C56.8956127,45.952381 56.4599092,46.3809524 56.4599092,46.8571429 Z M51.8124054,46.8571429 C51.8124054,47.3333333 52.1996974,47.7619048 52.7322239,47.7619048 C53.2647504,47.7619048 53.6520424,47.3333333 53.6520424,46.8571429 C53.6520424,46.3333333 53.2163389,45.952381 52.7322239,45.952381 C52.2481089,45.952381 51.8124054,46.3809524 51.8124054,46.8571429 Z M49.730711,60.3333333 C49.4886536,60.3333333 49.2465961,60.1428571 49.2465961,59.8571429 C49.2465961,58.952381 49.8759455,58.1904762 50.698941,58.1904762 C50.98941,58.1904762 51.183056,58.3809524 51.183056,58.6666667 C51.183056,58.952381 50.98941,59.1428571 50.698941,59.1428571 C50.4568835,59.1428571 50.214826,59.4761905 50.214826,59.8571429 C50.214826,60.1428571 50.02118,60.3333333 49.730711,60.3333333 Z M53.2647504,62.5714286 C52.9742814,62.5714286 52.7806354,62.3333333 52.7806354,62.0952381 C52.7806354,60.6666667 54.1845688,59.5238095 55.8789713,59.5238095 C56.1694402,59.5238095 56.3630862,59.7142857 56.3630862,60 C56.3630862,60.2857143 56.1694402,60.4761905 55.8789713,60.4761905 C54.7170953,60.4761905 53.7488654,61.1904762 53.7488654,62.0952381 C53.7488654,62.3809524 53.5552194,62.5714286 53.2647504,62.5714286 Z M57.1860817,58.7619048 C56.9440242,58.7619048 56.7019667,58.5714286 56.7019667,58.2857143 C56.7019667,56.8095238 58.2995461,55.6190476 60.2360061,55.6190476 C60.526475,55.6190476 60.720121,55.8095238 60.720121,56.0952381 C60.720121,56.3809524 60.526475,56.5714286 60.2360061,56.5714286 C58.8320726,56.5714286 57.6701967,57.3333333 57.6701967,58.2857143 C57.6701967,58.5714286 57.4765507,58.7619048 57.1860817,58.7619048 Z M58.3963691,62.9047619 C58.3963691,61.4285714 59.9455371,60.2380952 61.9304085,60.2380952 C62.2208775,60.2380952 62.4145234,60.4285714 62.4145234,60.7142857 C62.4145234,61 62.2208775,61.1904762 61.9304085,61.1904762 C60.526475,61.1904762 59.3645991,61.952381 59.3645991,62.9047619 C59.3645991,63.1904762 59.1709531,63.3809524 58.8804841,63.3809524 C58.5900151,63.3809524 58.3963691,63.1904762 58.3963691,62.9047619 Z M51.9092284,54.5714286 C51.5219365,54.1904762 50.98941,53.952381 50.408472,53.952381 C49.1981846,53.952381 48.2299546,54.8571429 48.2299546,55.952381 C48.2299546,56.1428571 48.2783661,56.2857143 48.2299546,56.4761905 C48.2783661,56.6190476 48.2299546,56.7619048 48.1815431,56.9047619 C48.1331316,57.047619 47.9878971,57.1428571 47.8426626,57.1428571 C46.7291982,57.2380952 45.9062027,58.0952381 45.9062027,59.0952381 C45.9062027,59.7619048 46.2934947,60.3809524 46.9228442,60.7619048 C47.1649017,60.9047619 47.2617247,61.1904762 47.1164902,61.4285714 C46.9712557,61.7142857 46.8744327,62 46.8744327,62.3333333 C46.8744327,63.4285714 47.8426626,64.3333333 49.0529501,64.3333333 C49.2465961,64.3333333 49.4886536,64.3333333 49.730711,64.2380952 L49.8759455,64.2380952 C50.02118,64.2380952 50.1664145,64.3333333 50.2632375,64.4285714 C50.6505295,64.9047619 51.2314675,65.1428571 52.1028744,65.1428571 L61.4462935,65.1428571 C62.5113464,65.1428571 63.5279879,64.4761905 63.8668684,63.5238095 C63.9636914,63.3809524 64.0605144,63.2857143 64.2541604,63.2380952 C65.2708018,63.047619 65.9969743,62.2380952 65.9969743,61.2857143 C65.9969743,60.3809524 65.3192133,59.6190476 64.3509834,59.3809524 C64.0605144,59.3333333 63.9152799,59.047619 63.9636914,58.8095238 C64.0121029,58.6666667 64.0121029,58.5238095 64.0121029,58.4285714 C64.0121029,57.3333333 63.0438729,56.4285714 61.8335855,56.4285714 C61.5431165,56.4285714 61.3494705,56.2380952 61.3494705,55.952381 C61.3494705,54.8571429 60.3812405,53.952381 59.1709531,53.952381 C58.3479576,53.952381 57.6217852,54.3809524 57.2344932,55.047619 C57.1860817,55.1904762 56.9924357,55.2857143 56.7987897,55.2857143 C56.6051437,55.2857143 56.4114977,55.1904762 56.3630862,55 C56.0242057,54.2380952 55.2012103,53.7142857 54.3298033,53.7142857 C53.7004539,53.7142857 53.0711044,54 52.6354009,54.5238095 C52.5385779,54.6190476 52.4417549,54.7142857 52.2965204,54.7142857 C52.1512859,54.7142857 52.0060514,54.6666667 51.9092284,54.5714286 Z M45.2768533,46.8571429 C44.7443268,46.8571429 44.3570348,47.2380952 44.3570348,47.7619048 C44.3570348,48.2857143 44.7927383,48.6666667 45.2768533,48.6666667 C45.7609682,48.6666667 46.1966717,48.2380952 46.1966717,47.7619048 C46.1966717,47.2380952 45.7609682,46.8571429 45.2768533,46.8571429 Z" id="Combined-Shape"></path>
                        </g>
                    </g>
                </g>
            </g>
        </g>
    </g>
</svg>