<svg xmlns="http://www.w3.org/2000/svg" width="128" height="28" viewBox="0 0 128 28">
    <g fill="#203232" fill-rule="evenodd">
        <path fill-rule="nonzero" d="M10.59 5.76c4.245 0 7.117 3.339 7.096 8.294 0 4.893-3.017 8.293-7.325 8.293-2.06 0-3.371-.87-4.058-1.493v7.091H1.891V10.301c0-.249-.083-.332-.333-.332H.04V6.113h3.725c1.707 0 2.144.85 2.227 1.514.687-.747 2.123-1.866 4.599-1.866zm-.895 12.751c1.748 0 3.538-1.347 3.559-4.416 0-2.674-1.415-4.457-3.496-4.457-1.707 0-3.517 1.181-3.517 4.499 0 2.115 1.082 4.374 3.454 4.374z"/>
        <path d="M23.638 17.827v-9.35c0-1.576-.77-2.343-2.33-2.343h-3.955V9.99h1.52c.25 0 .333.083.333.332v9.309c0 1.596.749 2.343 2.33 2.343h3.954v-3.836h-1.519c-.229.021-.333-.083-.333-.31"/>
        <path fill-rule="nonzero" d="M35.167 5.76c4.266 0 7.138 3.339 7.138 8.294 0 4.893-3.017 8.293-7.325 8.293-2.04 0-3.371-.87-4.058-1.493v7.091h-4.454V10.301c0-.249-.083-.332-.333-.332h-1.519V6.113h3.705c1.706 0 2.143.85 2.226 1.514.708-.747 2.144-1.866 4.62-1.866zm-.895 12.751c1.77 0 3.559-1.347 3.559-4.416 0-2.674-1.415-4.457-3.496-4.457-1.707 0-3.517 1.181-3.517 4.499 0 2.115 1.082 4.374 3.454 4.374zM50.609 5.76c4.245 0 7.096 3.048 7.096 7.568 0 .456-.104 1.39-.104 1.43l-.02.291H47.112c.395 2.115 2.018 3.462 4.224 3.462 2.31 0 4.058-1.596 4.079-1.617l.291-.27 1.915 3.173-.187.166c-.104.083-2.477 2.384-6.368 2.384-4.953 0-8.533-3.483-8.533-8.293 0-4.872 3.31-8.293 8.075-8.293zm-3.33 6.013h5.869c-.188-1.43-1.207-2.446-2.54-2.446-1.643 0-2.85.891-3.329 2.446zM73.77 17.827c0 .228.084.332.334.353h1.477v3.835h-3.829c-1.644 0-2.102-.87-2.185-1.555-.687.788-2.102 1.908-4.537 1.908-4.245 0-7.117-3.338-7.117-8.293 0-4.873 2.997-8.294 7.284-8.294 2.206 0 3.475.767 4.12 1.348V4.351c0-.249-.083-.332-.333-.332h-1.519V.163h3.954c1.582 0 2.352.767 2.352 2.343v15.321zm-7.886.684c1.706 0 3.517-1.16 3.517-4.478 0-2.177-1.062-4.375-3.455-4.375-2.102 0-3.517 1.763-3.517 4.396 0 2.716 1.353 4.457 3.455 4.457z"/>
        <path d="M85.425 5.906c-1.832 0-3.538 1.057-4.537 2.736V8.29c0-1.43-.79-2.177-2.352-2.177H74.75V9.97h1.52c.249 0 .332.083.332.332v11.673h4.412V15.63c0-.83.104-1.638.312-2.385.666-2.197 2.435-2.965 3.85-2.965.5 0 .874.063.874.063l.375.062V6.03l-.27-.041c0-.021-.375-.083-.73-.083M92.708 17.827v-9.35c0-1.576-.77-2.343-2.33-2.343h-3.58V9.99h1.145c.25 0 .333.083.333.332v9.309c0 1.596.749 2.343 2.33 2.343h3.955v-3.836h-1.52c-.228.021-.333-.083-.333-.31"/>
        <path d="M109.378 6.134h-2.352c-1.373 0-2.123.477-2.56 1.638l-2.871 8.003c-.104.29-.188.622-.271.953a12.773 12.773 0 0 0-.291-.953L98.16 7.772c-.437-1.182-1.145-1.638-2.56-1.638h-2.497V9.99h.645c.354 0 .458.125.541.332l4.454 11.673h4.973l4.454-11.673c.083-.207.187-.332.54-.332h.688V6.134h-.021z"/>
        <path fill-rule="nonzero" d="M116.994 5.76c4.246 0 7.097 3.048 7.097 7.568 0 .456-.083 1.39-.083 1.43l-.021.291h-10.468c.395 2.115 2.019 3.462 4.225 3.462 2.289 0 4.037-1.596 4.058-1.617l.291-.27 1.915 3.173-.188.166c-.104.083-2.476 2.384-6.368 2.384-4.953 0-8.532-3.483-8.532-8.293 0-4.872 3.309-8.293 8.074-8.293zm-3.33 6.013h5.87c-.188-1.43-1.208-2.446-2.54-2.446-1.644 0-2.85.891-3.33 2.446z"/>
        <path d="M19.393.142h3.933v4.126h-3.933zM88.484.142h3.933v4.126h-3.933zM124.008 6.134h.582V7.71h.437V6.134h.583V5.76h-1.602zM127.337 5.76l-.437 1.348-.458-1.347h-.603V7.71h.395V6.34h.021l.479 1.369h.333l.478-1.369V7.71h.396V5.76z"/>
    </g>
</svg>
