<svg xmlns="http://www.w3.org/2000/svg" xmlns:xlink="http://www.w3.org/1999/xlink" width="48" height="34" viewBox="0 0 48 34">
    <defs>
        <path id="a" d="M0 .089h47.853v33.734H0z"/>
    </defs>
    <g fill="none" fill-rule="evenodd">
        <g transform="translate(0 .089)">
            <mask id="b" fill="#fff">
                <use xlink:href="#a"/>
            </mask>
            <path fill="#009CDB" d="M19.913 3.768c1.544-1.62 3.692-2.624 6.069-2.624 3.159 0 5.915 1.774 7.382 4.408a10.139 10.139 0 0 1 4.173-.894c5.697 0 10.316 4.693 10.316 10.482 0 5.788-4.619 10.481-10.316 10.481-.696 0-1.375-.07-2.033-.204-1.292 2.321-3.755 3.89-6.582 3.89a7.455 7.455 0 0 1-3.299-.765c-1.31 3.105-4.363 5.281-7.92 5.281-3.705 0-6.863-2.36-8.074-5.672a7.878 7.878 0 0 1-1.642.172C3.576 28.323 0 24.683 0 20.195a8.15 8.15 0 0 1 3.994-7.04 9.364 9.364 0 0 1-.765-3.718C3.23 4.274 7.39.089 12.523.089a9.26 9.26 0 0 1 7.39 3.679" mask="url(#b)"/>
        </g>
        <path fill="#FEFEFE" d="M6.931 17.671c-.03.079.01.095.02.11.09.065.181.112.274.166.488.26.949.336 1.43.336.982 0 1.592-.525 1.592-1.372v-.017c0-.782-.688-1.067-1.334-1.272l-.084-.027c-.486-.16-.906-.297-.906-.62v-.016c0-.277.245-.48.626-.48.422 0 .924.142 1.247.321 0 0 .095.062.13-.03l.2-.541c.018-.052-.015-.091-.048-.112a2.764 2.764 0 0 0-1.407-.38h-.098c-.898 0-1.526.547-1.526 1.33v.017c0 .826.692 1.094 1.34 1.28l.105.033c.472.146.88.272.88.606v.017c0 .306-.265.534-.692.534-.166 0-.694-.003-1.264-.366-.07-.041-.109-.07-.162-.103-.028-.017-.099-.048-.13.045l-.193.541zM21.301 17.671c-.03.079.01.095.02.11.09.065.182.112.274.166.488.26.949.336 1.43.336.982 0 1.592-.525 1.592-1.372v-.017c0-.782-.688-1.067-1.333-1.272l-.084-.027c-.487-.16-.907-.297-.907-.62v-.016c0-.277.245-.48.626-.48.423 0 .924.142 1.247.321 0 0 .095.062.13-.03l.2-.541c.018-.052-.015-.091-.048-.112a2.764 2.764 0 0 0-1.407-.38h-.098c-.898 0-1.525.547-1.525 1.33v.017c0 .826.692 1.094 1.34 1.28l.104.033c.472.146.88.272.88.606v.017c0 .306-.265.534-.692.534-.165 0-.694-.003-1.264-.366-.07-.041-.11-.069-.162-.103-.018-.011-.1-.044-.129.045l-.194.541zM31.111 16.013c0 .478-.088.855-.262 1.122-.174.263-.435.392-.799.392-.364 0-.623-.128-.794-.392-.171-.266-.259-.644-.259-1.122 0-.478.088-.854.26-1.118.17-.261.43-.388.793-.388.364 0 .625.127.799.388.174.264.262.64.262 1.118m.82-.887a2 2 0 0 0-.373-.717 1.8 1.8 0 0 0-.63-.482 2.053 2.053 0 0 0-.878-.177c-.332 0-.628.06-.878.177a1.8 1.8 0 0 0-.63.482 1.996 1.996 0 0 0-.372.717c-.08.272-.12.57-.12.887 0 .316.04.615.12.886.08.274.205.515.373.718.167.202.38.363.63.477a2.1 2.1 0 0 0 .877.174c.332 0 .628-.059.878-.174.25-.114.462-.275.63-.477.167-.202.292-.443.373-.718.08-.272.12-.57.12-.886 0-.316-.04-.615-.12-.887M38.66 17.399c-.028-.08-.105-.05-.105-.05a1.853 1.853 0 0 1-.381.11 2.892 2.892 0 0 1-.45.032c-.396 0-.711-.119-.937-.354-.226-.235-.353-.614-.351-1.128 0-.467.113-.818.314-1.087.2-.266.504-.403.909-.403.338 0 .596.04.866.125 0 0 .064.028.095-.057.072-.2.125-.343.202-.564.022-.062-.032-.089-.051-.097a3.196 3.196 0 0 0-1.162-.18c-.344 0-.65.06-.913.177a1.896 1.896 0 0 0-1.058 1.198 2.864 2.864 0 0 0-.134.888c0 .685.183 1.238.545 1.643.363.407.907.613 1.618.613.42 0 .85-.085 1.16-.208 0 0 .06-.029.034-.098l-.202-.56zM40.093 15.554c.04-.266.111-.486.224-.659.17-.261.429-.405.793-.405.364 0 .604.144.777.405.114.173.165.403.184.66h-1.978zm2.758-.584a1.743 1.743 0 0 0-.354-.654c-.179-.193-.354-.329-.527-.404a2.009 2.009 0 0 0-.795-.162c-.346 0-.66.059-.915.18-.256.12-.47.285-.639.49a2.023 2.023 0 0 0-.375.725 3.16 3.16 0 0 0-.122.892c0 .322.042.622.126.892.084.272.22.51.401.71.183.2.417.356.698.465.28.109.618.165 1.007.164.801-.002 1.223-.182 1.397-.28.03-.017.06-.047.023-.133l-.181-.511c-.028-.077-.105-.049-.105-.049-.198.075-.48.208-1.138.207-.43-.001-.749-.129-.95-.329-.204-.205-.305-.505-.322-.929l2.773.002s.073 0 .081-.073c.003-.03.095-.573-.083-1.203zM17.88 15.554c.039-.266.111-.486.223-.659.17-.261.43-.405.794-.405.364 0 .604.144.777.405.114.173.164.403.184.66h-1.979zm2.758-.584a1.743 1.743 0 0 0-.355-.654c-.178-.193-.353-.329-.526-.404a2.01 2.01 0 0 0-.795-.162c-.346 0-.66.059-.916.18a1.83 1.83 0 0 0-.638.49 2.034 2.034 0 0 0-.376.725c-.08.275-.121.575-.121.892 0 .322.042.622.125.892.085.272.22.51.402.71.182.2.417.356.698.465.279.109.617.165 1.007.164.8-.002 1.222-.182 1.397-.28.03-.017.06-.047.023-.133l-.182-.511c-.028-.077-.104-.049-.104-.049-.199.075-.48.208-1.139.207-.43-.001-.748-.129-.949-.329-.204-.205-.305-.505-.322-.929l2.773.002s.073 0 .08-.073c.004-.03.096-.573-.082-1.203zM11.884 17.384a.544.544 0 0 1-.16-.166.672.672 0 0 1-.083-.364c0-.245.081-.422.248-.54-.002 0 .239-.21.804-.202.397.005.753.065.753.065v1.27s-.352.076-.749.1c-.564.034-.814-.164-.813-.163m1.104-1.964a6.121 6.121 0 0 0-.433-.012c-.238 0-.467.03-.683.088-.217.059-.412.15-.58.27a1.346 1.346 0 0 0-.401.461c-.099.185-.15.401-.15.644 0 .248.044.462.128.638.085.176.206.323.362.437.154.113.344.196.565.247.218.05.465.075.734.075.285 0 .568-.024.843-.07.272-.047.606-.116.698-.137.093-.022.195-.05.195-.05.069-.017.063-.091.063-.091l-.001-2.555c0-.56-.149-.975-.441-1.233-.291-.257-.72-.386-1.274-.386-.208 0-.543.028-.743.069 0 0-.606.118-.855.315 0 0-.055.034-.025.11l.196.532c.025.069.091.045.091.045s.021-.008.046-.023c.533-.292 1.208-.283 1.208-.283.3 0 .53.06.686.18.151.117.228.294.228.666v.118c-.238-.035-.457-.055-.457-.055M35.359 13.981a.076.076 0 0 0-.042-.1 2.441 2.441 0 0 0-.465-.08c-.348-.022-.542.037-.715.116-.172.078-.362.204-.468.348v-.34c0-.047-.034-.085-.08-.085h-.711c-.047 0-.08.038-.08.085v4.167c0 .046.038.084.084.084h.73a.084.084 0 0 0 .083-.084V16.01c0-.28.03-.558.092-.733.06-.174.142-.312.243-.411a.842.842 0 0 1 .342-.208 1.34 1.34 0 0 1 .373-.052c.144 0 .304.037.304.037.054.006.083-.027.101-.075.048-.128.183-.51.209-.587"/>
        <path fill="#FEFEFE" d="M28.519 12.05a2.146 2.146 0 0 0-.651-.095c-.502 0-.897.143-1.175.425-.276.28-.463.706-.557 1.267l-.034.189h-.63s-.077-.003-.093.081l-.103.581c-.007.056.016.09.09.09h.613l-.622 3.496a4.415 4.415 0 0 1-.166.689c-.06.173-.12.303-.193.397a.514.514 0 0 1-.254.198 1.023 1.023 0 0 1-.327.047c-.067 0-.156-.011-.222-.025-.066-.013-.1-.028-.15-.049 0 0-.072-.027-.1.045-.023.06-.186.512-.206.568-.02.055.008.099.043.111.082.03.142.049.254.075.154.037.284.039.406.039.255 0 .488-.036.68-.106.195-.07.364-.194.513-.36.162-.18.263-.369.36-.625.097-.255.179-.57.244-.939l.625-3.56h.914s.077.002.093-.082l.103-.581c.007-.056-.016-.09-.09-.09h-.887c.004-.02.045-.334.146-.63a.811.811 0 0 1 .195-.298.575.575 0 0 1 .232-.146.956.956 0 0 1 .298-.043c.083 0 .165.01.228.023.086.019.119.029.141.035.09.028.103.001.12-.043l.213-.586c.022-.063-.032-.09-.051-.098M16.128 18.092c0 .046-.033.085-.08.085h-.735c-.047 0-.08-.039-.08-.085V12.13c0-.047.033-.085.08-.085h.735c.047 0 .08.038.08.085v5.962z"/>
    </g>
</svg>
