<?xml version="1.0" encoding="UTF-8"?>
<svg width="57px" height="40px" viewBox="0 0 57 40" version="1.1" xmlns="http://www.w3.org/2000/svg" xmlns:xlink="http://www.w3.org/1999/xlink">
    <!-- Generator: Sketch 49.1 (51147) - http://www.bohemiancoding.com/sketch -->
    <title>Salesforce</title>
    <desc>Created with Sketch.</desc>
    <defs></defs>
    <g id="Page-1" stroke="none" stroke-width="1" fill="none" fill-rule="evenodd">
        <g id="HF-Homepage" transform="translate(-552.000000, -4867.000000)">
            <g id="Group-32" transform="translate(0.000000, 4518.000000)">
                <g id="Group-50" transform="translate(246.000000, 121.000000)">
                    <g id="Group-31" transform="translate(0.000000, 168.000000)">
                        <g id="Group-29" transform="translate(254.000000, 0.000000)">
                            <g id="Salesforce" transform="translate(52.000000, 60.000000)">
                                <g id="g3003" transform="translate(28.499587, 20.008252) scale(-1, 1) rotate(-180.000000) translate(-28.499587, -20.008252) translate(0.016935, 0.077203)" fill="#00A1E0" fill-rule="nonzero">
                                    <path d="M24.0698467,35.0786463 C25.8863178,36.9593401 28.4152563,38.125705 31.2121725,38.125705 C34.9301615,38.125705 38.1739745,36.0656318 39.9013872,33.0074117 C41.4025433,33.6739059 43.064165,34.0446235 44.8124382,34.0446235 C51.5182975,34.0446235 56.9548735,28.5954746 56.9548735,21.8739277 C56.9548735,15.1515835 51.5182975,9.70243466 44.8124382,9.70243466 C43.9940634,9.70243466 43.1941422,9.78375334 42.4206978,9.93921553 C40.8994835,7.24294321 38.0006716,5.42124533 34.6734165,5.42124533 C33.2805747,5.42124533 31.9631517,5.74093936 30.7901479,6.30937288 C29.248073,2.70504197 25.6552472,0.177784957 21.4678963,0.177784957 C17.1072424,0.177784957 13.390858,2.91950006 11.9643185,6.76459804 C11.3409094,6.63305311 10.6950352,6.56449031 10.0323121,6.56449031 C4.84044617,6.56449031 0.631432311,10.7898727 0.631432311,16.0030379 C0.631432311,19.4965522 2.52251993,22.5467999 5.33227337,24.1787542 C4.75379472,25.5013786 4.4320611,26.9611286 4.4320611,28.4958194 C4.4320611,34.4910789 9.3302749,39.3510659 15.3718064,39.3510659 C18.9188995,39.3510659 22.0712471,37.6752633 24.0698467,35.0786463" id="path3005"></path>
                                </g>
                                <g id="g3007" transform="translate(10.410937, 18.909413) scale(-1, 1) rotate(-180.000000) translate(-10.410937, -18.909413) translate(8.003952, 16.119066)" fill="#FFFFFF" fill-rule="nonzero">
                                    <path d="M0.802328223,0.797241961 C0.767025781,0.705559135 0.815165474,0.686425328 0.826398069,0.670480489 C0.932305395,0.593945261 1.03981738,0.538935565 1.14813169,0.477547935 C1.72259869,0.174595989 2.26497257,0.0861021318 2.83221863,0.0861021318 C3.98757127,0.0861021318 4.7048527,0.696789474 4.7048527,1.67978881 L4.7048527,1.69892262 C4.7048527,2.60777845 3.89530352,2.93783663 3.13549869,3.17621197 L3.03681232,3.20810165 C2.46394997,3.39306179 1.96971579,3.55251018 1.96971579,3.9272139 L1.96971579,3.94714495 C1.96971579,4.26763622 2.25855395,4.50361984 2.70625309,4.50361984 C3.20369659,4.50361984 3.79421016,4.33938799 4.17451374,4.1305106 C4.17451374,4.1305106 4.28603736,4.05875882 4.3269561,4.16638649 C4.34942129,4.22378791 4.54198007,4.73880621 4.56203827,4.79461315 C4.58370114,4.85520354 4.54518938,4.89984909 4.5058753,4.92376635 C4.07181573,5.18605895 3.47167422,5.3654384 2.85067217,5.3654384 L2.73513691,5.36464115 C1.67766831,5.36464115 0.939526349,4.73003655 0.939526349,3.82038348 L0.939526349,3.80124967 C0.939526349,2.84216759 1.75388949,2.53124323 2.51690363,2.31439341 L2.63965985,2.27692304 C3.19567331,2.1071105 3.67466326,1.96121522 3.67466326,1.57216115 L3.67466326,1.55302734 C3.67466326,1.19745743 3.36335991,0.932773094 2.86110244,0.932773094 C2.66613668,0.932773094 2.04433231,0.936759304 1.37278359,1.3585003 C1.29174844,1.40553758 1.24441107,1.43981898 1.18182947,1.47728935 C1.14893401,1.49801764 1.06629421,1.53389353 1.03018944,1.42546863 L0.802328223,0.797241961 Z" id="path3009"></path>
                                </g>
                                <g id="g3011" transform="translate(27.324818, 18.909413) scale(-1, 1) rotate(-180.000000) translate(-27.324818, -18.909413) translate(24.917834, 16.119066)" fill="#FFFFFF" fill-rule="nonzero">
                                    <path d="M0.802328223,0.797241961 C0.767025781,0.705559135 0.815165474,0.686425328 0.826398069,0.670480489 C0.932305395,0.593945261 1.03981738,0.538935565 1.14813169,0.477547935 C1.72259869,0.174595989 2.26497257,0.0861021318 2.83221863,0.0861021318 C3.98757127,0.0861021318 4.7048527,0.696789474 4.7048527,1.67978881 L4.7048527,1.69892262 C4.7048527,2.60777845 3.89530352,2.93783663 3.13549869,3.17621197 L3.03681232,3.20810165 C2.46394997,3.39306179 1.96971579,3.55251018 1.96971579,3.9272139 L1.96971579,3.94714495 C1.96971579,4.26763622 2.25855395,4.50361984 2.70625309,4.50361984 C3.20369659,4.50361984 3.79421016,4.33938799 4.17451374,4.1305106 C4.17451374,4.1305106 4.28603736,4.05875882 4.3269561,4.16638649 C4.34942129,4.22378791 4.54198007,4.73880621 4.56203827,4.79461315 C4.58370114,4.85520354 4.54518938,4.89984909 4.5058753,4.92376635 C4.07181573,5.18605895 3.47167422,5.3654384 2.85067217,5.3654384 L2.73513691,5.36464115 C1.67766831,5.36464115 0.939526349,4.73003655 0.939526349,3.82038348 L0.939526349,3.80124967 C0.939526349,2.84216759 1.75388949,2.53124323 2.51690363,2.31439341 L2.63965985,2.27692304 C3.19567331,2.1071105 3.67546559,1.96121522 3.67546559,1.57216115 L3.67546559,1.55302734 C3.67546559,1.19745743 3.36335991,0.932773094 2.86110244,0.932773094 C2.66613668,0.932773094 2.04433231,0.936759304 1.37278359,1.3585003 C1.29174844,1.40553758 1.24360874,1.4382245 1.1826318,1.47728935 C1.16177127,1.49084247 1.06388722,1.52831284 1.03018944,1.42546863 L0.802328223,0.797241961 Z" id="path3013"></path>
                                </g>
                                <g id="g3015" transform="translate(36.063299, 18.977020) scale(-1, 1) rotate(-180.000000) translate(-36.063299, -18.977020) translate(33.255150, 15.788052)" fill="#FFFFFF" fill-rule="nonzero">
                                    <path d="M4.01164111,3.18896784 C4.01164111,2.6332902 3.90733844,2.19560436 3.70194242,1.88627448 C3.49895338,1.58013357 3.19166167,1.43104932 2.7632184,1.43104932 C2.3339728,1.43104932 2.02828575,1.57933632 1.82850602,1.88627448 C1.62631931,2.19480712 1.52362129,2.6332902 1.52362129,3.18896784 C1.52362129,3.74384825 1.62631931,4.18073684 1.82850602,4.48687776 C2.02828575,4.7898297 2.3339728,4.93731946 2.7632184,4.93731946 C3.19166167,4.93731946 3.49895338,4.7898297 3.70274475,4.48687776 C3.90733844,4.18073684 4.01164111,3.74384825 4.01164111,3.18896784 M4.97603964,4.21900446 C4.88136491,4.537104 4.73373651,4.81773317 4.5371661,5.05132506 C4.34059568,5.2857142 4.09187394,5.4738633 3.79661715,5.61098892 C3.50216269,5.7473173 3.15395224,5.81667735 2.7632184,5.81667735 C2.37168223,5.81667735 2.02347178,5.7473173 1.72901732,5.61098892 C1.43376053,5.4738633 1.18503878,5.2857142 0.987666042,5.05132506 C0.791897956,4.81693593 0.644269563,4.53630676 0.548792504,4.21900446 C0.454920102,3.9024994 0.407582737,3.55649639 0.407582737,3.18896784 C0.407582737,2.8214393 0.454920102,2.47463905 0.548792504,2.15893123 C0.644269563,1.84162893 0.791095627,1.56099976 0.98846837,1.32661062 C1.18503878,1.09222149 1.43456286,0.904869625 1.72901732,0.771730218 C2.02427411,0.638590811 2.37168223,0.570825244 2.7632184,0.570825244 C3.15395224,0.570825244 3.50136036,0.638590811 3.79661715,0.771730218 C4.09107161,0.904869625 4.34059568,1.09222149 4.5371661,1.32661062 C4.73373651,1.56020252 4.88136491,1.84083169 4.97603964,2.15893123 C5.07071437,2.47543629 5.11805173,2.82223654 5.11805173,3.18896784 C5.11805173,3.55569915 5.07071437,3.9024994 4.97603964,4.21900446" id="path3017"></path>
                                </g>
                                <g id="g3019" transform="translate(44.546078, 18.992086) scale(-1, 1) rotate(-180.000000) translate(-44.546078, -18.992086) translate(42.139093, 15.803119)" fill="#FFFFFF">
                                    <path d="M4.01164111,1.59448392 C3.97954798,1.68776123 3.88888489,1.65268258 3.88888489,1.65268258 C3.74847746,1.59926737 3.59924441,1.54983837 3.44038342,1.52512387 C3.27911545,1.50040937 3.10180091,1.4876535 2.91164912,1.4876535 C2.44469409,1.4876535 2.07401846,1.62557636 1.80844781,1.89823311 C1.54207484,2.17088986 1.39284179,2.61176466 1.39444645,3.20810165 C1.39605111,3.75102343 1.52763294,4.15921131 1.76431976,4.47013567 C1.99940193,4.77946555 2.35724032,4.93811671 2.83462561,4.93811671 C3.23258041,4.93811671 3.53586048,4.89267391 3.85358245,4.79301867 C3.85358245,4.79301867 3.92980363,4.76033175 3.9659084,4.85918975 C4.05015287,5.0919844 4.11273447,5.25860797 4.20259523,5.51452264 C4.22826973,5.58707166 4.16568813,5.6181641 4.14322294,5.62693376 C4.01805974,5.67556552 3.72280295,5.75449247 3.49975571,5.78797664 C3.29115037,5.81986631 3.04724259,5.83660839 2.77605565,5.83660839 C2.3708799,5.83660839 2.0098322,5.76804559 1.70093583,5.63091997 C1.39284179,5.49459159 1.13128279,5.30644249 0.924282112,5.07205335 C0.717281431,4.83766422 0.560025099,4.55703505 0.454920102,4.23973275 C0.350617433,3.92322769 0.297663771,3.57563019 0.297663771,3.20810165 C0.297663771,2.41325142 0.513490062,1.77067439 0.939526349,1.30030164 C1.36636496,0.828334397 2.00742521,0.588364567 2.84345122,0.588364567 C3.33768541,0.588364567 3.84475684,0.688019812 4.20901386,0.830726123 C4.20901386,0.830726123 4.27881641,0.864210285 4.24832794,0.944731724 L4.01164111,1.59448392 Z" id="path3021"></path>
                                </g>
                                <g id="g3023" transform="translate(49.041596, 18.843323) scale(-1, 1) rotate(-180.000000) translate(-49.041596, -18.843323) translate(46.233447, 16.052976)" fill="#FFFFFF">
                                    <path d="M1.60465645,3.18896784 C1.65038915,3.49750048 1.73623827,3.75421239 1.86862243,3.95432013 C2.06840216,4.25806931 2.37328688,4.42469288 2.80173015,4.42469288 C3.23017342,4.42469288 3.51339529,4.25727207 3.71638433,3.95432013 C3.85117547,3.75421239 3.90974543,3.48633909 3.93301295,3.18896784 L1.60465645,3.18896784 Z M4.85167876,3.86742075 C4.76984128,4.17435891 4.56685224,4.48448603 4.43366576,4.6263951 C4.22345576,4.85121733 4.01805974,5.008274 3.81426837,5.09597061 C3.5478954,5.20917897 3.22856877,5.28411972 2.87875366,5.28411972 C2.47117093,5.28411972 2.10129761,5.21635415 1.80122686,5.07603956 C1.50035378,4.93572498 1.24762039,4.74438691 1.04944532,4.50601156 C0.851270244,4.26843346 0.702037195,3.98541256 0.607362464,3.66412405 C0.511885406,3.34443003 0.463745713,2.99603529 0.463745713,2.62850674 C0.463745713,2.25460027 0.513490062,1.90620553 0.612176434,1.59288944 C0.711665133,1.27718162 0.870526121,0.998944177 1.08555009,0.76854125 C1.29977172,0.53654384 1.57577263,0.354772673 1.90633186,0.228011201 C2.2344841,0.102046971 2.63324123,0.0366731302 3.09137064,0.0374703722 C4.0341063,0.04065934 4.53074747,0.249536734 4.73534117,0.36194785 C4.77144594,0.381878899 4.80594605,0.416957545 4.76262033,0.517410033 L4.54920102,1.11135529 C4.51710789,1.19984915 4.4264448,1.16716223 4.4264448,1.16716223 C4.19296729,1.0810601 3.86080341,0.926395158 3.08655667,0.927989642 C2.58028756,0.928786884 2.20479796,1.07707389 1.96971579,1.3090713 C1.72821499,1.5466494 1.61027274,1.89584138 1.58941221,2.38853691 L4.85408575,2.38534795 C4.85408575,2.38534795 4.93993487,2.38694243 4.94876048,2.46985559 C4.95196979,2.50493424 5.06108643,3.13634987 4.85167876,3.86742075 Z" id="path3025"></path>
                                </g>
                                <g id="g3027" transform="translate(22.896287, 18.843323) scale(-1, 1) rotate(-180.000000) translate(-22.896287, -18.843323) translate(20.088139, 16.052976)" fill="#FFFFFF">
                                    <path d="M1.60465645,3.18896784 C1.65119148,3.49750048 1.73623827,3.75421239 1.86862243,3.95432013 C2.06840216,4.25806931 2.37328688,4.42469288 2.80173015,4.42469288 C3.23017342,4.42469288 3.51339529,4.25727207 3.71718666,3.95432013 C3.85117547,3.75421239 3.90974543,3.48633909 3.93301295,3.18896784 L1.60465645,3.18896784 Z M4.85087643,3.86742075 C4.76903895,4.17435891 4.56685224,4.48448603 4.43366576,4.6263951 C4.22345576,4.85121733 4.01805974,5.008274 3.81426837,5.09597061 C3.5478954,5.20917897 3.22856877,5.28411972 2.87875366,5.28411972 C2.47197325,5.28411972 2.10129761,5.21635415 1.80122686,5.07603956 C1.50035378,4.93572498 1.24762039,4.74438691 1.04944532,4.50601156 C0.851270244,4.26843346 0.702037195,3.98541256 0.607362464,3.66412405 C0.512687734,3.34443003 0.463745713,2.99603529 0.463745713,2.62850674 C0.463745713,2.25460027 0.513490062,1.90620553 0.612176434,1.59288944 C0.711665133,1.27718162 0.870526121,0.998944177 1.08555009,0.76854125 C1.29977172,0.53654384 1.57577263,0.354772673 1.90633186,0.228011201 C2.2344841,0.102046971 2.63324123,0.0366731302 3.09137064,0.0374703722 C4.0341063,0.04065934 4.53074747,0.249536734 4.73534117,0.36194785 C4.77144594,0.381878899 4.80594605,0.416957545 4.76262033,0.517410033 L4.55000335,1.11135529 C4.51710789,1.19984915 4.4264448,1.16716223 4.4264448,1.16716223 C4.19296729,1.0810601 3.86160574,0.926395158 3.08575434,0.927989642 C2.58028756,0.928786884 2.20479796,1.07707389 1.96971579,1.3090713 C1.72821499,1.5466494 1.61027274,1.89584138 1.58941221,2.38853691 L4.85408575,2.38534795 C4.85408575,2.38534795 4.93993487,2.38694243 4.94876048,2.46985559 C4.95196979,2.50493424 5.06108643,3.13634987 4.85087643,3.86742075 Z" id="path3029"></path>
                                </g>
                                <g id="g3031" transform="translate(15.438566, 18.974309) scale(-1, 1) rotate(-180.000000) translate(-15.438566, -18.974309) translate(13.031581, 15.785341)" fill="#FFFFFF" fill-rule="nonzero">
                                    <path d="M1.60465645,1.59448392 C1.47708626,1.69573365 1.45943504,1.72124539 1.41610931,1.78661923 C1.35192305,1.88627448 1.3190276,2.02818355 1.3190276,2.20836023 C1.3190276,2.49377285 1.41370233,2.69866404 1.61027274,2.8365869 C1.60786576,2.83578965 1.89108762,3.07974569 2.55702005,3.07097603 C3.0247774,3.0645981 3.4427904,2.99603529 3.4427904,2.99603529 L3.4427904,1.52113766 L3.44359273,1.52113766 C3.44359273,1.52113766 3.02878904,1.4326438 2.56183401,1.40474033 C1.89750625,1.36487824 1.60224946,1.59528116 1.60465645,1.59448392 M2.90362584,3.87379869 C2.77124168,3.88336559 2.59954344,3.88894628 2.39414742,3.88894628 C2.11413487,3.88894628 1.84375026,3.85386764 1.59021454,3.78610207 C1.33507416,3.71833651 1.10560829,3.61230332 0.908235548,3.47198874 C0.710060477,3.33087691 0.550397161,3.15070023 0.434861897,2.93703938 C0.319326633,2.72337854 0.260756672,2.47145008 0.260756672,2.18922642 C0.260756672,1.90221932 0.310501022,1.65268258 0.409989722,1.44858864 C0.509478421,1.24369746 0.653095173,1.07308768 0.836026008,0.941542756 C1.01735219,0.809997832 1.24120176,0.713531555 1.5011561,0.655332892 C1.75709881,0.597134229 2.04754162,0.567636276 2.3652636,0.567636276 C2.69983447,0.567636276 3.03360301,0.594742503 3.35694128,0.649752198 C3.67707024,0.703964651 4.07021107,0.782891605 4.17932771,0.807606106 C4.28764202,0.833117849 4.40799125,0.865804769 4.40799125,0.865804769 C4.48902641,0.885735818 4.48260778,0.97183795 4.48260778,0.97183795 L4.48100312,3.93837529 C4.48100312,4.58892473 4.30609557,5.07125611 3.96189676,5.37022185 C3.61930261,5.66839034 3.11463816,5.81906907 2.46234532,5.81906907 C2.21763521,5.81906907 1.82369205,5.78558491 1.58780755,5.73854763 C1.58780755,5.73854763 0.874537763,5.60142202 0.580885633,5.37341082 C0.580885633,5.37341082 0.516699375,5.33354872 0.552001817,5.24425762 L0.783072345,4.62719234 C0.811956161,4.54746814 0.889781999,4.57457437 0.889781999,4.57457437 C0.889781999,4.57457437 0.914654174,4.58414127 0.94353799,4.60088336 C1.57176099,4.94050843 2.36606593,4.93014429 2.36606593,4.93014429 C2.71909035,4.93014429 2.99027729,4.85998699 3.17320812,4.72046965 C3.35132499,4.58493852 3.44198807,4.38004733 3.44198807,3.94794219 L3.44198807,3.81081657 C3.1611732,3.85067867 2.90362584,3.87379869 2.90362584,3.87379869" id="path3033"></path>
                                </g>
                                <g id="g3035" transform="translate(41.062684, 19.009706) scale(-1, 1) rotate(-180.000000) translate(-41.062684, -19.009706) translate(39.056863, 15.820738)" fill="#FFFFFF">
                                    <path d="M3.20931289,5.58069373 C3.23418507,5.65403999 3.18203373,5.68911863 3.16037087,5.69709105 C3.10501022,5.71861658 2.82740466,5.77681525 2.61318302,5.79036836 C2.2031933,5.81508286 1.97533208,5.74652005 1.77154072,5.65563447 C1.569354,5.56474889 1.3447021,5.41805637 1.2195389,5.2514328 L1.2195389,5.64606757 C1.2195389,5.70107726 1.18022482,5.74492557 1.1256665,5.74492557 L0.28883816,5.74492557 C0.234279841,5.74492557 0.194965758,5.70107726 0.194965758,5.64606757 L0.194965758,0.807606106 C0.194965758,0.753393653 0.239896139,0.708748103 0.294454458,0.708748103 L1.15214333,0.708748103 C1.20670165,0.708748103 1.2508297,0.753393653 1.2508297,0.807606106 L1.2508297,3.22484373 C1.2508297,3.54932121 1.28693447,3.87300145 1.35914401,4.07629815 C1.42974889,4.27720312 1.52602828,4.438246 1.64477286,4.55384608 C1.76431976,4.66864892 1.89991323,4.74917036 2.04834395,4.79461315 C2.19998399,4.84085319 2.36767058,4.85600078 2.48641516,4.85600078 C2.65731107,4.85600078 2.84505588,4.81215248 2.84505588,4.81215248 C2.90763748,4.8049773 2.94293992,4.84324491 2.96380045,4.89984909 C3.01996343,5.0481361 3.17882442,5.49219987 3.20931289,5.58069373" id="path3037"></path>
                                </g>
                                <g id="g3039" transform="translate(31.296827, 18.942404) scale(-1, 1) rotate(-180.000000) translate(-31.296827, -18.942404) translate(27.796827, 13.942404)" fill="#FFFFFF">
                                    <path d="M6.41862578,9.56690353 C6.31432311,9.59879321 6.21964838,9.62031874 6.09608983,9.64343876 C5.97092663,9.66576153 5.82169358,9.67692292 5.65240233,9.67692292 C5.06188876,9.67692292 4.59653839,9.51109659 4.2699908,9.18422739 C3.94504787,8.85895267 3.72440761,8.36386541 3.61368631,7.71251873 L3.5735699,7.49327719 L2.83221863,7.49327719 C2.83221863,7.49327719 2.74235786,7.49646616 2.72310199,7.39920264 L2.60195043,6.7239387 C2.59312482,6.66015934 2.6212063,6.6195 2.70785775,6.6195 L3.42915082,6.6195 L2.69742748,2.55994394 C2.64046218,2.23307473 2.57467127,1.96440419 2.5016594,1.76031025 C2.43025219,1.55940528 2.36044963,1.40872654 2.27379818,1.29870715 C2.19035605,1.19347122 2.11172788,1.1153415 1.97533208,1.06989871 C1.86300613,1.03242834 1.73302896,1.01488902 1.59101687,1.01488902 C1.5123887,1.01488902 1.4072837,1.02764489 1.32945786,1.04358973 C1.25243436,1.05873732 1.21151562,1.07547941 1.15294566,1.10019391 C1.15294566,1.10019391 1.06870119,1.13208358 1.03500341,1.04837318 C1.00852658,0.979013128 0.815967802,0.453630676 0.792700284,0.389054077 C0.770235094,0.324477478 0.802328223,0.274251235 0.843246962,0.259103637 C0.939526349,0.225619475 1.01093356,0.2032967 1.14171306,0.172204264 C1.32303924,0.12995044 1.47628393,0.127558714 1.61990068,0.127558714 C1.91997144,0.127558714 2.19436769,0.169812538 2.42142658,0.251131218 C2.64928779,0.33324714 2.84826519,0.475953451 3.0247774,0.668886005 C3.21492919,0.877763399 3.33447609,1.0962077 3.4484067,1.39517343 C3.56153498,1.69015296 3.65861669,2.05688426 3.7356402,2.48420595 L4.47137518,6.6195 L5.546495,6.6195 C5.546495,6.6195 5.63715809,6.61631103 5.65561164,6.71437179 L5.77756553,7.38883849 C5.78558881,7.45341509 5.75830965,7.49327719 5.67085588,7.49327719 L4.62702686,7.49327719 C4.63264316,7.51639721 4.67998052,7.88153402 4.79952743,8.22514531 C4.85087643,8.37104059 4.94715582,8.48982964 5.02819097,8.57114832 C5.10842379,8.65087252 5.20069154,8.7074767 5.30178489,8.74016362 C5.40528524,8.77364778 5.52322748,8.78959262 5.65240233,8.78959262 C5.75028637,8.78959262 5.84736809,8.77843123 5.92037995,8.76328363 C6.02147331,8.7417581 6.06078739,8.73059671 6.08726422,8.72262429 C6.19397388,8.69073461 6.20841579,8.72182705 6.22927632,8.77285054 L6.4788004,9.45369517 C6.5044749,9.52704143 6.44109097,9.55813387 6.41862578,9.56690353" id="path3041"></path>
                                </g>
                                <g id="g3043" transform="translate(18.828804, 18.202339) scale(-1, 1) rotate(-180.000000) translate(-18.828804, -18.202339) translate(18.026476, 14.216129)" fill="#FFFFFF">
                                    <path d="M1.60465645,0.797241961 C1.60465645,0.743029507 1.56534236,0.6991812 1.51078404,0.6991812 L0.645071891,0.6991812 C0.590513572,0.6991812 0.552001817,0.743029507 0.552001817,0.797241961 L0.552001817,7.72049115 C0.552001817,7.7747036 0.590513572,7.81855191 0.645071891,7.81855191 L1.51078404,7.81855191 C1.56534236,7.81855191 1.60465645,7.7747036 1.60465645,7.72049115 L1.60465645,0.797241961 Z" id="path3045"></path>
                                </g>
                            </g>
                        </g>
                    </g>
                </g>
            </g>
        </g>
    </g>
</svg>