<?xml version="1.0" encoding="UTF-8"?>
<svg width="30px" height="30px" viewBox="0 0 30 30" version="1.1" xmlns="http://www.w3.org/2000/svg" xmlns:xlink="http://www.w3.org/1999/xlink">
    <!-- Generator: Sketch 49.1 (51147) - http://www.bohemiancoding.com/sketch -->
    <title>Shape</title>
    <desc>Created with Sketch.</desc>
    <defs></defs>
    <g id="Page-1" stroke="none" stroke-width="1" fill="none" fill-rule="evenodd">
        <g id="HF-Homepage" transform="translate(-1018.000000, -3068.000000)" fill="#EC6A34" fill-rule="nonzero">
            <g id="Group-43" transform="translate(0.000000, 2520.000000)">
                <g id="Group-28" transform="translate(306.000000, 155.000000)">
                    <g id="Group-21" transform="translate(0.000000, 148.000000)">
                        <g id="Group-13" transform="translate(672.000000, 200.000000)">
                            <path d="M44.1593774,56.8674847 C44.4385035,56.830027 46.1023208,56.8863793 47.6467967,56.9659355 L50.248438,59.5677547 L43.1065215,66.7082551 C43.1051955,66.7095811 43.1032065,66.710244 43.1025435,66.710907 C43.1012175,66.7122329 43.1012175,66.7135589 43.0998914,66.7148848 L41.8885768,67.9261279 C41.3057932,68.5082141 40.9852291,69.2825611 40.9845661,70.1066308 C40.9845661,70.9293745 41.3057932,71.7037215 41.8879138,72.2858077 L42.8519266,73.2517525 C43.4340472,73.8331757 44.2084399,74.1543839 45.0318952,74.1543839 C45.8566765,74.1543839 46.6310692,73.8331757 47.2131898,73.2504266 L48.4271565,72.0365316 C48.4278195,72.0358686 48.4291455,72.0358686 48.4298085,72.0352056 C48.4304715,72.0338797 48.4304715,72.0332167 48.4311345,72.0325538 L55.5733826,64.8907274 L58.0344663,67.3523288 C58.1140272,68.8963821 58.1703828,70.5597696 58.1349119,70.8259514 C58.050047,71.2499197 57.9621985,71.6891362 62.2568294,74.8627656 C62.3765022,74.9522663 62.5223639,75 62.6718721,75 C62.6718721,75 62.6718721,75 62.6725351,75 L64.2127014,74.9986741 C64.4633183,74.9986741 64.6950394,74.8640915 64.8186903,74.6459749 C64.9423412,74.4285213 64.9403521,74.1610136 64.8120602,73.9455489 L63.2198477,71.264505 C63.1595141,71.0689293 62.9460257,70.1212161 64.1003217,69.3080854 C65.4087669,68.3875539 65.9845889,68.8542836 66.4215108,69.3631118 C66.8073812,69.8135988 67.7965883,71.4796382 68.1449988,72.0829394 C68.2640086,72.290117 68.4818066,72.4213847 68.7211523,72.4313292 C68.9614925,72.4409423 69.1865835,72.3275747 69.3225,72.1303416 C69.3821707,72.0428298 70.7661988,69.9690648 69.3984144,66.4317973 C68.3379339,63.686777 66.9174404,63.2989405 66.7062725,63.2541901 L62.7431454,62.6936504 L60.2581934,60.2075192 L67.6968057,52.7696775 C67.6974687,52.7690145 67.6974687,52.7683516 67.6981317,52.7676886 C67.7551504,52.7113363 67.7972513,52.6420561 67.8313962,52.5681351 C67.8403468,52.5492405 67.8469769,52.5313404 67.8539385,52.5111198 C67.8615631,52.4902363 67.8734972,52.4716732 67.8791328,52.4494638 L69.3483573,46.7151192 C69.409354,46.4774451 69.3413958,46.2261801 69.1703398,46.0521509 C68.9986209,45.8774588 68.7483356,45.8061897 68.5106474,45.8632049 L62.7023704,47.2590847 C62.6264561,47.2779793 62.5591608,47.3107963 62.4958436,47.3509059 C62.4646822,47.3684745 62.4331894,47.3916784 62.402028,47.4201861 C62.3944034,47.4268157 62.3851213,47.431788 62.3781598,47.4390807 C62.3761707,47.4410696 62.3741817,47.4423955 62.3721927,47.4443844 L54.9332488,54.8832205 L52.3070762,52.257203 L51.7365583,48.2412723 C51.7017504,48.0824914 51.313228,46.6627447 48.5670511,45.601001 C45.0302377,44.2342918 42.9563503,45.6175752 42.8698279,45.6779053 C42.6722516,45.8131508 42.5588773,46.040549 42.568491,46.279549 C42.5781046,46.5192121 42.7097115,46.7366657 42.9169014,46.8563315 C43.5202382,47.2047213 45.1850499,48.1925442 45.6362265,48.5790547 C46.1464108,49.0159508 46.613168,49.5917388 45.6912562,50.9001068 C44.8820555,52.0500254 43.9462205,51.8454996 43.7340581,51.7798658 L41.0535189,50.1877473 C40.8373784,50.0601259 40.5698549,50.0574741 40.3523885,50.1817806 C40.134259,50.3054242 40,50.5371316 40,50.7883966 L40,52.329135 C40,52.4779714 40.047405,52.6238245 40.1359165,52.7434902 C43.3100648,57.0372046 43.7489758,56.9490298 44.1593774,56.8674847 Z M43.8388133,72.2655871 L42.8748004,71.3003052 C42.5562253,70.980423 42.3801968,70.5571177 42.3801968,70.1062993 C42.3801968,69.6551493 42.5562253,69.2315126 42.8754634,68.9122933 L43.5968155,68.1909838 L46.9493128,71.5419572 L46.2272977,72.2639297 C45.589816,72.9020367 44.4753004,72.9020367 43.8388133,72.2655871 Z M61.9220106,63.8432375 C62.0287548,63.9506384 62.1679864,64.0199185 62.3174946,64.041465 L66.4573132,64.6248771 C66.4649378,64.626866 67.3371242,64.9653114 68.0979252,66.9343273 C68.6177231,68.2791586 68.6664541,69.3329467 68.5713126,70.0718249 C68.1867682,69.4456513 67.7515038,68.7697551 67.4809968,68.4545137 C66.0512212,66.7894687 64.4172392,67.3791791 63.2964251,68.1677799 C61.5507264,69.3965917 61.6455365,71.096774 61.9385858,71.8237187 C61.9521775,71.8568672 61.9677581,71.8883582 61.9853278,71.9181917 L62.9868006,73.6041202 L62.9012727,73.6047832 C61.4910558,72.5526524 59.9247006,71.2896978 59.5278906,70.8259514 C59.5633615,70.0509414 59.475513,68.1674484 59.4131903,67.0112316 C59.4042397,66.8388599 59.3316404,66.6770956 59.2099785,66.5554409 L56.5599377,63.9055565 L57.4022887,63.0625923 L59.9512209,65.612037 C60.0871374,65.7479455 60.2658179,65.8165627 60.4444985,65.8165627 C60.622516,65.8165627 60.8011965,65.7479455 60.937113,65.612037 C61.2096091,65.339557 61.2096091,64.8986831 60.937113,64.6252086 L58.3881808,62.0764269 L59.2713067,61.1933531 L61.9220106,63.8432375 Z M58.7793552,59.7139393 C58.7793552,59.7139393 58.7793552,59.7139393 58.7786922,59.7139393 C58.7786922,59.7139393 58.7786922,59.7139393 58.7786922,59.7146022 L55.0810995,63.4106507 C55.0810995,63.4106507 55.0804365,63.4113136 55.0797735,63.4113136 C55.0797735,63.4119766 55.0797735,63.4119766 55.0791105,63.4126396 L47.9361995,70.5551288 L44.5837022,67.2048184 L53.5505467,58.2381718 C53.5531988,58.2355199 53.5565138,58.2348569 53.5581713,58.232868 C53.5608234,58.2302161 53.5614864,58.2269013 53.5634754,58.2245809 L62.8658018,48.9241297 L66.217636,52.2757661 L58.7793552,59.7139393 Z M67.7103974,47.4901292 L66.8325755,50.9176755 L64.2388902,48.3248063 L67.7103974,47.4901292 Z M41.3952992,52.0142251 L43.0806642,53.0146443 C43.1104996,53.032213 43.1423239,53.0477927 43.1744798,53.0620465 C43.9021305,53.356073 45.6024132,53.450546 46.8312975,51.7036244 C47.6212709,50.5842024 48.2110161,48.9486595 46.5445468,47.5199628 C46.2306127,47.2504662 45.5596492,46.8188738 44.9360906,46.4360096 C45.679322,46.3415366 46.7335039,46.3876129 48.0641599,46.9020763 C49.8996961,47.6124469 50.3134128,48.4113237 50.3737464,48.551873 L50.958519,52.6838231 C50.9794038,52.8333225 51.0483565,52.9718828 51.1560953,53.0792837 L53.9466937,55.8690544 L53.0635678,56.7521282 L50.4055708,54.0932938 C50.1330747,53.8208138 49.6915117,53.8214767 49.4186842,54.0932938 C49.1461881,54.3664367 49.1461881,54.8073107 49.4186842,55.0801221 L52.0773441,57.7386251 L51.2343301,58.5815893 L48.4437317,55.7911557 C48.3220698,55.669501 48.160296,55.5969059 47.987914,55.5879559 C46.831629,55.5253054 44.9473618,55.4358046 44.172306,55.4712734 C43.7095268,55.0751499 42.4461661,53.5095502 41.3952992,52.0994165 L41.3952992,52.0142251 Z" id="Shape"></path>
                        </g>
                    </g>
                </g>
            </g>
        </g>
    </g>
</svg>