<svg xmlns="http://www.w3.org/2000/svg" width="105" height="30" viewBox="0 0 105 30">
    <g fill="none" fill-rule="evenodd">
        <path fill="#95BF47" fill-rule="nonzero" d="M22.554 5.706a.266.266 0 0 0-.252-.23c-.105 0-2.352-.168-2.352-.168s-1.554-1.553-1.743-1.72c-.168-.168-.504-.126-.63-.085-.021 0-.336.105-.882.273C16.17 2.245 15.246.86 13.629.86h-.147C13.041.273 12.453 0 11.97 0 8.19 0 6.384 4.72 5.817 7.112c-1.47.461-2.52.776-2.646.818-.819.252-.84.273-.945 1.049C2.142 9.566 0 26.139 0 26.139l16.695 3.127 9.051-1.951c0-.021-3.171-21.462-3.192-21.609zm-6.783-1.678c-.42.126-.903.273-1.407.44v-.314c0-.923-.126-1.678-.336-2.287.84.126 1.386 1.07 1.743 2.161zm-2.793-1.951c.231.587.378 1.406.378 2.538v.168c-.924.294-1.911.588-2.919.902.567-2.16 1.638-3.21 2.541-3.608zm-1.113-1.07c.168 0 .336.063.483.168-1.218.566-2.499 1.993-3.045 4.867-.798.252-1.575.482-2.31.713.63-2.182 2.163-5.748 4.872-5.748z"/>
        <path fill="#5E8E3E" d="M22.302 5.455c-.105 0-2.352-.168-2.352-.168s-1.554-1.553-1.743-1.72a.337.337 0 0 0-.231-.105l-1.26 25.804 9.051-1.951-3.192-21.609a.363.363 0 0 0-.273-.251z"/>
        <path fill="#FFF" d="M13.629 10.448l-1.113 3.314s-.987-.524-2.184-.524c-1.764 0-1.848 1.112-1.848 1.384 0 1.51 3.948 2.098 3.948 5.644 0 2.79-1.764 4.594-4.158 4.594-2.877 0-4.326-1.783-4.326-1.783l.777-2.539s1.512 1.301 2.772 1.301c.84 0 1.176-.65 1.176-1.133 0-1.972-3.234-2.056-3.234-5.307 0-2.728 1.953-5.371 5.922-5.371 1.512-.021 2.268.42 2.268.42z"/>
        <path fill="#000" d="M36.309 16.678c-.903-.482-1.365-.902-1.365-1.468 0-.713.651-1.175 1.659-1.175 1.176 0 2.226.482 2.226.482L39.648 12s-.756-.587-2.982-.587c-3.108 0-5.271 1.783-5.271 4.28 0 1.426 1.008 2.496 2.352 3.272 1.092.608 1.47 1.049 1.47 1.7 0 .67-.546 1.216-1.554 1.216-1.491 0-2.919-.776-2.919-.776l-.882 2.517s1.302.881 3.507.881c3.192 0 5.502-1.573 5.502-4.405-.021-1.553-1.176-2.622-2.562-3.42zM49.035 11.37c-1.575 0-2.814.756-3.759 1.889l-.042-.021 1.365-7.133H43.05l-3.465 18.168h3.549l1.176-6.21c.462-2.35 1.68-3.797 2.814-3.797.798 0 1.113.545 1.113 1.321 0 .483-.042 1.091-.147 1.574l-1.344 7.112h3.549l1.386-7.343c.147-.776.252-1.7.252-2.329.021-2.035-1.029-3.23-2.898-3.23z"/>
        <path fill="#000" fill-rule="nonzero" d="M59.997 11.37c-4.284 0-7.119 3.86-7.119 8.161 0 2.749 1.701 4.972 4.893 4.972 4.2 0 7.035-3.755 7.035-8.16.021-2.56-1.47-4.972-4.809-4.972zm-1.743 10.406c-1.218 0-1.722-1.028-1.722-2.328 0-2.035 1.05-5.35 2.982-5.35 1.26 0 1.68 1.09 1.68 2.14 0 2.182-1.071 5.538-2.94 5.538zM73.92 11.37c-2.394 0-3.759 2.12-3.759 2.12h-.042l.21-1.91h-3.15a78.788 78.788 0 0 1-.714 4.72l-2.478 13.008h3.549l.987-5.266h.084s.735.461 2.079.461c4.179 0 6.909-4.28 6.909-8.6 0-2.393-1.071-4.532-3.675-4.532zm-3.402 10.448c-.924 0-1.47-.524-1.47-.524l.588-3.315c.42-2.224 1.575-3.692 2.814-3.692 1.092 0 1.428 1.007 1.428 1.95 0 2.308-1.365 5.581-3.36 5.581z"/>
        <path fill="#000" d="M82.677 6.273a2.03 2.03 0 0 0-2.037 2.056c0 1.049.672 1.783 1.68 1.783h.042c1.113 0 2.058-.755 2.079-2.056 0-1.049-.693-1.783-1.764-1.783zM77.7 24.252h3.549l2.415-12.609h-3.57zM92.715 11.622h-2.478l.126-.587c.21-1.217.924-2.287 2.121-2.287.63 0 1.134.19 1.134.19l.693-2.791s-.609-.315-1.932-.315c-1.26 0-2.52.357-3.486 1.175-1.218 1.028-1.785 2.517-2.058 4.028l-.105.587h-1.659l-.525 2.686h1.659l-1.89 9.944h3.549l1.89-9.944h2.457l.504-2.686zM101.283 11.643s-2.226 5.602-3.213 8.665h-.042c-.063-.986-.882-8.665-.882-8.665h-3.738l2.142 11.56c.042.252.021.42-.084.587-.42.797-1.113 1.574-1.932 2.14-.672.483-1.428.797-2.016 1.007l.987 3.021c.714-.147 2.226-.755 3.486-1.93 1.617-1.51 3.129-3.86 4.662-7.049L105 11.643h-3.717z"/>
    </g>
</svg>
