<?xml version="1.0" encoding="UTF-8"?>
<svg width="36px" height="40px" viewBox="0 0 36 40" version="1.1" xmlns="http://www.w3.org/2000/svg" xmlns:xlink="http://www.w3.org/1999/xlink">
    <!-- Generator: Sketch 49.1 (51147) - http://www.bohemiancoding.com/sketch -->
    <title>Group</title>
    <desc>Created with Sketch.</desc>
    <defs></defs>
    <g id="Page-1" stroke="none" stroke-width="1" fill="none" fill-rule="evenodd">
        <g id="HF-Homepage" transform="translate(-1323.000000, -5107.000000)">
            <g id="Group-32" transform="translate(0.000000, 4518.000000)">
                <g id="Group-50" transform="translate(246.000000, 121.000000)">
                    <g id="Group-31" transform="translate(0.000000, 168.000000)">
                        <g id="Group-29" transform="translate(1015.000000, 240.000000)">
                            <g id="Group" transform="translate(62.000000, 60.000000)">
                                <path d="M16.6287568,1.4592 C16.8535135,1.4592 17.0798919,1.5344 17.2965405,1.6816 C15.6278919,2.45632 13.8392432,4.40768 13.0838919,8.30432 C11.9798919,8.6416 10.9008649,8.9712 9.90324324,9.27616 C10.788,6.304 12.888973,1.4592 16.6287568,1.4592 Z M18.1757838,2.904 C18.4958919,3.69568 18.7041081,4.83168 18.7041081,6.3648 C18.7041081,6.4432 18.7034595,6.51488 18.7028108,6.58752 C17.4353514,6.97472 16.0589189,7.3952 14.6789189,7.81696 C15.4537297,4.86656 16.9060541,3.4416 18.1757838,2.904 Z M22.0167568,5.57568 C21.4384865,5.75232 20.7810811,5.95296 20.0685405,6.17056 C20.0691892,6.0352 20.0695135,5.90176 20.0695135,5.75616 C20.0695135,4.48576 19.8911351,3.46304 19.6041081,2.65216 C20.7561081,2.79488 21.5231351,4.08768 22.0167568,5.57568 Z M31.3676757,7.83712 C31.3397838,7.6368 31.1620541,7.52608 31.0151351,7.51392 C30.8685405,7.50176 27.7654054,7.27488 27.7654054,7.27488 C27.7654054,7.27488 25.6102703,5.16384 25.3738378,4.93024 C25.1370811,4.69696 24.6749189,4.76768 24.4955676,4.81984 C24.468973,4.82752 24.0246486,4.96288 23.2894054,5.1872 C22.5694054,3.14336 21.299027,1.26496 19.0637838,1.26496 C19.0021622,1.26496 18.9385946,1.26752 18.8747027,1.27104 C18.2393514,0.4416 17.4518919,0.08128 16.7717838,0.08128 C11.5650811,0.08128 9.07751351,6.50336 8.29751351,9.76704 C6.27437838,10.3856 4.83697297,10.82528 4.65340541,10.88224 C3.52378378,11.23168 3.48843243,11.26688 3.34021622,12.3168 C3.22832432,13.11168 0.273405405,35.65888 0.273405405,35.65888 L23.2988108,39.91552 L35.7749189,37.25248 C35.7749189,37.25248 31.3952432,8.03744 31.3676757,7.83712 Z" id="Fill-4" fill="#8DB849"></path>
                                <path d="M31.0151351,7.51392 C30.8685405,7.50176 27.7654054,7.27488 27.7654054,7.27488 C27.7654054,7.27488 25.6102703,5.16384 25.3738378,4.93056 C25.2852973,4.8432 25.1659459,4.79872 25.0410811,4.77952 L23.3001081,39.9152 L35.7749189,37.25248 C35.7749189,37.25248 31.3952432,8.03776 31.3676757,7.83712 C31.3397838,7.6368 31.1620541,7.52608 31.0151351,7.51392" id="Fill-5" fill="#5A863E"></path>
                                <path d="M19.0637838,14.31552 L17.5255135,18.8304 C17.5255135,18.8304 16.1776216,18.12064 14.5255135,18.12064 C12.1034595,18.12064 11.9815135,19.62048 11.9815135,19.9984 C11.9815135,22.06048 17.4291892,22.85056 17.4291892,27.68064 C17.4291892,31.48064 14.9867027,33.92768 11.6928649,33.92768 C7.74,33.92768 5.71913514,31.50048 5.71913514,31.50048 L6.77740541,28.05056 C6.77740541,28.05056 8.85502703,29.81056 10.6083243,29.81056 C11.7535135,29.81056 12.2198919,28.92064 12.2198919,28.2704 C12.2198919,25.58048 7.75037838,25.46048 7.75037838,21.04064 C7.75037838,17.32064 10.4562162,13.72064 15.9191351,13.72064 C18.024,13.72064 19.0637838,14.31552 19.0637838,14.31552" id="Fill-6" fill="#FFFFFE"></path>
                            </g>
                        </g>
                    </g>
                </g>
            </g>
        </g>
    </g>
</svg>