<svg xmlns="http://www.w3.org/2000/svg" width="163" height="68" viewBox="0 0 163 68">
    <g fill="#32325D" fill-rule="evenodd">
        <path d="M163 35.158c0-11.547-5.674-20.658-16.52-20.658-10.89 0-17.48 9.111-17.48 20.568 0 13.576 7.78 20.432 18.945 20.432 5.445 0 9.564-1.218 12.675-2.932v-9.02c-3.111 1.533-6.68 2.48-11.21 2.48-4.44 0-8.375-1.534-8.878-6.856h22.376c0-.586.092-2.932.092-4.014zm-22.606-4.285c0-5.097 3.158-7.217 6.04-7.217 2.792 0 5.767 2.12 5.767 7.217h-11.807zM112.5 14.5c-4.455 0-7.318 2.063-8.91 3.497l-.59-2.78H93V67.5l11.364-2.376.045-12.69c1.636 1.166 4.046 2.825 8.046 2.825 8.136 0 15.545-6.457 15.545-20.671-.045-13.003-7.545-20.088-15.5-20.088zm-2.727 30.894c-2.682 0-4.273-.941-5.364-2.107l-.045-16.636c1.181-1.3 2.818-2.197 5.409-2.197 4.136 0 7 4.574 7 10.448 0 6.008-2.818 10.492-7 10.492zM77 11.5l11-2.311V.5L77 2.768zM77 15.5h11v39H77zM64.545 18.31l-.727-3.343H54V54.5h11.364V27.708c2.681-3.479 7.227-2.846 8.636-2.35V14.968c-1.455-.542-6.773-1.536-9.455 3.343zM42.29 5.5L31.046 7.842 31 43.923C31 50.59 36.115 55.5 42.935 55.5c3.78 0 6.544-.676 8.065-1.486v-9.145c-1.475.586-8.756 2.658-8.756-4.009V24.87H51v-9.595h-8.756L42.29 5.5zM11.554 26.71c0-1.757 1.462-2.433 3.882-2.433 3.471 0 7.855 1.036 11.326 2.883V16.573c-3.79-1.487-7.535-2.073-11.326-2.073C6.166 14.5 0 19.276 0 27.25c0 12.436 17.354 10.453 17.354 15.815 0 2.072-1.826 2.748-4.384 2.748-3.79 0-8.631-1.532-12.468-3.604v10.723C4.75 54.734 9.042 55.5 12.97 55.5c9.5 0 16.03-4.64 16.03-12.705-.046-13.427-17.446-11.039-17.446-16.085z"/>
    </g>
</svg>
