<svg xmlns="http://www.w3.org/2000/svg" width="174" height="26" viewBox="0 0 174 26">
    <g fill="none" fill-rule="evenodd">
        <path fill="#404041" fill-rule="nonzero" d="M30.918 16.397h3.743v.243c0 .485.104.797.347.936.243.173.693.243 1.421.243h4.714c.347.034.693-.07 1.005-.243a.99.99 0 0 0 .277-.797c.035-.312-.069-.624-.346-.798-.45-.208-.97-.312-1.456-.346l-5.962-.104c-1.525-.035-2.495-.347-3.015-.867s-.797-1.456-.797-2.843a5.783 5.783 0 0 1 .173-1.733c.139-.416.347-.832.658-1.144a3.21 3.21 0 0 1 1.422-.693c.935-.174 1.871-.278 2.842-.243h5.754c1.42 0 2.46.243 3.084.763.624.52.936 1.386.936 2.565v.243c0 .138 0 .277-.034.416h-3.64v-.035a1.008 1.008 0 0 0-.346-.901 1.306 1.306 0 0 0-.936-.278h-4.368a2.873 2.873 0 0 0-1.42.243.813.813 0 0 0-.347.763.847.847 0 0 0 .346.762c.382.174.763.278 1.179.278l6.204.104c1.421.034 2.426.381 2.981.936.555.624.867 1.594.867 3.085a4.262 4.262 0 0 1-.347 1.976c-.45.97-1.386 1.595-2.461 1.699-.797.104-1.63.173-2.46.138h-5.061c-2.08 0-3.467-.242-4.16-.693-.693-.485-1.04-1.317-1.04-2.6v-.381c.174-.208.278-.451.243-.694zm16.741-8.216h3.778v7.315c0 .867.174 1.421.555 1.699.381.277 1.213.416 2.496.416h2.114c1.04 0 1.733-.139 2.114-.486.382-.277.52-.866.52-1.664V8.147h3.778v8.493c0 1.456-.38 2.496-1.178 3.12-.797.624-2.114.901-4.056.901h-4.194c-2.253 0-3.812-.277-4.679-.866-.866-.555-1.282-1.664-1.282-3.155V8.181h.034zm28.735 4.438c0-.624-.174-1.006-.52-1.179-.347-.173-1.144-.347-2.323-.347h-2.218c-1.282 0-2.114.139-2.46.486-.382.346-.555.936-.555 1.941v1.733c0 .902.173 1.526.623 1.838.451.312 1.214.485 2.427.485h2.183c1.075 0 1.837-.104 2.219-.277.416-.174.658-.59.624-1.04 0-.104 0-.208-.035-.347v-.035h-4.437v-2.496h8.423v4.056c0 1.179-.416 1.976-1.282 2.496-.867.486-2.357.763-4.506.763h-4.194a15.654 15.654 0 0 1-2.843-.173 3.728 3.728 0 0 1-1.56-.694c-.485-.381-.866-.866-1.074-1.456a6.553 6.553 0 0 1-.347-2.184v-3.397c0-1.733.416-3.016 1.283-3.675.866-.693 2.357-1.04 4.575-1.04h4.194c1.005-.034 2.01.035 3.016.174.554.069 1.074.277 1.525.624.381.312.693.728.866 1.178.208.624.312 1.248.278 1.907v.693l-3.882-.034zm7.972 7.904H80.24L87 8.147h4.853l6.655 12.376h-4.16l-1.178-2.08h-7.556l-1.248 2.08zm2.669-4.992h4.783l-2.426-4.403-2.357 4.403zm21.836-7.35c1.976 0 3.293.278 4.021.902.693.554 1.075 1.664 1.075 3.154 0 1.075-.14 1.907-.486 2.427-.381.555-.97.936-1.594 1.04a2.64 2.64 0 0 1 1.456.797c.346.416.52.971.485 1.526v2.496h-3.778v-1.907c.034-.347-.104-.728-.347-1.005-.242-.174-.658-.278-1.386-.278h-5.615v3.155h-3.778V8.147h9.947v.034zm-.138 3.086h-5.997v3.016h5.997c.38.034.762-.104 1.04-.347.173-.243.277-.659.277-1.283.034-.381-.07-.797-.347-1.074-.138-.208-.52-.312-.97-.312z"/>
        <path fill="#E22329" d="M13.622 8.944a2.963 2.963 0 0 1-2.045 0L1.629 4.992c-.554-.243-.554-.555 0-.797L11.612.208a2.963 2.963 0 0 1 2.045 0l9.947 3.952c.555.243.555.555 0 .797l-9.982 3.987z"/>
        <path fill="#404041" d="M12.305 24.89a.717.717 0 0 1-.555.763.567.567 0 0 1-.416-.069l-9.982-4.021a1.72 1.72 0 0 1-1.005-1.456V6.309A.717.717 0 0 1 .9 5.547a.567.567 0 0 1 .416.069L11.3 9.603c.589.277.97.832 1.005 1.456V24.89z"/>
        <path fill="#929497" d="M12.929 24.89a.717.717 0 0 0 .554.763c.139.035.312 0 .416-.069l9.983-3.917a1.72 1.72 0 0 0 1.005-1.456V6.379a.717.717 0 0 0-.555-.763.567.567 0 0 0-.416.07l-9.982 3.986a1.72 1.72 0 0 0-1.005 1.456v13.763z"/>
        <path fill="#636668" fill-rule="nonzero" d="M142.562 8.181c1.976 0 3.293.278 4.02.902.694.554 1.075 1.664 1.075 3.154 0 1.075-.138 1.907-.485 2.427-.381.555-.97.936-1.594 1.04a2.64 2.64 0 0 1 1.455.797c.347.416.52.971.52 1.526v2.496h-3.778v-1.907c0-.485-.104-.797-.346-1.005-.243-.174-.694-.278-1.387-.278h-5.684v3.155h-3.778V8.147h9.982v.034zm-.208 3.086h-5.962v3.016h5.997c.381.034.762-.104 1.04-.347.173-.243.277-.659.277-1.283.035-.381-.07-.797-.347-1.074-.138-.208-.52-.312-1.005-.312zm-15.008 1.352v-.139a1.127 1.127 0 0 0-.485-1.04c-.347-.243-.798-.347-1.526-.347h-3.015c-1.283 0-2.114.139-2.496.486-.381.346-.554 1.005-.554 1.976v1.698c0 .902.173 1.526.624 1.838.416.346 1.213.52 2.426.52h2.184c1.178 0 1.975-.139 2.357-.382.38-.242.554-.693.554-1.317v-.139h3.813v.104c0 .382.035.624.035.798a5.46 5.46 0 0 1-.278 1.976c-.173.485-.52.936-.936 1.213a4.577 4.577 0 0 1-1.594.659c-.97.173-1.976.208-2.98.173h-4.16a15.654 15.654 0 0 1-2.842-.173 3.728 3.728 0 0 1-1.56-.694 3.409 3.409 0 0 1-1.075-1.456 6.553 6.553 0 0 1-.346-2.184v-3.362c0-1.803.416-3.016 1.282-3.744.867-.694 2.357-1.04 4.575-1.04h4.194c1.006-.035 2.01.034 3.016.173a3.946 3.946 0 0 1 1.525.624c.381.312.693.728.867 1.213.208.624.312 1.283.277 1.942v.416c0 .104 0 .208-.035.277h-3.813v-.07h-.034zm25.51 7.904h-3.674V8.18h5.616l4.402 7.696 4.506-7.696h5.545v12.342h-3.674v-8.806l-5.095 8.806h-2.46l-5.165-8.771v8.77zm19.48-2.635c.728 0 1.317.59 1.317 1.317a1.26 1.26 0 0 1-1.247 1.318h-.07c-.728 0-1.317-.59-1.317-1.318a1.26 1.26 0 0 1 1.248-1.317h.07zm0 .173c-.589.035-1.074.52-1.074 1.144 0 .624.485 1.11 1.074 1.144a1.08 1.08 0 0 0 1.075-1.074v-.07c0-.589-.486-1.074-1.075-1.144zm-.242 1.942h-.243v-1.456c.139 0 .243-.035.416-.035s.312.035.485.104a.33.33 0 0 1 .139.347c0 .173-.104.312-.277.381.138 0 .242.139.242.381.035.243.104.347.104.382h-.242a.699.699 0 0 1-.104-.382c0-.173-.174-.277-.347-.277h-.139v.624l-.034-.07zm0-.832h.173a.32.32 0 0 0 .381-.243c0-.173-.138-.312-.312-.277h-.242v.52z"/>
    </g>
</svg>
