<?xml version="1.0" encoding="UTF-8"?>
<svg width="27px" height="30px" viewBox="0 0 27 30" version="1.1" xmlns="http://www.w3.org/2000/svg" xmlns:xlink="http://www.w3.org/1999/xlink">
    <!-- Generator: Sketch 49.1 (51147) - http://www.bohemiancoding.com/sketch -->
    <title>support</title>
    <desc>Created with Sketch.</desc>
    <defs></defs>
    <g id="Page-1" stroke="none" stroke-width="1" fill="none" fill-rule="evenodd">
        <g id="HF-Homepage" transform="translate(-338.000000, -3857.000000)" fill-rule="nonzero">
            <g id="Group-16" transform="translate(306.000000, 3624.000000)">
                <g id="Group-15" transform="translate(0.000000, 168.000000)">
                    <g id="Group-27" transform="translate(30.000000, 65.000000)">
                        <g id="support" transform="translate(2.000000, 0.000000)">
                            <path d="M26.0126379,20.3695312 L26.4871164,19.5419531 C26.7792866,19.0324805 26.902125,18.4569727 26.8485905,17.8829297 C26.8565043,17.8444336 26.860694,17.8045898 26.860694,17.7636914 L26.860694,13.3907812 C26.860694,9.81375 25.4744418,6.45087891 22.9573319,3.92162109 C20.4404547,1.39277344 17.094375,0 13.5352047,0 C9.97603448,0 6.62995474,1.39277344 4.11319397,3.92162109 C1.59608405,6.45087891 0.209831897,9.81380859 0.209831897,13.3907812 L0.209831897,18.0851953 C0.199241379,18.5912695 0.325571121,19.0923047 0.583409483,19.5418945 L1.04171121,20.3411719 C0.575030172,20.6391797 0.241079741,21.0955664 0.0971767241,21.6363867 C-0.0548146552,22.2076172 0.0231594828,22.8042773 0.316784483,23.3164453 L0.933303879,24.3916992 C1.34010776,25.1011523 2.0806875,25.4983008 2.84110991,25.4982422 C3.18448707,25.4982422 3.53164655,25.4161523 3.85419181,25.2464648 L3.96568319,25.4409375 C4.33774784,26.0898047 4.93849784,26.5539844 5.65725647,26.7479883 C5.8972306,26.8126758 6.1408125,26.8447266 6.38282328,26.8447266 C6.86550647,26.8447266 7.34190517,26.7172266 7.77117026,26.4676758 L8.57744612,25.9989258 C9.22183836,25.6242773 9.68281681,25.0193555 9.87548276,24.2956055 C10.0680905,23.5718555 9.96922629,22.8158789 9.59716164,22.1670117 L6.21488793,16.2680273 C5.84282328,15.6191602 5.24207328,15.1549805 4.52331466,14.9609766 C4.32832112,14.908418 4.13094181,14.8781836 3.93396983,14.8683984 L3.93396983,13.4179688 C3.93396983,9.15767578 6.76559483,5.34316406 10.8199591,4.141875 C11.1282478,4.05046875 11.3046207,3.72480469 11.2139612,3.41431641 C11.1231853,3.10388672 10.7998254,2.92640625 10.4914203,3.01757812 C8.30709698,3.66486328 6.34174138,5.03208984 4.95735129,6.86748047 C3.52646767,8.76462891 2.77011853,11.0296875 2.77011853,13.4179688 L2.77011853,14.9626172 C2.77011853,14.9961914 2.77355172,15.0289453 2.77896336,15.0609961 C2.65269181,15.1115039 2.52915517,15.1715625 2.40934267,15.2412305 L1.60306681,15.7099805 C1.52369612,15.7560937 1.44723491,15.8057813 1.373625,15.8586914 L1.373625,13.3907813 C1.373625,6.65326172 6.8293125,1.171875 13.5352629,1.171875 C20.2412134,1.171875 25.6969009,6.65326172 25.6969009,13.3907813 L25.6969009,15.8586914 C25.6232909,15.8057813 25.5467716,15.7560938 25.4674591,15.7099805 L24.6611832,15.2412305 C24.5413707,15.1715625 24.4178341,15.1115039 24.2915625,15.0609961 C24.2969741,15.0289453 24.3004073,14.99625 24.3004073,14.9626172 L24.3004073,13.4179688 C24.3004073,11.0041992 23.5293944,8.7196875 22.0707543,6.81152344 C20.6584332,4.96394531 18.6590366,3.60240234 16.4410216,2.97767578 C16.1319181,2.89066406 15.8104784,3.07248047 15.7239504,3.38419922 C15.6373642,3.69580078 15.8180431,4.01912109 16.1276121,4.10630859 C20.254306,5.26857422 23.1364978,9.09773437 23.1364978,13.4179688 L23.1364978,14.8683398 C22.9395259,14.878125 22.7422047,14.9083594 22.547153,14.9609766 C21.8283362,15.1549805 21.2275862,15.6191016 20.8555797,16.2680273 L17.473306,22.1670117 C17.1011832,22.8158789 17.0023772,23.5719141 17.1949849,24.2956055 C17.3876509,25.0194141 17.8485711,25.6243359 18.4930216,25.9989258 L19.2992974,26.4676758 C19.7285625,26.7172852 20.204903,26.8447852 20.6876444,26.8447266 C20.929597,26.8447266 21.1732371,26.8126758 21.4132112,26.7479883 C22.132028,26.5539844 22.732778,26.0898633 23.1047845,25.4409375 L23.2033578,25.2689648 C23.4941315,25.4117578 23.8078319,25.4864062 24.125722,25.4915039 L24.125722,26.8066406 C24.125722,27.9212695 23.2251207,28.828125 22.1181789,28.828125 L15.6527263,28.828125 L15.6527263,27.1875 C15.6527263,26.0243555 14.7130216,25.078125 13.5578987,25.078125 C12.4027759,25.078125 11.4630711,26.0243555 11.4630711,27.1875 L11.4630711,29.4140625 C11.4630711,29.7376172 11.7236444,30 12.0449677,30 L22.1181789,30 C23.8668944,30 25.2895151,28.5675 25.2895151,26.8066406 L25.2895151,25.1800195 C25.6092672,24.9888281 25.877056,24.717832 26.0680927,24.384668 L26.6846703,23.3094141 C27.264472,22.2982031 26.9588599,21.0135938 26.0126379,20.3695312 Z M2.18496336,16.7248828 L2.99123922,16.2561328 C3.24605172,16.1080078 3.52448922,16.0376367 3.79955172,16.0376367 C4.36055819,16.0376367 4.90690086,16.3306641 5.2070431,16.8540234 L8.58931681,22.7530078 C9.0365625,23.5329492 8.77017026,24.5338477 7.99560776,24.9841406 L7.1893319,25.4528906 C6.41471121,25.9031836 5.42077371,25.6349414 4.97358621,24.8550586 L1.59125431,18.9560156 C1.14400862,18.1760742 1.41034267,17.1751758 2.18496336,16.7248828 Z M1.62465517,21.3580664 L3.27153879,24.230332 C3.05198922,24.3329883 2.80602155,24.3552539 2.56953879,24.2912695 C2.30250647,24.2192578 2.07929095,24.0468164 1.94109052,23.8057617 L1.32457112,22.7305078 C1.18637069,22.4894531 1.14965302,22.2086133 1.22122629,21.9397266 C1.28465302,21.7014258 1.42657759,21.4981641 1.62465517,21.3580664 Z M14.4889914,28.828125 L12.6269224,28.828125 L12.6269224,27.1875 C12.6269224,26.6705859 13.0446078,26.25 13.5579569,26.25 C14.071306,26.25 14.4889914,26.6705859 14.4889914,27.1875 L14.4889914,28.828125 Z M22.0969978,24.8549414 C21.6498103,25.6348828 20.6556983,25.9030078 19.881194,25.452832 L19.0749181,24.984082 C18.3002974,24.5337305 18.0339634,23.532832 18.4812091,22.7529492 L21.8634828,16.8539648 C22.1635668,16.3305469 22.7099095,16.0375781 23.2709741,16.0375781 C23.5459784,16.0375781 23.8245323,16.1080078 24.0792866,16.2560742 L24.8855625,16.7248242 C25.6601832,17.1751758 25.9265172,18.1760742 25.4792716,18.955957 L22.0969978,24.8549414 Z M25.6768836,22.7234766 L25.060306,23.7987891 C24.9221056,24.0397852 24.6989483,24.2122852 24.4319159,24.2842969 C24.2162069,24.3424219 23.9930496,24.3283008 23.7889203,24.247793 L25.42725,21.3904102 C25.8190409,21.706582 25.9353621,22.2724805 25.6768836,22.7234766 Z" id="Shape" fill="#E2434B"></path>
                            <path d="M13.5352047,2.578125 C13.5071573,2.578125 13.4795172,2.58011719 13.4525172,2.58404297 C13.1322996,2.626875 12.9436487,2.90056641 12.9434741,3.16412109 C12.9433578,3.44941406 13.1625,3.74677734 13.5293276,3.75046875 C13.5313642,3.75052734 13.5333427,3.75052734 13.5353211,3.75052734 C13.554931,3.75052734 13.57425,3.74953125 13.593278,3.74765625 C13.8913254,3.72029297 14.1282737,3.46763672 14.1269353,3.16142578 C14.1254806,2.83886719 13.855597,2.578125 13.5352047,2.578125 Z" id="Shape" fill="#323643"></path>
                            <path d="M10.6299698,18.193125 L10.5845819,18.193125 C10.2632586,18.193125 10.0026853,18.4555078 10.0026853,18.7790625 C10.0026853,19.1026172 10.2632586,19.365 10.5845819,19.365 L10.6299698,19.365 C10.9512931,19.365 11.2118664,19.1026172 11.2118664,18.7790625 C11.2118664,18.4555078 10.9512931,18.193125 10.6299698,18.193125 Z" id="Shape" fill="#323643"></path>
                            <path d="M13.5579569,18.193125 L13.5126272,18.193125 C13.1913039,18.193125 12.9307306,18.4555078 12.9307306,18.7790625 C12.9307306,19.1026172 13.1912457,19.365 13.5126272,19.365 L13.5579569,19.365 C13.8792802,19.365 14.1398534,19.1026172 14.1398534,18.7790625 C14.1398534,18.4555078 13.879222,18.193125 13.5579569,18.193125 Z" id="Shape" fill="#323643"></path>
                            <path d="M16.485944,18.193125 L16.440556,18.193125 C16.1192328,18.193125 15.8586595,18.4555078 15.8586595,18.7790625 C15.8586595,19.1026172 16.1192328,19.365 16.440556,19.365 L16.485944,19.365 C16.8072672,19.365 17.0678405,19.1026172 17.0678405,18.7790625 C17.0678405,18.4555078 16.8072091,18.193125 16.485944,18.193125 Z" id="Shape" fill="#323643"></path>
                        </g>
                    </g>
                </g>
            </g>
        </g>
    </g>
</svg>