<?xml version="1.0" encoding="UTF-8"?>
<svg width="26px" height="26px" viewBox="0 0 26 26" version="1.1" xmlns="http://www.w3.org/2000/svg" xmlns:xlink="http://www.w3.org/1999/xlink">
    <!-- Generator: Sketch 49.1 (51147) - http://www.bohemiancoding.com/sketch -->
    <title>link</title>
    <desc>Created with Sketch.</desc>
    <defs></defs>
    <g id="Page-1" stroke="none" stroke-width="1" fill="none" fill-rule="evenodd">
        <g id="HF-Homepage" transform="translate(-1010.000000, -4099.000000)" fill-rule="nonzero">
            <g id="Group-16" transform="translate(306.000000, 3624.000000)">
                <g id="Group-15" transform="translate(672.000000, 408.000000)">
                    <g id="Group-27" transform="translate(30.000000, 65.000000)">
                        <g id="link" transform="translate(2.000000, 2.000000)">
                            <path d="M8.66668359,8.66668359 C3.88019531,8.66668359 0,12.5468789 0,17.3333164 C0,22.1197539 3.88019531,26 8.66668359,26 C13.4507852,25.9943125 17.3276797,22.1174687 17.3333672,17.3333164 C17.3333164,12.5468789 13.4531211,8.66668359 8.66668359,8.66668359 Z M8.66668359,24.9166836 C4.4785,24.9166836 1.08336719,21.5215 1.08336719,17.3333672 C1.08336719,13.1452344 4.4785,9.75 8.66668359,9.75 C12.8529883,9.75446875 16.2455313,13.1470117 16.25,17.3333164 C16.25,21.5215 12.8548164,24.9166836 8.66668359,24.9166836 Z" id="Shape" fill="#323643"></path>
                            <path d="M21.125,0 C18.4326289,0 16.25,2.18262891 16.25,4.875 C16.25,7.56737109 18.4326289,9.75 21.125,9.75 C23.8161523,9.74700391 25.9970039,7.56615234 26,4.875 C26,2.18262891 23.8173711,0 21.125,0 Z M21.125,8.66668359 C19.0309336,8.66668359 17.3333164,6.96911719 17.3333164,4.875 C17.3333164,2.78088281 19.0309336,1.08331641 21.125,1.08331641 C23.2181016,1.08570313 24.9142969,2.78189844 24.9166836,4.875 C24.9166836,6.96906641 23.2190664,8.66668359 21.125,8.66668359 Z" id="Shape" fill="#323643"></path>
                            <rect id="Rectangle-path" fill="#323643" transform="translate(16.249954, 9.749886) rotate(-45.000000) translate(-16.249954, -9.749886) " x="13.1857665" y="9.20823311" width="6.12837482" height="1.08330602"></rect>
                            <path d="M22.75,19.5 C20.9550859,19.5 19.5,20.9550859 19.5,22.75 C19.5,24.5449141 20.9550859,26 22.75,26 C24.5442031,25.9982227 25.9982227,24.5442031 26,22.75 C26,20.9550859 24.5449141,19.5 22.75,19.5 Z M22.75,24.9166836 C21.5533906,24.9166836 20.5833164,23.9466602 20.5833164,22.75 C20.5833164,21.5533906 21.5533398,20.5833164 22.75,20.5833164 C23.9466094,20.5833164 24.9166836,21.5533398 24.9166836,22.75 C24.9166836,23.9466094 23.9466094,24.9166836 22.75,24.9166836 Z" id="Shape" fill="#323643"></path>
                            <rect id="Rectangle-path" fill="#323643" transform="translate(18.415674, 20.854077) rotate(-69.444625) translate(-18.415674, -20.854077) " x="17.8737562" y="18.5401593" width="1.08383647" height="4.62783547"></rect>
                            <path d="M12.6295,21.1531836 C11.834875,20.8894258 11.0545195,20.5843828 10.2916836,20.239375 L10.2916836,20.2144414 C11.6131133,19.5863281 12.4559805,18.2547422 12.4583672,16.7916328 L12.4583672,15.1666328 C12.4583672,13.0725664 10.7608008,11.3749492 8.66668359,11.3749492 C6.57256641,11.3749492 4.875,13.0725664 4.875,15.1666836 L4.875,16.7916836 C4.87733594,18.254793 5.72025391,19.5863789 7.04168359,20.2144922 L7.04168359,20.2394258 C6.27879688,20.5844336 5.49849219,20.8894258 4.70386719,21.1532344 C2.73111719,21.8108008 2.70836719,23.2316094 2.70836719,23.2917344 L3.79168359,23.3063594 C3.79168359,23.2771094 3.84586719,22.580543 5.04618359,22.1829258 C5.99569141,21.8727031 6.92407422,21.5012891 7.82549219,21.0708672 C8.01003125,20.9786484 8.12616797,20.7896406 8.12505078,20.5833672 L8.12505078,19.8526758 C8.12489844,19.6233984 7.98042578,19.4190039 7.76430078,19.3424258 C6.68382812,18.9592305 5.96090625,17.9381211 5.95836719,16.7917344 L5.95836719,15.1667344 C5.95836719,13.6709727 7.17092187,12.458418 8.66668359,12.458418 C10.1624453,12.458418 11.375,13.6708711 11.375,15.1666836 L11.375,16.7916836 C11.3725117,17.9381211 10.6495898,18.9591797 9.56906641,19.342375 C9.35294141,19.4189531 9.20846875,19.6233477 9.20831641,19.852625 L9.20831641,20.5833164 C9.20719922,20.7895898 9.32333594,20.9785977 9.507875,21.0708164 C10.4091914,21.5002734 11.3373711,21.8708242 12.286625,22.1801328 C13.4875,22.5804414 13.5416836,23.2770078 13.5416836,23.3062578 L14.0833672,23.2916328 L14.625,23.2916328 C14.625,23.2315586 14.60225,21.81075 12.6295,21.1531836 Z" id="Shape" fill="#EF6C35"></path>
                            <path d="M18.4166836,4.875 L19.5,4.875 C19.5,3.97754297 20.227543,3.25 21.125,3.25 L21.125,2.16668359 C19.6299492,2.16846094 18.4184609,3.37994922 18.4166836,4.875 Z" id="Shape" fill="#EF6C35"></path>
                            <rect id="Rectangle-path" fill="#EF6C35" x="22.2083164" y="22.2083164" width="1.08331641" height="1.08331641"></rect>
                            <rect id="Rectangle-path" fill="#323643" x="13.5416836" y="16.7916836" width="1.08331641" height="1.08331641"></rect>
                            <rect id="Rectangle-path" fill="#323643" x="2.16668359" y="16.7916836" width="1.08331641" height="1.08331641"></rect>
                        </g>
                    </g>
                </g>
            </g>
        </g>
    </g>
</svg>