<?xml version="1.0" encoding="UTF-8"?>
<svg width="20px" height="20px" viewBox="0 0 20 20" version="1.1" xmlns="http://www.w3.org/2000/svg" xmlns:xlink="http://www.w3.org/1999/xlink">
    <!-- Generator: sketchtool 50.2 (55047) - http://www.bohemiancoding.com/sketch -->
    <title>8CB40177-B6BA-4BD1-81CC-2FA1D2922036@1x</title>
    <desc>Created with sketchtool.</desc>
    <defs></defs>
    <g id="v1" stroke="none" stroke-width="1" fill="none" fill-rule="evenodd" opacity="0.900000036">
        <g id="HF-Homepage" transform="translate(-930.000000, -7227.000000)" fill="#FFFFFF" fill-rule="nonzero">
            <g id="Group-42" transform="translate(0.000000, 6119.000000)">
                <g id="Group-41" transform="translate(246.000000, 1108.000000)">
                    <g id="Group-40" transform="translate(644.000000, 0.000000)">
                        <g id="twitter-(1)" transform="translate(40.000000, 0.000000)">
                            <path d="M9.92902655,19.8576991 C4.44547435,19.8576991 0.00017699115,15.4124018 0.00017699115,9.92884956 C0.00017699115,4.44529736 4.44547435,0 9.92902655,0 C15.4125787,0 19.8578761,4.44529736 19.8578761,9.92884956 C19.8578761,15.4124018 15.4125787,19.8576991 9.92902655,19.8576991 Z M16.0107965,7.13557522 C15.5853097,7.32424779 15.1276106,7.45185841 14.6476106,7.50884956 C15.1376991,7.21522124 15.5138053,6.75061947 15.6913274,6.19610619 C15.2327434,6.46814159 14.7246018,6.66548673 14.1842478,6.77185841 C13.7513274,6.31079646 13.1345133,6.02265487 12.4515044,6.02265487 C11.1410619,6.02265487 10.0782301,7.08548673 10.0782301,8.3959292 C10.0782301,8.5819469 10.099292,8.76300885 10.14,8.93681416 C8.16761062,8.83787611 6.41876106,7.89309735 5.24814159,6.45681416 C5.04389381,6.80725664 4.92672566,7.21522124 4.92672566,7.6500885 C4.92672566,8.47327434 5.3460177,9.2 5.98247788,9.62548673 C5.59362832,9.61327434 5.22743363,9.50654867 4.90761062,9.32831858 C4.90743363,9.33840708 4.90743363,9.34849558 4.90743363,9.35840708 C4.90743363,10.5083186 5.72584071,11.4674336 6.81132743,11.6853097 C6.61238938,11.739823 6.40230088,11.7686726 6.18619469,11.7686726 C6.03292035,11.7686726 5.88442478,11.7539823 5.73964602,11.7263717 C6.04159292,12.6690265 6.91787611,13.3552212 7.95663717,13.3745133 C7.14424779,14.0111504 6.12106195,14.3904425 5.00884956,14.3904425 C4.81769912,14.3904425 4.62831858,14.379292 4.44300885,14.3571681 C5.49274336,15.0307965 6.74053097,15.4235398 8.08070796,15.4235398 C12.4460177,15.4235398 14.8332743,11.8072566 14.8332743,8.67079646 C14.8332743,8.5679646 14.8309735,8.46548673 14.8263717,8.36389381 C15.2904425,8.02938053 15.6927434,7.61150442 16.0107965,7.13557522 Z" id="Combined-Shape"></path>
                        </g>
                    </g>
                </g>
            </g>
        </g>
    </g>
</svg>