<?xml version="1.0" encoding="UTF-8"?>
<svg width="160px" height="80px" viewBox="0 0 160 80" version="1.1" xmlns="http://www.w3.org/2000/svg" xmlns:xlink="http://www.w3.org/1999/xlink">
    <!-- Generator: Sketch 51.3 (57544) - http://www.bohemiancoding.com/sketch -->
    <title>whirlpool@1x</title>
    <desc>Created with Sketch.</desc>
    <defs>
        <polygon id="path-1" points="0 39.9002494 119.9244 39.9002494 119.9244 0.0400997506 0 0.0400997506"></polygon>
    </defs>
    <g id="whirlpool" stroke="none" stroke-width="1" fill="none" fill-rule="evenodd">
        <g>
            <rect id="Rectangle" fill-rule="nonzero" x="0" y="0" width="160" height="80"></rect>
            <g id="Group-14" transform="translate(20.000000, 20.000000)">
                <polygon id="Fill-1" fill="#231F20" points="24.73929 4.41604988 20.34669 20.7498155 15.88959 4.41604988 12.36939 4.41604988 7.94479 20.7498155 3.55269 4.41604988 -1e-05 4.41604988 6.16849 26.9030324 9.75349 26.9030324 14.17819 10.5691671 18.53839 26.9030324 22.12289 26.9030324 28.29149 4.41604988"></polygon>
                <g id="Group-13" transform="translate(0.000000, 0.059651)">
                    <path d="M29.93612,4.42094763 L33.48872,4.13107232 L33.48872,9.63970075 L33.42392,11.7015461 L33.55352,11.7015461 C35.20032,11.0893766 36.52492,10.7995012 38.13962,10.7995012 C41.01422,10.7995012 42.95162,12.0883791 42.95162,17.0169576 L42.95162,26.8433915 L39.39902,26.8433915 L39.39902,17.3069327 C39.39902,14.3432419 37.94572,13.956808 36.29902,13.956808 C35.26512,13.956808 34.39312,14.1825436 33.48872,14.4401995 L33.48872,26.8433915 L29.93612,26.8433915 L29.93612,4.42094763 Z" id="Fill-2" fill="#231F20"></path>
                    <mask id="mask-2" fill="white">
                        <use xlink:href="#path-1"></use>
                    </mask>
                    <g id="Clip-5"></g>
                    <path d="M46.0508,26.8433915 L49.6034,26.8433915 L49.6034,11.0252369 L46.0508,11.0252369 L46.0508,26.8433915 Z M47.8271,4.64628429 C49.6682,4.64628429 49.9589,5.70942643 49.9589,6.90154613 C49.9589,8.09346633 49.5711,9.18902743 47.8271,9.18902743 C46.0832,9.18902743 45.7278,8.09346633 45.7278,6.90154613 C45.7278,5.70942643 46.0508,4.64628429 47.8271,4.64628429 Z" id="Fill-4" fill="#231F20" mask="url(#mask-2)"></path>
                    <path d="M52.60634,11.025187 L55.02874,11.025187 L55.51324,12.3136658 L55.73964,12.3136658 C56.67594,11.5085786 58.16114,10.7994514 60.09944,10.7994514 C60.32534,10.7994514 60.58364,10.7994514 60.84184,10.8317706 L60.84184,14.3108728 C60.19664,14.2149127 59.51814,14.1179551 58.83964,14.1179551 C57.87054,14.1179551 57.09574,14.3432918 56.15894,14.7621446 L56.15894,26.8433416 L52.60634,26.8433416 L52.60634,11.025187 Z" id="Fill-6" fill="#231F20" mask="url(#mask-2)"></path>
                    <polygon id="Fill-7" fill="#231F20" mask="url(#mask-2)" points="62.35902 26.8433616 62.35902 4.42091771 65.91162 4.13104239 65.91162 26.8433616"></polygon>
                    <path d="M94.52455,19.0142045 C94.52455,16.0188928 94.03945,13.570414 91.19775,13.570414 C88.32365,13.570414 87.61275,15.9219352 87.61275,19.0142045 C87.61275,21.8813367 88.19405,24.3623342 91.03665,24.3623342 C93.87845,24.3623342 94.52455,22.0106135 94.52455,19.0142045 M91.16535,10.7994414 C96.20365,10.7994414 98.14195,13.7633317 98.14195,19.0142045 C98.14195,23.943182 96.33325,27.1656259 91.10065,27.1656259 C85.86875,27.1656259 84.02775,23.943182 84.02775,19.0142045 C84.02775,13.7633317 86.12705,10.7994414 91.16535,10.7994414" id="Fill-8" fill="#231F20" mask="url(#mask-2)"></path>
                    <path d="M110.45433,19.0142045 C110.45433,16.0188928 109.96923,13.570414 107.12753,13.570414 C104.25333,13.570414 103.54253,15.9219352 103.54253,19.0142045 C103.54253,21.8813367 104.12383,24.3623342 106.96643,24.3623342 C109.80823,24.3623342 110.45433,22.0106135 110.45433,19.0142045 M107.09513,10.7994414 C112.13343,10.7994414 114.07173,13.7633317 114.07173,19.0142045 C114.07173,23.943182 112.26293,27.1656259 107.03033,27.1656259 C101.79853,27.1656259 99.95743,23.943182 99.95743,19.0142045 C99.95743,13.7633317 102.05683,10.7994414 107.09513,10.7994414" id="Fill-9" fill="#231F20" mask="url(#mask-2)"></path>
                    <polygon id="Fill-10" fill="#231F20" mask="url(#mask-2)" points="116.37181 26.8433616 116.37181 4.42091771 119.92441 4.13104239 119.92441 26.8433616"></polygon>
                    <path d="M72.37084,23.9117207 C73.37154,23.9431421 73.92134,23.9755611 74.95434,23.9755611 C77.15004,23.9755611 78.60414,22.8158603 78.60414,18.2083791 C78.60414,15.0514713 77.31194,14.2148628 74.98674,14.2148628 C74.08244,14.2148628 73.24284,14.3747631 72.37084,14.6655362 L72.37084,23.9117207 Z M68.81824,11.0248379 L71.49884,11.0248379 L71.78964,12.1845387 C72.85594,11.6045885 74.82484,10.7995012 76.60204,10.7995012 C79.83074,10.7995012 82.18834,13.1512219 82.18834,18.7882294 C82.18834,24.3300748 79.70124,27.0686284 75.56814,27.0686284 C74.04664,27.0686284 72.37084,26.7464339 72.37084,26.7464339 L72.37084,33.9946135 L68.81824,34.3815461 L68.81824,11.0248379 Z" id="Fill-11" fill="#231F20" mask="url(#mask-2)"></path>
                    <path d="M86.4058,1.30568579 C83.7491,-1.76493766 75.3192,0.934114713 65.9117,7.42887781 L65.9117,9.06558603 C74.1966,3.19107232 81.5,0.480548628 83.5917,2.89820449 C86.2034,5.9167581 79.7067,15.7901746 69.079,24.938803 C58.4505,34.0882294 47.7136,39.0488279 45.1023,36.0301746 C43.746,34.4622943 44.852,31.0456359 47.7136,26.8433416 L46.0502,26.8433416 C42.5069,32.1141646 41.1787,36.5425935 42.9979,38.6455362 C46.3144,42.4791521 58.7199,37.2342643 70.7037,26.9190524 C82.6862,16.6038404 89.7219,5.139202 86.4058,1.30568579" id="Fill-12" fill="#EDB011" mask="url(#mask-2)"></path>
                </g>
            </g>
        </g>
    </g>
</svg>