<svg xmlns="http://www.w3.org/2000/svg" width="20" height="20" viewBox="0 0 20 20">
    <g fill="none" fill-rule="evenodd" opacity=".5">
        <g>
            <g>
                <g>
                    <g>
                        <g>
                            <path d="M0 0L20 0 20 20 0 20z" transform="translate(-1003 -4221) translate(0 4090) translate(184 100) translate(146 31) translate(673)"/>
                            <path fill="#FFF" fill-rule="nonzero" d="M15.502 13.453c1.274 0 2.306 1.032 2.306 2.306 0 1.273-1.032 2.305-2.306 2.305-1.273 0-2.305-1.032-2.305-2.305 0-1.274 1.032-2.306 2.305-2.306zm-10.66.256c1.242 1.912 3.39 3.192 5.833 3.192.69 0 1.34-.118 1.97-.295.119.394.296.749.552 1.025-.788.275-1.635.413-2.522.413-2.956 0-5.537-1.576-6.936-3.94.394-.06.768-.198 1.103-.395zm11.646-9.32c1.399 1.458 2.266 3.429 2.266 5.616 0 1.38-.355 2.66-.966 3.803-.256-.296-.571-.552-.926-.73.473-.945.73-1.99.73-3.093 0-1.753-.67-3.37-1.735-4.59.276-.296.493-.631.63-1.006zM3.305 8.842c1.274 0 2.306 1.033 2.306 2.306 0 1.273-1.032 2.305-2.306 2.305C2.032 13.453 1 12.421 1 11.148c0-1.273 1.032-2.306 2.305-2.306zm7.705-6.896c-.177.354-.276.729-.315 1.143h-.02c-3.192 0-5.892 2.187-6.68 5.143-.217-.06-.453-.08-.69-.06-.177 0-.335.02-.492.04.827-3.586 4.02-6.266 7.862-6.266zM13.67 1c1.273 0 2.305 1.032 2.305 2.305 0 1.274-1.032 2.306-2.305 2.306-1.273 0-2.305-1.032-2.305-2.306C11.365 2.032 12.397 1 13.67 1z" transform="translate(-1003 -4221) translate(0 4090) translate(184 100) translate(146 31) translate(673)"/>
                        </g>
                    </g>
                </g>
            </g>
        </g>
    </g>
</svg>
