<?xml version="1.0" encoding="UTF-8"?>
<svg width="20px" height="20px" viewBox="0 0 20 20" version="1.1" xmlns="http://www.w3.org/2000/svg" xmlns:xlink="http://www.w3.org/1999/xlink">
    <!-- Generator: sketchtool 50.2 (55047) - http://www.bohemiancoding.com/sketch -->
    <title>04AE20EA-B8F7-444F-83AC-0D5ABECA5DFB@1x</title>
    <desc>Created with sketchtool.</desc>
    <defs></defs>
    <g id="v1" stroke="none" stroke-width="1" fill="none" fill-rule="evenodd" opacity="0.900000036">
        <g id="HF-Homepage" transform="translate(-970.000000, -7227.000000)" fill="#FFFFFF" fill-rule="nonzero">
            <g id="Group-42" transform="translate(0.000000, 6119.000000)">
                <g id="Group-41" transform="translate(246.000000, 1108.000000)">
                    <g id="Group-40" transform="translate(644.000000, 0.000000)">
                        <g id="youtube" transform="translate(80.000000, 0.000000)">
                            <path d="M9.9985654,19.9971308 C4.47651021,19.9971308 0,15.5206206 0,9.9985654 C0,4.47651021 4.47651021,0 9.9985654,0 C15.5206206,0 19.9971308,4.47651021 19.9971308,9.9985654 C19.9971308,15.5206206 15.5206206,19.9971308 9.9985654,19.9971308 Z M15.2308439,8.06911392 C15.2308439,7.23092827 14.5518143,6.55156118 13.7140928,6.55156118 L6.59797468,6.55156118 C5.76042194,6.55156118 5.08151899,7.23109705 5.08151899,8.06911392 L5.08151899,12.138481 C5.08151899,12.9766667 5.76054852,13.6560338 6.59797468,13.6560338 L13.7139662,13.6560338 C14.5518565,13.6560338 15.2307173,12.9764979 15.2307173,12.138481 L15.2307173,8.06911392 L15.2308439,8.06911392 Z M9.14092827,11.8205063 L9.14092827,7.99839662 L12.0394515,9.90953586 L9.14092827,11.8205063 Z" id="Combined-Shape"></path>
                        </g>
                    </g>
                </g>
            </g>
        </g>
    </g>
</svg>