<svg xmlns="http://www.w3.org/2000/svg" width="79" height="36" viewBox="0 0 79 36">
    <path fill="#FF4A00" fill-rule="nonzero" d="M47.405 15.656h-1.969c-.04-.16-.07-.346-.09-.557a6.36 6.36 0 0 1 0-1.236c.02-.21.05-.396.09-.558h4.908v15.462a7.37 7.37 0 0 1-.743.09 10.34 10.34 0 0 1-.742.03 9.993 9.993 0 0 1-.712-.03 7.348 7.348 0 0 1-.741-.09V15.654v.001zm17.084 3.888c0-.562-.076-1.1-.227-1.613a4.105 4.105 0 0 0-.666-1.34 3.248 3.248 0 0 0-1.121-.92c-.454-.23-.995-.346-1.62-.346-1.233 0-2.177.372-2.833 1.115-.656.743-1.055 1.778-1.197 3.104h7.664zm-7.694 2.23c.04 1.688.48 2.924 1.318 3.707.838.784 2.075 1.176 3.71 1.176a11.19 11.19 0 0 0 4.09-.754c.16.302.292.669.393 1.1.1.421.16.85.182 1.281-.666.282-1.399.492-2.196.633-.798.14-1.681.211-2.65.211-1.414 0-2.626-.196-3.635-.588-1.01-.392-1.843-.944-2.5-1.657a6.558 6.558 0 0 1-1.438-2.532c-.303-.974-.455-2.044-.455-3.21 0-1.145.146-2.215.44-3.21.292-.994.742-1.858 1.347-2.591a6.508 6.508 0 0 1 2.287-1.749c.919-.432 2.004-.648 3.257-.648 1.07 0 2.009.181 2.817.543a5.727 5.727 0 0 1 2.03 1.492c.544.633.958 1.386 1.241 2.26.283.874.424 1.823.424 2.848 0 .282-.01.578-.03.89a30.14 30.14 0 0 1-.06.798H56.794zm13.966-8.469a6.562 6.562 0 0 1 1.272-.12c.222 0 .444.01.667.03.222.02.424.05.606.09.06.302.12.699.18 1.19.061.493.092.91.092 1.251a6.257 6.257 0 0 1 1.68-1.778c.697-.502 1.591-.753 2.681-.753.162 0 .328.005.5.015.147.008.294.023.44.045.04.18.07.372.09.573a6.42 6.42 0 0 1-.015 1.386c-.029.252-.064.503-.106.753a2.097 2.097 0 0 0-.5-.06h-.409c-.545 0-1.065.075-1.56.226-.495.15-.94.417-1.333.798-.393.382-.707.905-.938 1.568-.233.663-.349 1.517-.349 2.562v7.685a7.402 7.402 0 0 1-.742.09c-.272.02-.52.03-.742.03a10.244 10.244 0 0 1-1.515-.12v-15.46zM49.5 5.05c0 .361-.065.719-.193 1.057-.34.127-.699.192-1.062.192h-.004c-.363 0-.722-.065-1.062-.192a2.979 2.979 0 0 1-.193-1.057v-.004c0-.372.068-.728.192-1.057.34-.127.7-.192 1.063-.192h.004c.373 0 .731.068 1.061.192.128.338.194.696.194 1.057v.004zm3.702-.836h-2.935l2.075-2.065A5.036 5.036 0 0 0 51.158.97l-2.076 2.065V.114a5.077 5.077 0 0 0-.835-.07h-.005c-.285 0-.564.024-.836.07v2.92L45.33.97a5.015 5.015 0 0 0-.641.54l-.001.001c-.199.198-.38.411-.543.638l2.076 2.065h-2.935s-.07.549-.07.832v.004c0 .283.024.561.07.832h2.935l-2.076 2.064c.327.456.727.855 1.186 1.18l2.075-2.065v2.92c.272.046.55.07.835.07h.007c.28 0 .558-.023.834-.07V7.06l2.076 2.065a5.058 5.058 0 0 0 1.185-1.179l-2.076-2.065h2.936c.045-.27.07-.547.07-.83v-.008c0-.278-.024-.555-.07-.83zM0 28.345l8.179-12.659H.969a7.35 7.35 0 0 1-.09-1.205c0-.422.03-.814.09-1.176h11.663l.151.393-8.239 12.688h7.724c.06.402.091.813.091 1.235 0 .403-.03.784-.09 1.146H.151L0 28.345zm23.597-6.842c-.303-.04-.687-.08-1.151-.12-.465-.04-.859-.06-1.181-.06-1.253 0-2.207.23-2.863.693-.656.462-.984 1.165-.984 2.11 0 .602.11 1.074.333 1.416.222.342.5.603.833.784.333.18.701.291 1.105.331.404.04.788.06 1.151.06.465 0 .944-.025 1.44-.075.494-.05.933-.126 1.317-.226v-4.913zm0-2.923c0-1.186-.303-2.01-.909-2.472-.606-.462-1.484-.693-2.635-.693-.708 0-1.369.055-1.984.166-.61.109-1.212.254-1.803.436-.384-.663-.575-1.456-.575-2.38.686-.221 1.443-.392 2.271-.513.828-.12 1.626-.18 2.393-.18 2.02 0 3.554.457 4.604 1.37 1.05.916 1.576 2.377 1.576 4.386v9.675c-.708.16-1.565.326-2.575.497-1.02.172-2.054.257-3.09.256-.99 0-1.883-.09-2.68-.27-.798-.182-1.475-.473-2.03-.875a4.055 4.055 0 0 1-1.288-1.537c-.303-.623-.454-1.376-.454-2.26 0-.864.177-1.623.53-2.276a4.76 4.76 0 0 1 1.44-1.627 6.433 6.433 0 0 1 2.09-.964 9.554 9.554 0 0 1 2.483-.317c.646 0 1.176.015 1.59.045.414.03.763.066 1.045.106v-.573zm9.208 7.655c.382.14.778.241 1.181.301.404.06.929.09 1.576.09.726 0 1.393-.115 1.998-.346a3.97 3.97 0 0 0 1.56-1.07c.435-.482.778-1.09 1.03-1.823.253-.733.38-1.602.38-2.607 0-1.607-.3-2.883-.894-3.828-.597-.944-1.571-1.416-2.923-1.416-.505 0-.99.09-1.454.271-.465.18-.879.452-1.242.814-.364.361-.657.819-.879 1.371-.222.553-.333 1.21-.333 1.974v6.269zm-2.999-12.93a6.398 6.398 0 0 1 1.272-.12c.202 0 .414.01.636.03.222.02.434.05.636.09.02.04.046.166.076.377s.06.437.091.678c.03.241.06.473.09.693.031.222.046.362.046.422.202-.32.444-.632.727-.934a4.852 4.852 0 0 1 1.015-.813 5.323 5.323 0 0 1 1.333-.573 6.031 6.031 0 0 1 1.65-.212c.91 0 1.753.151 2.53.453a5.061 5.061 0 0 1 2 1.401c.554.633.988 1.437 1.302 2.411.312.975.469 2.126.469 3.451 0 2.652-.722 4.728-2.166 6.224-1.445 1.497-3.489 2.245-6.134 2.245-.444 0-.899-.03-1.363-.09a8.134 8.134 0 0 1-1.212-.241v7.083a8.845 8.845 0 0 1-.772.09c-.273.02-.52.03-.742.03a10.33 10.33 0 0 1-.742-.03 7.352 7.352 0 0 1-.742-.09V13.305z"/>
</svg>
